ScienceGothic-LtExpCtrS.ufo
<glyph name="dollar" format="2">
  <advance width="2588"/>
  <unicode hex="0024"/>
  <outline>
    <contour>
      <point x="1127" y="-150" type="line"/>
      <point x="1167" y="-150" type="line"/>
      <point x="1196" y="20" type="line"/>
      <point x="1864" y="20" type="line" smooth="yes"/>
      <point x="1936.38" y="20"/>
      <point x="2055.22" y="59.4688"/>
      <point x="2145.03" y="135.781"/>
      <point x="2204.25" y="247.625"/>
      <point x="2217" y="320" type="qcurve" smooth="yes"/>
      <point x="2235" y="426" type="line" smooth="yes"/>
      <point x="2247.75" y="498.375"/>
      <point x="2228.03" y="610.219"/>
      <point x="2165.22" y="686.531"/>
      <point x="2060.38" y="726"/>
      <point x="1988" y="726" type="qcurve" smooth="yes"/>
      <point x="1320" y="726" type="line"/>
      <point x="1428" y="1344" type="line"/>
      <point x="2078" y="1344" type="line" smooth="yes"/>
      <point x="2207.04" y="1344"/>
      <point x="2316.64" y="1210.28"/>
      <point x="2294" y="1082" type="qcurve" smooth="yes"/>
      <point x="2282" y="1012" type="line"/>
      <point x="2323" y="1022" type="line"/>
      <point x="2333" y="1080" type="line" smooth="yes"/>
      <point x="2345.75" y="1152.38"/>
      <point x="2326.03" y="1264.22"/>
      <point x="2263.22" y="1340.53"/>
      <point x="2158.38" y="1380"/>
      <point x="2086" y="1380" type="qcurve" smooth="yes"/>
      <point x="1434" y="1380" type="line"/>
      <point x="1464" y="1550" type="line"/>
      <point x="1424" y="1550" type="line"/>
      <point x="1394" y="1380" type="line"/>
      <point x="752" y="1380" type="line" smooth="yes"/>
      <point x="680" y="1380"/>
      <point x="561.25" y="1340.53"/>
      <point x="471.25" y="1264.22"/>
      <point x="411.75" y="1152.38"/>
      <point x="399" y="1080" type="qcurve" smooth="yes"/>
      <point x="384" y="990" type="line" smooth="yes"/>
      <point x="371.25" y="917.625"/>
      <point x="391.25" y="805.781"/>
      <point x="454.25" y="729.469"/>
      <point x="559" y="690"/>
      <point x="631" y="690" type="qcurve" smooth="yes"/>
      <point x="1273" y="690" type="line"/>
      <point x="1163" y="56" type="line"/>
      <point x="501" y="56" type="line" smooth="yes"/>
      <point x="372.718" y="56"/>
      <point x="262.362" y="189.718"/>
      <point x="285" y="318" type="qcurve" smooth="yes"/>
      <point x="298" y="396" type="line"/>
      <point x="256" y="386" type="line"/>
      <point x="245" y="320" type="line" smooth="yes"/>
      <point x="232.25" y="247.625"/>
      <point x="252.25" y="135.781"/>
      <point x="315.25" y="59.4688"/>
      <point x="420" y="20"/>
      <point x="492" y="20" type="qcurve" smooth="yes"/>
      <point x="1156" y="20" type="line"/>
    </contour>
    <contour>
      <point x="1280" y="726" type="line"/>
      <point x="640" y="726" type="line" smooth="yes"/>
      <point x="511.718" y="726"/>
      <point x="401.117" y="859.718"/>
      <point x="423" y="988" type="qcurve" smooth="yes"/>
      <point x="440" y="1082" type="line" smooth="yes"/>
      <point x="462.638" y="1210.28"/>
      <point x="619.718" y="1344"/>
      <point x="748" y="1344" type="qcurve" smooth="yes"/>
      <point x="1388" y="1344" type="line"/>
    </contour>
    <contour>
      <point x="1203" y="56" type="line"/>
      <point x="1313" y="690" type="line"/>
      <point x="1983" y="690" type="line" smooth="yes"/>
      <point x="2112.04" y="690"/>
      <point x="2221.88" y="556.282"/>
      <point x="2200" y="428" type="qcurve" smooth="yes"/>
      <point x="2181" y="318" type="line" smooth="yes"/>
      <point x="2158.36" y="189.718"/>
      <point x="2002.04" y="56"/>
      <point x="1873" y="56" type="qcurve" smooth="yes"/>
    </contour>
  </outline>
</glyph>
<glyph name="plus" format="2">
  <advance width="2020"/>
  <unicode hex="002B"/>
  <outline>
    <contour>
      <point x="1781" y="605" type="line"/>
      <point x="1018" y="605" type="line"/>
      <point x="1116" y="1168" type="line"/>
      <point x="1076" y="1168" type="line"/>
      <point x="978" y="605" type="line"/>
      <point x="215" y="605" type="line"/>
      <point x="208" y="569" type="line"/>
      <point x="971" y="569" type="line"/>
      <point x="872" y="0" type="line"/>
      <point x="912" y="0" type="line"/>
      <point x="1011" y="569" type="line"/>
      <point x="1774" y="569" type="line"/>
    </contour>
  </outline>
</glyph>
<glyph name="zero" format="2">
  <advance width="2498"/>
  <unicode hex="0030"/>
  <outline>
    <contour>
      <point x="532" y="0" type="qcurve" smooth="yes"/>
      <point x="1728" y="0" type="line" smooth="yes"/>
      <point x="1873.64" y="0"/>
      <point x="2055.1" y="154.362"/>
      <point x="2080" y="300" type="qcurve" smooth="yes"/>
      <point x="2220" y="1100" type="line" smooth="yes"/>
      <point x="2245.5" y="1244.75"/>
      <point x="2116.75" y="1400"/>
      <point x="1972" y="1400" type="qcurve" smooth="yes"/>
      <point x="776" y="1400" type="line" smooth="yes"/>
      <point x="631.25" y="1400"/>
      <point x="449.5" y="1244.75"/>
      <point x="424" y="1100" type="qcurve" smooth="yes"/>
      <point x="284" y="300" type="line" smooth="yes"/>
      <point x="259.098" y="154.362"/>
      <point x="386.362" y="0"/>
    </contour>
    <contour>
      <point x="540" y="36" type="line" smooth="yes"/>
      <point x="411.718" y="36"/>
      <point x="301.362" y="169.718"/>
      <point x="324" y="298" type="qcurve" smooth="yes"/>
      <point x="464" y="1102" type="line" smooth="yes"/>
      <point x="486.638" y="1230.28"/>
      <point x="643.718" y="1364"/>
      <point x="772" y="1364" type="qcurve" smooth="yes"/>
      <point x="1964" y="1364" type="line" smooth="yes"/>
      <point x="2092.28" y="1364"/>
      <point x="2202.64" y="1230.28"/>
      <point x="2180" y="1102" type="qcurve" smooth="yes"/>
      <point x="2040" y="298" type="line" smooth="yes"/>
      <point x="2017.36" y="169.718"/>
      <point x="1860.28" y="36"/>
      <point x="1732" y="36" type="qcurve" smooth="yes"/>
    </contour>
  </outline>
</glyph>
<glyph name="G" format="2">
  <advance width="2528"/>
  <unicode hex="0047"/>
  <anchor x="1423" y="1550" name="top"/>
  <anchor x="1126" y="-150" name="bottom"/>
  <outline>
    <contour>
      <point x="408" y="1100" type="qcurve" smooth="yes"/>
      <point x="268" y="300" type="line" smooth="yes"/>
      <point x="243.098" y="154.362"/>
      <point x="370.362" y="0"/>
      <point x="516" y="0" type="qcurve" smooth="yes"/>
      <point x="1784" y="0" type="line" smooth="yes"/>
      <point x="1929.64" y="0"/>
      <point x="2111.1" y="154.362"/>
      <point x="2136" y="300" type="qcurve" smooth="yes"/>
      <point x="2206" y="700" type="line"/>
      <point x="1286" y="700" type="line"/>
      <point x="1280" y="664" type="line"/>
      <point x="2160" y="664" type="line"/>
      <point x="2096" y="298" type="line" smooth="yes"/>
      <point x="2073.36" y="169.718"/>
      <point x="1916.28" y="36"/>
      <point x="1788" y="36" type="qcurve" smooth="yes"/>
      <point x="524" y="36" type="line" smooth="yes"/>
      <point x="395.718" y="36"/>
      <point x="285.362" y="169.718"/>
      <point x="308" y="298" type="qcurve" smooth="yes"/>
      <point x="448" y="1102" type="line" smooth="yes"/>
      <point x="470.638" y="1230.28"/>
      <point x="627.718" y="1364"/>
      <point x="756" y="1364" type="qcurve" smooth="yes"/>
      <point x="2020" y="1364" type="line" smooth="yes"/>
      <point x="2148.28" y="1364"/>
      <point x="2258.64" y="1230.28"/>
      <point x="2236" y="1102" type="qcurve" smooth="yes"/>
      <point x="2219" y="1000" type="line"/>
      <point x="2260" y="1008" type="line"/>
      <point x="2276" y="1100" type="line" smooth="yes"/>
      <point x="2301.5" y="1244.75"/>
      <point x="2172.75" y="1400"/>
      <point x="2028" y="1400" type="qcurve" smooth="yes"/>
      <point x="760" y="1400" type="line" smooth="yes"/>
      <point x="615.25" y="1400"/>
      <point x="433.5" y="1244.75"/>
    </contour>
  </outline>
  <guideline angle="0" x="0" y="574"/>
  <guideline angle="0" x="0" y="1036"/>
  <guideline angle="0" x="0" y="980"/>
  <guideline angle="0" x="0" y="806"/>
  <guideline angle="0" x="0" y="700"/>
  <guideline angle="0" x="0" y="906"/>
  <guideline angle="0" x="0" y="494"/>
</glyph>
<glyph name="L" format="2">
  <advance width="2070"/>
  <unicode hex="004C"/>
  <anchor x="524" y="1550" name="top"/>
  <anchor x="1063" y="-150" name="bottom"/>
  <anchor x="255" y="700" name="left"/>
  <anchor x="1517" y="1400" name="right"/>
  <anchor x="1409" y="700" name="eldot"/>
  <outline>
    <contour>
      <point x="233" y="0" type="line"/>
      <point x="1945" y="0" type="line"/>
      <point x="1951" y="36" type="line"/>
      <point x="279" y="36" type="line"/>
      <point x="517" y="1400" type="line"/>
      <point x="477" y="1400" type="line"/>
    </contour>
  </outline>
</glyph>
<glyph name="M" format="2">
  <advance width="2961"/>
  <unicode hex="004D"/>
  <anchor x="1633" y="1550" name="top"/>
  <anchor x="1336" y="-150" name="bottom"/>
  <outline>
    <contour>
      <point x="233" y="0" type="line"/>
      <point x="271" y="0" type="line"/>
      <point x="505" y="1342" type="line"/>
      <point x="1424" y="370" type="line"/>
      <point x="2686" y="1344" type="line"/>
      <point x="2451" y="0" type="line"/>
      <point x="2491" y="0" type="line"/>
      <point x="2735" y="1400" type="line"/>
      <point x="2703" y="1400" type="line"/>
      <point x="1435" y="421" type="line"/>
      <point x="510" y="1400" type="line"/>
      <point x="477" y="1400" type="line"/>
    </contour>
  </outline>
</glyph>
<glyph name="V" format="2">
  <advance width="2321"/>
  <unicode hex="0056"/>
  <anchor x="1314" y="1550" name="top"/>
  <anchor x="1017" y="-150" name="bottom"/>
  <outline>
    <contour>
      <point x="1035" y="0" type="line"/>
      <point x="1053" y="0" type="line"/>
      <point x="2447" y="1400" type="line"/>
      <point x="2397" y="1400" type="line"/>
      <point x="1054" y="49" type="line"/>
      <point x="177" y="1400" type="line"/>
      <point x="127" y="1400" type="line"/>
    </contour>
  </outline>
</glyph>
<glyph name="bracketleft" format="2">
  <advance width="968"/>
  <unicode hex="005B"/>
  <outline>
    <contour>
      <point x="188" y="-256" type="line"/>
      <point x="627" y="-256" type="line"/>
      <point x="633" y="-224" type="line"/>
      <point x="230" y="-224" type="line"/>
      <point x="516" y="1416" type="line"/>
      <point x="919" y="1416" type="line"/>
      <point x="925" y="1448" type="line"/>
      <point x="486" y="1448" type="line"/>
    </contour>
  </outline>
</glyph>
<glyph name="bracketright" format="2">
  <advance width="968"/>
  <unicode hex="005D"/>
  <outline>
    <contour>
      <point x="750" y="1448" type="line"/>
      <point x="311" y="1448" type="line"/>
      <point x="305" y="1416" type="line"/>
      <point x="708" y="1416" type="line"/>
      <point x="422" y="-224" type="line"/>
      <point x="19" y="-224" type="line"/>
      <point x="13" y="-256" type="line"/>
      <point x="452" y="-256" type="line"/>
    </contour>
  </outline>
</glyph>
<glyph name="asciicircum" format="2">
  <advance width="1207"/>
  <unicode hex="005E"/>
  <outline>
    <contour>
      <point x="40" y="850" type="line"/>
      <point x="96" y="850" type="line"/>
      <point x="728" y="1370" type="line"/>
      <point x="1172" y="850" type="line"/>
      <point x="1226" y="850" type="line"/>
      <point x="745" y="1400" type="line"/>
      <point x="713" y="1400" type="line"/>
    </contour>
  </outline>
  <guideline angle="0" x="0" y="850"/>
</glyph>
<glyph name="underscore" format="2">
  <advance width="925"/>
  <unicode hex="005F"/>
  <outline>
    <contour>
      <point x="-163" y="-172" type="line"/>
      <point x="802" y="-172" type="line"/>
      <point x="808" y="-136" type="line"/>
      <point x="-157" y="-136" type="line"/>
    </contour>
  </outline>
</glyph>
<glyph name="b" format="2">
  <advance width="2089"/>
  <unicode hex="0062"/>
  <anchor x="1198" y="1598" name="top"/>
  <anchor x="893" y="-150" name="bottom"/>
  <outline>
    <contour>
      <point x="209" y="0" type="line"/>
      <point x="245" y="0" type="line"/>
      <point x="248" y="16" type="line"/>
      <point x="251.773" y="7.6994"/>
      <point x="278.589" y="0"/>
      <point x="305" y="0" type="qcurve" smooth="yes"/>
      <point x="1513" y="0" type="line" smooth="yes"/>
      <point x="1592.99" y="0"/>
      <point x="1689.42" y="83.5216"/>
      <point x="1703" y="162" type="qcurve" smooth="yes"/>
      <point x="1821" y="838" type="line" smooth="yes"/>
      <point x="1834.58" y="916.478"/>
      <point x="1768.74" y="1000"/>
      <point x="1688" y="1000" type="qcurve" smooth="yes"/>
      <point x="482" y="1000" type="line" smooth="yes"/>
      <point x="455.589" y="1000"/>
      <point x="426.055" y="992.301"/>
      <point x="417" y="984" type="qcurve"/>
      <point x="498" y="1448" type="line"/>
      <point x="462" y="1448" type="line"/>
    </contour>
    <contour>
      <point x="251" y="32" type="line"/>
      <point x="414" y="968" type="line"/>
      <point x="1672" y="968" type="line" smooth="yes"/>
      <point x="1738.4" y="968"/>
      <point x="1796.07" y="898.405"/>
      <point x="1784" y="832" type="qcurve" smooth="yes"/>
      <point x="1668" y="168" type="line" smooth="yes"/>
      <point x="1656.68" y="101.595"/>
      <point x="1575.4" y="32"/>
      <point x="1509" y="32" type="qcurve" smooth="yes"/>
    </contour>
  </outline>
  <guideline angle="0" x="0" y="988"/>
  <guideline angle="0" x="0" y="42"/>
</glyph>
<glyph name="d" format="2">
  <advance width="2089"/>
  <unicode hex="0064"/>
  <anchor x="1190" y="1598" name="top"/>
  <anchor x="885" y="-150" name="bottom"/>
  <anchor x="1897" y="1448" name="right"/>
  <outline>
    <contour>
      <point x="204" y="162" type="line" smooth="yes"/>
      <point x="189.663" y="82.767"/>
      <point x="257.767" y="0"/>
      <point x="337" y="0" type="qcurve" smooth="yes"/>
      <point x="1547" y="0" type="line" smooth="yes"/>
      <point x="1572.66" y="0"/>
      <point x="1602.45" y="8.454"/>
      <point x="1610" y="16" type="qcurve"/>
      <point x="1607" y="0" type="line"/>
      <point x="1643" y="0" type="line"/>
      <point x="1896" y="1448" type="line"/>
      <point x="1860" y="1448" type="line"/>
      <point x="1779" y="984" type="line"/>
      <point x="1772.96" y="991.546"/>
      <point x="1745.66" y="1000"/>
      <point x="1720" y="1000" type="qcurve" smooth="yes"/>
      <point x="512" y="1000" type="line" smooth="yes"/>
      <point x="432.767" y="1000"/>
      <point x="335.583" y="917.233"/>
      <point x="322" y="838" type="qcurve" smooth="yes"/>
    </contour>
    <contour>
      <point x="1776" y="968" type="line"/>
      <point x="1613" y="32" type="line"/>
      <point x="343" y="32" type="line" smooth="yes"/>
      <point x="275.841" y="32"/>
      <point x="228.926" y="101.595"/>
      <point x="241" y="168" type="qcurve" smooth="yes"/>
      <point x="357" y="832" type="line" smooth="yes"/>
      <point x="368.319" y="898.405"/>
      <point x="438.841" y="968"/>
      <point x="506" y="968" type="qcurve" smooth="yes"/>
    </contour>
  </outline>
  <guideline angle="0" x="0" y="988"/>
  <guideline angle="0" x="0" y="42"/>
</glyph>
<glyph name="k" format="2">
  <advance width="1801"/>
  <unicode hex="006B"/>
  <anchor x="1310" y="1598" name="top"/>
  <anchor x="795" y="-150" name="bottom"/>
  <anchor x="235" y="724" name="left"/>
  <outline>
    <contour>
      <point x="209" y="0" type="line"/>
      <point x="245" y="0" type="line"/>
      <point x="336" y="522" type="line"/>
      <point x="307" y="522" type="line"/>
      <point x="1573" y="0" type="line"/>
      <point x="1665" y="0" type="line"/>
      <point x="377" y="530" type="line"/>
      <point x="377" y="521" type="line"/>
      <point x="1688" y="1000" type="line"/>
      <point x="1608" y="1000" type="line"/>
      <point x="306" y="525" type="line"/>
      <point x="337" y="525" type="line"/>
      <point x="498" y="1448" type="line"/>
      <point x="462" y="1448" type="line"/>
    </contour>
  </outline>
</glyph>
<glyph name="o" format="2">
  <advance width="2072"/>
  <unicode hex="006F"/>
  <anchor x="1118" y="1150" name="top"/>
  <anchor x="891" y="-150" name="bottom"/>
  <anchor x="1804" y="838" name="horn"/>
  <anchor x="935" y="0" name="ogonek"/>
  <outline>
    <contour>
      <point x="204" y="162" type="line" smooth="yes"/>
      <point x="189.663" y="82.767"/>
      <point x="257.767" y="0"/>
      <point x="337" y="0" type="qcurve" smooth="yes"/>
      <point x="1495" y="0" type="line" smooth="yes"/>
      <point x="1574.23" y="0"/>
      <point x="1671.66" y="82.767"/>
      <point x="1686" y="162" type="qcurve" smooth="yes"/>
      <point x="1804" y="838" type="line" smooth="yes"/>
      <point x="1817.58" y="917.233"/>
      <point x="1749.23" y="1000"/>
      <point x="1670" y="1000" type="qcurve" smooth="yes"/>
      <point x="512" y="1000" type="line" smooth="yes"/>
      <point x="432.767" y="1000"/>
      <point x="335.583" y="917.233"/>
      <point x="322" y="838" type="qcurve" smooth="yes"/>
    </contour>
    <contour>
      <point x="241" y="168" type="qcurve" smooth="yes"/>
      <point x="357" y="832" type="line" smooth="yes"/>
      <point x="368.319" y="898.405"/>
      <point x="438.841" y="968"/>
      <point x="506" y="968" type="qcurve" smooth="yes"/>
      <point x="1664" y="968" type="line" smooth="yes"/>
      <point x="1731.16" y="968"/>
      <point x="1778.32" y="898.405"/>
      <point x="1767" y="832" type="qcurve" smooth="yes"/>
      <point x="1651" y="168" type="line" smooth="yes"/>
      <point x="1638.93" y="101.595"/>
      <point x="1568.16" y="32"/>
      <point x="1501" y="32" type="qcurve" smooth="yes"/>
      <point x="343" y="32" type="line" smooth="yes"/>
      <point x="275.841" y="32"/>
      <point x="228.926" y="101.595"/>
    </contour>
  </outline>
</glyph>
<glyph name="s" format="2">
  <advance width="1825"/>
  <unicode hex="0073"/>
  <anchor x="1000" y="1150" name="top"/>
  <anchor x="769" y="-150" name="bottom"/>
  <outline>
    <contour>
      <point x="217" y="300" type="line"/>
      <point x="193" y="162" type="line" smooth="yes"/>
      <point x="179.417" y="82.767"/>
      <point x="247.767" y="0"/>
      <point x="327" y="0" type="qcurve" smooth="yes"/>
      <point x="1259" y="0" type="line" smooth="yes"/>
      <point x="1338.23" y="0"/>
      <point x="1435.42" y="82.767"/>
      <point x="1449" y="162" type="qcurve" smooth="yes"/>
      <point x="1483" y="357" type="line" smooth="yes"/>
      <point x="1497.34" y="436.233"/>
      <point x="1429.23" y="519"/>
      <point x="1350" y="519" type="qcurve" smooth="yes"/>
      <point x="446" y="519" type="line" smooth="yes"/>
      <point x="371.295" y="519"/>
      <point x="327.681" y="588.595"/>
      <point x="339" y="655" type="qcurve" smooth="yes"/>
      <point x="370" y="832" type="line" smooth="yes"/>
      <point x="382.074" y="898.405"/>
      <point x="449.295" y="968"/>
      <point x="524" y="968" type="qcurve" smooth="yes"/>
      <point x="1408" y="968" type="line" smooth="yes"/>
      <point x="1482.71" y="968"/>
      <point x="1526.07" y="899.159"/>
      <point x="1514" y="832" type="qcurve" smooth="yes"/>
      <point x="1492" y="706" type="line"/>
      <point x="1530" y="714" type="line"/>
      <point x="1551" y="838" type="line" smooth="yes"/>
      <point x="1564.58" y="917.233"/>
      <point x="1497.23" y="1000"/>
      <point x="1418" y="1000" type="qcurve" smooth="yes"/>
      <point x="526" y="1000" type="line" smooth="yes"/>
      <point x="447.25" y="1000"/>
      <point x="349.25" y="916.75"/>
      <point x="335" y="838" type="qcurve" smooth="yes"/>
      <point x="302" y="649" type="line" smooth="yes"/>
      <point x="288.417" y="569.767"/>
      <point x="356.767" y="487"/>
      <point x="436" y="487" type="qcurve" smooth="yes"/>
      <point x="1340" y="487" type="line" smooth="yes"/>
      <point x="1414.71" y="487"/>
      <point x="1458.07" y="417.405"/>
      <point x="1446" y="351" type="qcurve" smooth="yes"/>
      <point x="1414" y="168" type="line" smooth="yes"/>
      <point x="1402.68" y="100.841"/>
      <point x="1335.71" y="32"/>
      <point x="1261" y="32" type="qcurve" smooth="yes"/>
      <point x="337" y="32" type="line" smooth="yes"/>
      <point x="262.295" y="32"/>
      <point x="218.681" y="101.595"/>
      <point x="230" y="168" type="qcurve" smooth="yes"/>
      <point x="255" y="308" type="line"/>
    </contour>
  </outline>
</glyph>
<glyph name="t" format="2">
  <advance width="1378"/>
  <unicode hex="0074"/>
  <anchor x="780" y="1394" name="top"/>
  <anchor x="511" y="-150" name="bottom"/>
  <anchor x="684" y="1400" name="right"/>
  <outline>
    <contour>
      <point x="564" y="0" type="qcurve" smooth="yes"/>
      <point x="1084" y="0" type="line"/>
      <point x="1100" y="32" type="line"/>
      <point x="570" y="32" type="line" smooth="yes"/>
      <point x="502.841" y="32"/>
      <point x="455.926" y="101.595"/>
      <point x="468" y="168" type="qcurve" smooth="yes"/>
      <point x="607" y="968" type="line"/>
      <point x="1293" y="968" type="line"/>
      <point x="1299" y="1000" type="line"/>
      <point x="613" y="1000" type="line"/>
      <point x="656" y="1244" type="line"/>
      <point x="620" y="1244" type="line"/>
      <point x="577" y="1000" type="line"/>
      <point x="187" y="1000" type="line"/>
      <point x="181" y="968" type="line"/>
      <point x="571" y="968" type="line"/>
      <point x="431" y="162" type="line" smooth="yes"/>
      <point x="416.663" y="82.767"/>
      <point x="484.767" y="0"/>
    </contour>
  </outline>
</glyph>
<glyph name="z" format="2">
  <advance width="1789"/>
  <unicode hex="007A"/>
  <anchor x="975" y="1150" name="top"/>
  <anchor x="748" y="-150" name="bottom"/>
  <outline>
    <contour>
      <point x="35" y="0" type="line"/>
      <point x="1513" y="0" type="line"/>
      <point x="1519" y="32" type="line"/>
      <point x="98" y="32" type="line"/>
      <point x="100" y="26" type="line"/>
      <point x="1677" y="972" type="line"/>
      <point x="1682" y="1000" type="line"/>
      <point x="270" y="1000" type="line"/>
      <point x="264" y="968" type="line"/>
      <point x="1619" y="968" type="line"/>
      <point x="1617" y="974" type="line"/>
      <point x="40" y="28" type="line"/>
    </contour>
  </outline>
</glyph>
<glyph name="cent" format="2">
  <advance width="1960"/>
  <unicode hex="00A2"/>
  <outline>
    <contour>
      <point x="874" y="-100" type="line"/>
      <point x="914" y="-100" type="line"/>
      <point x="957" y="150" type="line"/>
      <point x="1480" y="150" type="line" smooth="yes"/>
      <point x="1559.23" y="150"/>
      <point x="1655.42" y="232.767"/>
      <point x="1669" y="312" type="qcurve" smooth="yes"/>
      <point x="1692" y="440" type="line"/>
      <point x="1658" y="450" type="line"/>
      <point x="1635" y="318" type="line" smooth="yes"/>
      <point x="1622.93" y="250.841"/>
      <point x="1553.16" y="182"/>
      <point x="1486" y="182" type="qcurve" smooth="yes"/>
      <point x="963" y="182" type="line"/>
      <point x="1126" y="1118" type="line"/>
      <point x="1645" y="1118" type="line" smooth="yes"/>
      <point x="1712.16" y="1118"/>
      <point x="1758.07" y="1049.16"/>
      <point x="1746" y="982" type="qcurve" smooth="yes"/>
      <point x="1727" y="872" type="line"/>
      <point x="1765" y="880" type="line"/>
      <point x="1783" y="988" type="line" smooth="yes"/>
      <point x="1797.34" y="1067.23"/>
      <point x="1730.23" y="1150"/>
      <point x="1651" y="1150" type="qcurve" smooth="yes"/>
      <point x="1132" y="1150" type="line"/>
      <point x="1175" y="1400" type="line"/>
      <point x="1135" y="1400" type="line"/>
      <point x="1092" y="1150" type="line"/>
      <point x="540" y="1150" type="line" smooth="yes"/>
      <point x="460.767" y="1150"/>
      <point x="363.337" y="1067.23"/>
      <point x="349" y="988" type="qcurve" smooth="yes"/>
      <point x="231" y="312" type="line" smooth="yes"/>
      <point x="217.417" y="232.767"/>
      <point x="285.767" y="150"/>
      <point x="365" y="150" type="qcurve" smooth="yes"/>
      <point x="917" y="150" type="line"/>
    </contour>
    <contour>
      <point x="1086" y="1118" type="line"/>
      <point x="923" y="182" type="line"/>
      <point x="371" y="182" type="line" smooth="yes"/>
      <point x="303.841" y="182"/>
      <point x="256.926" y="250.841"/>
      <point x="269" y="318" type="qcurve" smooth="yes"/>
      <point x="384" y="982" type="line" smooth="yes"/>
      <point x="396.074" y="1049.16"/>
      <point x="466.841" y="1118"/>
      <point x="534" y="1118" type="qcurve" smooth="yes"/>
    </contour>
  </outline>
</glyph>
<glyph name="currency" format="2">
  <advance width="2455"/>
  <unicode hex="00A4"/>
  <outline>
    <contour>
      <point x="107" y="52" type="line"/>
      <point x="414" y="229" type="line"/>
      <point x="431.356" y="214.663"/>
      <point x="481.798" y="200"/>
      <point x="515" y="200" type="qcurve" smooth="yes"/>
      <point x="1774" y="200" type="line" smooth="yes"/>
      <point x="1806.45" y="200"/>
      <point x="1861.36" y="214.663"/>
      <point x="1884" y="229" type="qcurve"/>
      <point x="2129" y="52" type="line"/>
      <point x="2155" y="80" type="line"/>
      <point x="1914" y="254" type="line"/>
      <point x="1932.87" y="273.62"/>
      <point x="1956.96" y="328.043"/>
      <point x="1963" y="362" type="qcurve" smooth="yes"/>
      <point x="2081" y="1038" type="line" smooth="yes"/>
      <point x="2087.04" y="1071.96"/>
      <point x="2081.07" y="1126.38"/>
      <point x="2069" y="1146" type="qcurve"/>
      <point x="2371" y="1320" type="line"/>
      <point x="2355" y="1348" type="line"/>
      <point x="2048" y="1171" type="line"/>
      <point x="2030.64" y="1185.34"/>
      <point x="1981.2" y="1200"/>
      <point x="1948" y="1200" type="qcurve" smooth="yes"/>
      <point x="689" y="1200" type="line" smooth="yes"/>
      <point x="655.798" y="1200"/>
      <point x="600.883" y="1185.34"/>
      <point x="579" y="1171" type="qcurve"/>
      <point x="333" y="1348" type="line"/>
      <point x="307" y="1320" type="line"/>
      <point x="549" y="1146" type="line"/>
      <point x="530.135" y="1125.63"/>
      <point x="505.037" y="1071.96"/>
      <point x="499" y="1038" type="qcurve" smooth="yes"/>
      <point x="381" y="362" type="line" smooth="yes"/>
      <point x="374.963" y="328.043"/>
      <point x="381.681" y="273.62"/>
      <point x="393" y="254" type="qcurve"/>
      <point x="91" y="80" type="line"/>
    </contour>
    <contour>
      <point x="520" y="232" type="line" smooth="yes"/>
      <point x="452.841" y="232"/>
      <point x="405.926" y="301.595"/>
      <point x="418" y="368" type="qcurve" smooth="yes"/>
      <point x="534" y="1032" type="line" smooth="yes"/>
      <point x="545.319" y="1098.4"/>
      <point x="616.841" y="1168"/>
      <point x="684" y="1168" type="qcurve" smooth="yes"/>
      <point x="1943" y="1168" type="line" smooth="yes"/>
      <point x="2009.4" y="1168"/>
      <point x="2055.32" y="1098.4"/>
      <point x="2044" y="1032" type="qcurve" smooth="yes"/>
      <point x="1928" y="368" type="line" smooth="yes"/>
      <point x="1915.93" y="301.595"/>
      <point x="1845.4" y="232"/>
      <point x="1779" y="232" type="qcurve" smooth="yes"/>
    </contour>
  </outline>
</glyph>
<glyph name="brokenbar" format="2">
  <advance width="745"/>
  <unicode hex="00A6"/>
  <outline>
    <contour>
      <point x="499" y="1520" type="line"/>
      <point x="360" y="720" type="line"/>
      <point x="400" y="720" type="line"/>
      <point x="539" y="1520" type="line"/>
    </contour>
    <contour>
      <point x="290" y="320" type="line"/>
      <point x="150" y="-480" type="line"/>
      <point x="190" y="-480" type="line"/>
      <point x="330" y="320" type="line"/>
    </contour>
  </outline>
</glyph>
<glyph name="plusminus" format="2">
  <advance width="2020"/>
  <unicode hex="00B1"/>
  <outline>
    <contour>
      <point x="1802" y="726" type="line"/>
      <point x="1039" y="726" type="line"/>
      <point x="1116" y="1168" type="line"/>
      <point x="1076" y="1168" type="line"/>
      <point x="999" y="726" type="line"/>
      <point x="236" y="726" type="line"/>
      <point x="229" y="690" type="line"/>
      <point x="992" y="690" type="line"/>
      <point x="915" y="248" type="line"/>
      <point x="955" y="248" type="line"/>
      <point x="1032" y="690" type="line"/>
      <point x="1795" y="690" type="line"/>
    </contour>
    <contour>
      <point x="107" y="0" type="line"/>
      <point x="1673" y="0" type="line"/>
      <point x="1679" y="36" type="line"/>
      <point x="113" y="36" type="line"/>
    </contour>
  </outline>
</glyph>
<glyph name="periodcentered" format="2">
  <advance width="996"/>
  <unicode hex="00B7"/>
  <outline>
    <contour>
      <point x="298" y="589" type="line" smooth="yes"/>
      <point x="294.227" y="569.38"/>
      <point x="299.38" y="563"/>
      <point x="319" y="563" type="qcurve" smooth="yes"/>
      <point x="361" y="563" type="line" smooth="yes"/>
      <point x="380.5" y="563"/>
      <point x="388.25" y="569.5"/>
      <point x="392" y="589" type="qcurve"/>
      <point x="399" y="631" type="line" smooth="yes"/>
      <point x="402.773" y="650.62"/>
      <point x="397.62" y="657"/>
      <point x="378" y="657" type="qcurve" smooth="yes"/>
      <point x="336" y="657" type="line" smooth="yes"/>
      <point x="316.5" y="657"/>
      <point x="308.75" y="650.5"/>
      <point x="305" y="631" type="qcurve"/>
    </contour>
  </outline>
</glyph>
<glyph name="cedilla" format="2">
  <advance width="411"/>
  <unicode hex="00B8"/>
  <outline>
    <contour>
      <point x="4" y="-384" type="qcurve" smooth="yes"/>
      <point x="54.25" y="-384"/>
      <point x="136.719" y="-366.312"/>
      <point x="198.031" y="-330.688"/>
      <point x="236.625" y="-277"/>
      <point x="243" y="-241" type="qcurve" smooth="yes"/>
      <point x="249" y="-206.875"/>
      <point x="223.969" y="-155.844"/>
      <point x="168.281" y="-121.906"/>
      <point x="85.125" y="-105"/>
      <point x="33" y="-105" type="qcurve"/>
      <point x="113" y="0" type="line"/>
      <point x="78" y="0" type="line"/>
      <point x="-26" y="-139" type="line"/>
      <point x="-13.9264" y="-137.491"/>
      <point x="11.908" y="-135"/>
      <point x="27" y="-135" type="qcurve" smooth="yes"/>
      <point x="128.116" y="-135"/>
      <point x="217.564" y="-185.896"/>
      <point x="207" y="-244" type="qcurve" smooth="yes"/>
      <point x="196.436" y="-304.368"/>
      <point x="71.2146" y="-354"/>
      <point x="-5" y="-354" type="qcurve" smooth="yes"/>
      <point x="-51.0306" y="-354"/>
      <point x="-131.853" y="-335.583"/>
      <point x="-156" y="-322" type="qcurve"/>
      <point x="-175" y="-344" type="line"/>
      <point x="-141.043" y="-364.374"/>
      <point x="-54.8588" y="-384"/>
    </contour>
  </outline>
</glyph>
<glyph name="guillemotright" format="2">
  <advance width="946"/>
  <unicode hex="00BB"/>
  <outline>
    <contour>
      <point x="497" y="870" type="line"/>
      <point x="455" y="870" type="line"/>
      <point x="742" y="500" type="line"/>
      <point x="326" y="130" type="line"/>
      <point x="368" y="130" type="line"/>
      <point x="784" y="500" type="line"/>
    </contour>
    <contour>
      <point x="211" y="870" type="line"/>
      <point x="169" y="870" type="line"/>
      <point x="456" y="500" type="line"/>
      <point x="40" y="130" type="line"/>
      <point x="82" y="130" type="line"/>
      <point x="498" y="500" type="line"/>
    </contour>
  </outline>
</glyph>
<glyph name="onequarter" format="2">
  <advance width="2473"/>
  <unicode hex="00BC"/>
  <outline>
    <contour>
      <point x="422" y="614" type="line"/>
      <point x="456" y="614" type="line"/>
      <point x="594" y="1406" type="line"/>
      <point x="328" y="1366" type="line"/>
      <point x="323" y="1336" type="line"/>
      <point x="554" y="1370" type="line"/>
    </contour>
    <contour>
      <point x="1720" y="1400" type="line"/>
      <point x="76" y="0" type="line"/>
      <point x="119" y="0" type="line"/>
      <point x="1763" y="1400" type="line"/>
    </contour>
    <contour>
      <point x="898" y="212" type="line"/>
      <point x="1865" y="212" type="line"/>
      <point x="1828" y="0" type="line"/>
      <point x="1862" y="0" type="line"/>
      <point x="1899" y="212" type="line"/>
      <point x="2208" y="212" type="line"/>
      <point x="2213" y="242" type="line"/>
      <point x="1904" y="242" type="line"/>
      <point x="1996" y="766" type="line"/>
      <point x="1964" y="766" type="line"/>
      <point x="902" y="237" type="line"/>
    </contour>
    <contour>
      <point x="980" y="242" type="line"/>
      <point x="1956" y="729" type="line"/>
      <point x="1870" y="242" type="line"/>
    </contour>
  </outline>
  <guideline angle="90" color="0.4,0.4,0.4,1" name="halfwidth" x="1236.5" y="0"/>
</glyph>
<glyph name="Eacute" format="2">
  <advance width="2243"/>
  <unicode hex="00C9"/>
  <anchor x="1445" y="1550" name="top"/>
  <anchor x="1148" y="-150" name="bottom"/>
  <anchor x="2107" y="0" name="ogonek"/>
  <anchor x="1292" y="1485" name="topright"/>
  <outline>
    <contour>
      <point x="233" y="0" type="line"/>
      <point x="2121" y="0" type="line"/>
      <point x="2127" y="36" type="line"/>
      <point x="279" y="36" type="line"/>
      <point x="395" y="700" type="line"/>
      <point x="1573" y="700" type="line"/>
      <point x="1579" y="736" type="line"/>
      <point x="401" y="736" type="line"/>
      <point x="511" y="1364" type="line"/>
      <point x="2325" y="1364" type="line"/>
      <point x="2331" y="1400" type="line"/>
      <point x="477" y="1400" type="line"/>
    </contour>
    <contour>
      <point x="1248" y="1485" type="line"/>
      <point x="1313" y="1485" type="line"/>
      <point x="1838" y="1800" type="line"/>
      <point x="1761" y="1800" type="line"/>
    </contour>
  </outline>
</glyph>
<glyph name="Edieresis" format="2">
  <advance width="2243"/>
  <unicode hex="00CB"/>
  <anchor x="1489" y="1799" name="top"/>
  <anchor x="1148" y="-150" name="bottom"/>
  <anchor x="2107" y="0" name="ogonek"/>
  <outline>
    <contour>
      <point x="233" y="0" type="line"/>
      <point x="2121" y="0" type="line"/>
      <point x="2127" y="36" type="line"/>
      <point x="279" y="36" type="line"/>
      <point x="395" y="700" type="line"/>
      <point x="1573" y="700" type="line"/>
      <point x="1579" y="736" type="line"/>
      <point x="401" y="736" type="line"/>
      <point x="511" y="1364" type="line"/>
      <point x="2325" y="1364" type="line"/>
      <point x="2331" y="1400" type="line"/>
      <point x="477" y="1400" type="line"/>
    </contour>
    <contour>
      <point x="1232" y="1638" type="qcurve" smooth="yes"/>
      <point x="1257" y="1638" type="line" smooth="yes"/>
      <point x="1274.36" y="1638"/>
      <point x="1281.98" y="1644.64"/>
      <point x="1285" y="1662" type="qcurve" smooth="yes"/>
      <point x="1289" y="1687" type="line" smooth="yes"/>
      <point x="1292.02" y="1704.36"/>
      <point x="1287.36" y="1711"/>
      <point x="1270" y="1711" type="qcurve" smooth="yes"/>
      <point x="1245" y="1711" type="line" smooth="yes"/>
      <point x="1227.64" y="1711"/>
      <point x="1219.02" y="1704.36"/>
      <point x="1216" y="1687" type="qcurve" smooth="yes"/>
      <point x="1212" y="1662" type="line" smooth="yes"/>
      <point x="1208.98" y="1644.64"/>
      <point x="1214.64" y="1638"/>
    </contour>
    <contour>
      <point x="1665" y="1638" type="qcurve" smooth="yes"/>
      <point x="1690" y="1638" type="line" smooth="yes"/>
      <point x="1707.36" y="1638"/>
      <point x="1714.98" y="1644.64"/>
      <point x="1718" y="1662" type="qcurve" smooth="yes"/>
      <point x="1722" y="1687" type="line" smooth="yes"/>
      <point x="1725.02" y="1704.36"/>
      <point x="1720.36" y="1711"/>
      <point x="1703" y="1711" type="qcurve" smooth="yes"/>
      <point x="1678" y="1711" type="line" smooth="yes"/>
      <point x="1660.64" y="1711"/>
      <point x="1652.02" y="1704.36"/>
      <point x="1649" y="1687" type="qcurve" smooth="yes"/>
      <point x="1645" y="1662" type="line" smooth="yes"/>
      <point x="1641.98" y="1644.64"/>
      <point x="1647.64" y="1638"/>
    </contour>
  </outline>
</glyph>
<glyph name="Idieresis" format="2">
  <advance width="740"/>
  <unicode hex="00CF"/>
  <anchor x="565" y="1799" name="top"/>
  <anchor x="224" y="-150" name="bottom"/>
  <anchor x="270" y="0" name="ogonek"/>
  <outline>
    <contour>
      <point x="233" y="0" type="line"/>
      <point x="273" y="0" type="line"/>
      <point x="517" y="1400" type="line"/>
      <point x="477" y="1400" type="line"/>
    </contour>
    <contour>
      <point x="308" y="1638" type="qcurve" smooth="yes"/>
      <point x="333" y="1638" type="line" smooth="yes"/>
      <point x="350.356" y="1638"/>
      <point x="357.982" y="1644.64"/>
      <point x="361" y="1662" type="qcurve" smooth="yes"/>
      <point x="365" y="1687" type="line" smooth="yes"/>
      <point x="368.018" y="1704.36"/>
      <point x="363.356" y="1711"/>
      <point x="346" y="1711" type="qcurve" smooth="yes"/>
      <point x="321" y="1711" type="line" smooth="yes"/>
      <point x="303.644" y="1711"/>
      <point x="295.018" y="1704.36"/>
      <point x="292" y="1687" type="qcurve" smooth="yes"/>
      <point x="288" y="1662" type="line" smooth="yes"/>
      <point x="284.982" y="1644.64"/>
      <point x="290.644" y="1638"/>
    </contour>
    <contour>
      <point x="741" y="1638" type="qcurve" smooth="yes"/>
      <point x="766" y="1638" type="line" smooth="yes"/>
      <point x="783.356" y="1638"/>
      <point x="790.982" y="1644.64"/>
      <point x="794" y="1662" type="qcurve" smooth="yes"/>
      <point x="798" y="1687" type="line" smooth="yes"/>
      <point x="801.018" y="1704.36"/>
      <point x="796.356" y="1711"/>
      <point x="779" y="1711" type="qcurve" smooth="yes"/>
      <point x="754" y="1711" type="line" smooth="yes"/>
      <point x="736.644" y="1711"/>
      <point x="728.018" y="1704.36"/>
      <point x="725" y="1687" type="qcurve" smooth="yes"/>
      <point x="721" y="1662" type="line" smooth="yes"/>
      <point x="717.982" y="1644.64"/>
      <point x="723.644" y="1638"/>
    </contour>
  </outline>
</glyph>
<glyph name="Ntilde" format="2">
  <advance width="2862"/>
  <unicode hex="00D1"/>
  <anchor x="1643" y="1894" name="top"/>
  <anchor x="1285" y="-150" name="bottom"/>
  <outline>
    <contour>
      <point x="233" y="0" type="line"/>
      <point x="269" y="0" type="line"/>
      <point x="505" y="1353" type="line"/>
      <point x="2357" y="0" type="line"/>
      <point x="2395" y="0" type="line"/>
      <point x="2639" y="1400" type="line"/>
      <point x="2603" y="1400" type="line"/>
      <point x="2367" y="46" type="line"/>
      <point x="513" y="1400" type="line"/>
      <point x="477" y="1400" type="line"/>
    </contour>
    <contour>
      <point x="1140" y="1560" type="qcurve"/>
      <point x="1174" y="1553" type="line"/>
      <point x="1232.1" y="1666.19"/>
      <point x="1351.07" y="1759"/>
      <point x="1422" y="1759" type="qcurve" smooth="yes"/>
      <point x="1483.88" y="1759"/>
      <point x="1560.91" y="1694.62"/>
      <point x="1630.84" y="1617.38"/>
      <point x="1713.5" y="1553"/>
      <point x="1781" y="1553" type="qcurve" smooth="yes"/>
      <point x="1815.12" y="1553"/>
      <point x="1886.91" y="1571.84"/>
      <point x="1959.84" y="1623.41"/>
      <point x="2032.75" y="1714.62"/>
      <point x="2068" y="1787" type="qcurve"/>
      <point x="2034" y="1794" type="line"/>
      <point x="1975.9" y="1680.81"/>
      <point x="1857.93" y="1588"/>
      <point x="1787" y="1588" type="qcurve" smooth="yes"/>
      <point x="1725.12" y="1588"/>
      <point x="1647.47" y="1652.38"/>
      <point x="1576.78" y="1729.62"/>
      <point x="1493.5" y="1794"/>
      <point x="1426" y="1794" type="qcurve" smooth="yes"/>
      <point x="1391.88" y="1794"/>
      <point x="1320.41" y="1775.16"/>
      <point x="1247.84" y="1723.59"/>
      <point x="1175.25" y="1632.38"/>
    </contour>
  </outline>
</glyph>
<glyph name="igrave" format="2">
  <advance width="690"/>
  <unicode hex="00EC"/>
  <anchor x="200" y="-150" name="bottom"/>
  <anchor x="427" y="1150" name="top"/>
  <anchor x="244" y="0" name="ogonek"/>
  <outline>
    <contour>
      <point x="208" y="0" type="line"/>
      <point x="244" y="0" type="line"/>
      <point x="419" y="1000" type="line"/>
      <point x="383" y="1000" type="line"/>
    </contour>
    <contour>
      <point x="544" y="1085" type="line"/>
      <point x="592" y="1085" type="line"/>
      <point x="194" y="1448" type="line"/>
      <point x="134" y="1448" type="line"/>
    </contour>
  </outline>
</glyph>
<glyph name="eth" format="2">
  <advance width="2263"/>
  <unicode hex="00F0"/>
  <outline>
    <contour>
      <point x="338" y="0" type="qcurve" smooth="yes"/>
      <point x="1497" y="0" type="line" smooth="yes"/>
      <point x="1580.01" y="0"/>
      <point x="1670.91" y="79.7486"/>
      <point x="1686" y="162" type="qcurve" smooth="yes"/>
      <point x="1776" y="668" type="line" smooth="yes"/>
      <point x="1806.18" y="839.294"/>
      <point x="1671.41" y="1163.3"/>
      <point x="1522" y="1278" type="qcurve"/>
      <point x="2091" y="1377" type="line"/>
      <point x="2092" y="1407" type="line"/>
      <point x="1489" y="1302" type="line"/>
      <point x="1400.71" y="1361.61"/>
      <point x="1173.86" y="1442.91"/>
      <point x="1032" y="1458" type="qcurve"/>
      <point x="954" y="1431" type="line"/>
      <point x="1101.9" y="1421.19"/>
      <point x="1339.18" y="1348.6"/>
      <point x="1432" y="1292" type="qcurve"/>
      <point x="889" y="1197" type="line"/>
      <point x="889" y="1167" type="line"/>
      <point x="1468" y="1268" type="line"/>
      <point x="1548.74" y="1212.16"/>
      <point x="1661.29" y="1076.21"/>
      <point x="1696" y="1000" type="qcurve"/>
      <point x="513" y="1000" type="line" smooth="yes"/>
      <point x="433.767" y="1000"/>
      <point x="335.583" y="917.233"/>
      <point x="322" y="838" type="qcurve" smooth="yes"/>
      <point x="204" y="162" type="line" smooth="yes"/>
      <point x="190.417" y="82.767"/>
      <point x="258.767" y="0"/>
    </contour>
    <contour>
      <point x="1709" y="968" type="line"/>
      <point x="1735.41" y="897.822"/>
      <point x="1753.83" y="753.687"/>
      <point x="1741" y="682" type="qcurve" smooth="yes"/>
      <point x="1651" y="168" type="line" smooth="yes"/>
      <point x="1638.93" y="100.841"/>
      <point x="1569.4" y="32"/>
      <point x="1503" y="32" type="qcurve" smooth="yes"/>
      <point x="344" y="32" type="line" smooth="yes"/>
      <point x="276.841" y="32"/>
      <point x="228.926" y="100.841"/>
      <point x="241" y="168" type="qcurve" smooth="yes"/>
      <point x="357" y="832" type="line" smooth="yes"/>
      <point x="369.074" y="899.159"/>
      <point x="439.841" y="968"/>
      <point x="507" y="968" type="qcurve" smooth="yes"/>
    </contour>
  </outline>
</glyph>
<glyph name="ugrave" format="2">
  <advance width="2022"/>
  <unicode hex="00F9"/>
  <anchor x="1093" y="1150" name="top"/>
  <anchor x="866" y="-150" name="bottom"/>
  <anchor x="910" y="0" name="ogonek"/>
  <anchor x="1768" y="1000" name="horn"/>
  <outline>
    <contour>
      <point x="218" y="162" type="line" smooth="yes"/>
      <point x="204.417" y="82.767"/>
      <point x="272.767" y="0"/>
      <point x="352" y="0" type="qcurve" smooth="yes"/>
      <point x="1431" y="0" type="line" smooth="yes"/>
      <point x="1510.23" y="0"/>
      <point x="1607.42" y="82.767"/>
      <point x="1621" y="162" type="qcurve" smooth="yes"/>
      <point x="1768" y="1000" type="line"/>
      <point x="1732" y="1000" type="line"/>
      <point x="1586" y="168" type="line" smooth="yes"/>
      <point x="1574.68" y="101.595"/>
      <point x="1503.4" y="32"/>
      <point x="1437" y="32" type="qcurve" smooth="yes"/>
      <point x="358" y="32" type="line" smooth="yes"/>
      <point x="291.595" y="32"/>
      <point x="243.681" y="101.595"/>
      <point x="255" y="168" type="qcurve" smooth="yes"/>
      <point x="401" y="1000" type="line"/>
      <point x="365" y="1000" type="line"/>
    </contour>
    <contour>
      <point x="1210" y="1085" type="line"/>
      <point x="1258" y="1085" type="line"/>
      <point x="860" y="1448" type="line"/>
      <point x="800" y="1448" type="line"/>
    </contour>
  </outline>
</glyph>
<glyph name="udieresis" format="2">
  <advance width="2022"/>
  <unicode hex="00FC"/>
  <anchor x="1137" y="1399" name="top"/>
  <anchor x="866" y="-150" name="bottom"/>
  <anchor x="910" y="0" name="ogonek"/>
  <anchor x="1768" y="1000" name="horn"/>
  <outline>
    <contour>
      <point x="218" y="162" type="line" smooth="yes"/>
      <point x="204.417" y="82.767"/>
      <point x="272.767" y="0"/>
      <point x="352" y="0" type="qcurve" smooth="yes"/>
      <point x="1431" y="0" type="line" smooth="yes"/>
      <point x="1510.23" y="0"/>
      <point x="1607.42" y="82.767"/>
      <point x="1621" y="162" type="qcurve" smooth="yes"/>
      <point x="1768" y="1000" type="line"/>
      <point x="1732" y="1000" type="line"/>
      <point x="1586" y="168" type="line" smooth="yes"/>
      <point x="1574.68" y="101.595"/>
      <point x="1503.4" y="32"/>
      <point x="1437" y="32" type="qcurve" smooth="yes"/>
      <point x="358" y="32" type="line" smooth="yes"/>
      <point x="291.595" y="32"/>
      <point x="243.681" y="101.595"/>
      <point x="255" y="168" type="qcurve" smooth="yes"/>
      <point x="401" y="1000" type="line"/>
      <point x="365" y="1000" type="line"/>
    </contour>
    <contour>
      <point x="874" y="1239" type="qcurve" smooth="yes"/>
      <point x="892" y="1239" type="line" smooth="yes"/>
      <point x="910.865" y="1239"/>
      <point x="919.227" y="1246.13"/>
      <point x="923" y="1265" type="qcurve"/>
      <point x="926" y="1283" type="line" smooth="yes"/>
      <point x="929.018" y="1301.87"/>
      <point x="923.11" y="1309"/>
      <point x="905" y="1309" type="qcurve" smooth="yes"/>
      <point x="886" y="1309" type="line" smooth="yes"/>
      <point x="867.135" y="1309"/>
      <point x="859.018" y="1301.87"/>
      <point x="856" y="1283" type="qcurve" smooth="yes"/>
      <point x="853" y="1265" type="line"/>
      <point x="849.227" y="1246.13"/>
      <point x="855.135" y="1239"/>
    </contour>
    <contour>
      <point x="1326" y="1239" type="qcurve" smooth="yes"/>
      <point x="1344" y="1239" type="line" smooth="yes"/>
      <point x="1362.87" y="1239"/>
      <point x="1371.23" y="1246.13"/>
      <point x="1375" y="1265" type="qcurve"/>
      <point x="1378" y="1283" type="line" smooth="yes"/>
      <point x="1381.02" y="1301.87"/>
      <point x="1375.11" y="1309"/>
      <point x="1357" y="1309" type="qcurve" smooth="yes"/>
      <point x="1338" y="1309" type="line" smooth="yes"/>
      <point x="1319.13" y="1309"/>
      <point x="1311.02" y="1301.87"/>
      <point x="1308" y="1283" type="qcurve" smooth="yes"/>
      <point x="1305" y="1265" type="line"/>
      <point x="1301.23" y="1246.13"/>
      <point x="1307.13" y="1239"/>
    </contour>
  </outline>
</glyph>
<glyph name="Amacron" format="2">
  <advance width="2470"/>
  <unicode hex="0100"/>
  <anchor x="1424" y="1783" name="top"/>
  <anchor x="1090" y="-150" name="bottom"/>
  <anchor x="2294" y="0" name="ogonek_in"/>
  <outline>
    <contour>
      <point x="-120" y="0" type="line"/>
      <point x="-70" y="0" type="line"/>
      <point x="337" y="388" type="line"/>
      <point x="2025" y="388" type="line"/>
      <point x="2296" y="0" type="line"/>
      <point x="2350" y="0" type="line"/>
      <point x="1365" y="1400" type="line"/>
      <point x="1347" y="1400" type="line"/>
    </contour>
    <contour>
      <point x="374" y="424" type="line"/>
      <point x="1349" y="1354" type="line"/>
      <point x="2000" y="424" type="line"/>
    </contour>
    <contour>
      <point x="918" y="1647" type="line"/>
      <point x="1883" y="1647" type="line"/>
      <point x="1889" y="1683" type="line"/>
      <point x="924" y="1683" type="line"/>
    </contour>
  </outline>
</glyph>
<glyph name="aogonek" format="2">
  <advance width="1982"/>
  <unicode hex="0105"/>
  <anchor x="1058" y="1150" name="top"/>
  <anchor x="894" y="-150" name="bottom"/>
  <anchor x="1553" y="0" name="ogonek"/>
  <outline>
    <contour>
      <point x="327" y="0" type="qcurve" smooth="yes"/>
      <point x="1473" y="0" type="line" smooth="yes"/>
      <point x="1489.6" y="0"/>
      <point x="1514.19" y="12.4172"/>
      <point x="1524" y="26" type="qcurve"/>
      <point x="1519" y="0" type="line"/>
      <point x="1555" y="0" type="line"/>
      <point x="1702" y="838" type="line" smooth="yes"/>
      <point x="1715.58" y="917.233"/>
      <point x="1648.23" y="1000"/>
      <point x="1569" y="1000" type="qcurve" smooth="yes"/>
      <point x="514" y="1000" type="line" smooth="yes"/>
      <point x="434.767" y="1000"/>
      <point x="337.583" y="917.233"/>
      <point x="324" y="838" type="qcurve" smooth="yes"/>
      <point x="308" y="750" type="line"/>
      <point x="343" y="742" type="line"/>
      <point x="359" y="832" type="line" smooth="yes"/>
      <point x="370.319" y="898.405"/>
      <point x="440.841" y="968"/>
      <point x="508" y="968" type="qcurve" smooth="yes"/>
      <point x="1563" y="968" type="line" smooth="yes"/>
      <point x="1629.4" y="968"/>
      <point x="1676.32" y="898.405"/>
      <point x="1665" y="832" type="qcurve" smooth="yes"/>
      <point x="1623" y="592" type="line"/>
      <point x="431" y="592" type="line" smooth="yes"/>
      <point x="352.25" y="592"/>
      <point x="254.25" y="508.75"/>
      <point x="240" y="430" type="qcurve" smooth="yes"/>
      <point x="194" y="162" type="line" smooth="yes"/>
      <point x="179.663" y="82.767"/>
      <point x="247.767" y="0"/>
    </contour>
    <contour>
      <point x="231" y="168" type="qcurve" smooth="yes"/>
      <point x="275" y="424" type="line" smooth="yes"/>
      <point x="287.074" y="490.405"/>
      <point x="357.841" y="560"/>
      <point x="425" y="560" type="qcurve" smooth="yes"/>
      <point x="1617" y="560" type="line"/>
      <point x="1525" y="32" type="line"/>
      <point x="333" y="32" type="line" smooth="yes"/>
      <point x="265.841" y="32"/>
      <point x="218.926" y="101.595"/>
    </contour>
    <contour>
      <point x="1383.8" y="-359" type="qcurve" smooth="yes"/>
      <point x="1413.6" y="-359"/>
      <point x="1470.1" y="-342.847"/>
      <point x="1495" y="-327" type="qcurve"/>
      <point x="1501" y="-297" type="line"/>
      <point x="1467.04" y="-315.11"/>
      <point x="1417.46" y="-329"/>
      <point x="1394.27" y="-329" type="qcurve" smooth="yes"/>
      <point x="1345.77" y="-329"/>
      <point x="1300.53" y="-279.469"/>
      <point x="1308.3" y="-234.788" type="qcurve" smooth="yes"/>
      <point x="1318.64" y="-175.335"/>
      <point x="1439.81" y="-58.8588"/>
      <point x="1553" y="0" type="qcurve"/>
      <point x="1517" y="0" type="line"/>
      <point x="1416.64" y="-51.3128"/>
      <point x="1286.17" y="-172.625"/>
      <point x="1274.38" y="-239.121" type="qcurve" smooth="yes"/>
      <point x="1265.04" y="-291.852"/>
      <point x="1323.05" y="-359"/>
    </contour>
  </outline>
  <guideline angle="260.1" color="1,0,0,1" x="1520" y="-0"/>
</glyph>
<glyph name="cacute" format="2">
  <advance width="1955"/>
  <unicode hex="0107"/>
  <anchor x="1091" y="1150" name="top"/>
  <anchor x="864" y="-150" name="bottom"/>
  <outline>
    <contour>
      <point x="204" y="162" type="line" smooth="yes"/>
      <point x="189.663" y="82.767"/>
      <point x="257.767" y="0"/>
      <point x="337" y="0" type="qcurve" smooth="yes"/>
      <point x="1452" y="0" type="line" smooth="yes"/>
      <point x="1531.23" y="0"/>
      <point x="1627.66" y="82.767"/>
      <point x="1642" y="162" type="qcurve" smooth="yes"/>
      <point x="1664" y="290" type="line"/>
      <point x="1630" y="300" type="line"/>
      <point x="1607" y="168" type="line" smooth="yes"/>
      <point x="1594.93" y="101.595"/>
      <point x="1524.4" y="32"/>
      <point x="1458" y="32" type="qcurve" smooth="yes"/>
      <point x="343" y="32" type="line" smooth="yes"/>
      <point x="275.841" y="32"/>
      <point x="228.926" y="101.595"/>
      <point x="241" y="168" type="qcurve" smooth="yes"/>
      <point x="357" y="832" type="line" smooth="yes"/>
      <point x="368.319" y="898.405"/>
      <point x="438.841" y="968"/>
      <point x="506" y="968" type="qcurve" smooth="yes"/>
      <point x="1617" y="968" type="line" smooth="yes"/>
      <point x="1683.4" y="968"/>
      <point x="1730.32" y="898.405"/>
      <point x="1719" y="832" type="qcurve" smooth="yes"/>
      <point x="1699" y="722" type="line"/>
      <point x="1737" y="730" type="line"/>
      <point x="1756" y="838" type="line" smooth="yes"/>
      <point x="1769.58" y="917.233"/>
      <point x="1702.23" y="1000"/>
      <point x="1623" y="1000" type="qcurve" smooth="yes"/>
      <point x="512" y="1000" type="line" smooth="yes"/>
      <point x="432.767" y="1000"/>
      <point x="335.583" y="917.233"/>
      <point x="322" y="838" type="qcurve" smooth="yes"/>
    </contour>
    <contour>
      <point x="896" y="1085" type="line"/>
      <point x="951" y="1085" type="line"/>
      <point x="1489" y="1448" type="line"/>
      <point x="1424" y="1448" type="line"/>
    </contour>
  </outline>
</glyph>
<glyph name="Cdotaccent" format="2">
  <advance width="2758"/>
  <unicode hex="010A"/>
  <anchor x="1558" y="1799" name="top"/>
  <anchor x="1270" y="-150" name="bottom"/>
  <outline>
    <contour>
      <point x="408" y="1100" type="qcurve" smooth="yes"/>
      <point x="268" y="300" type="line" smooth="yes"/>
      <point x="242.344" y="154.362"/>
      <point x="370.362" y="0"/>
      <point x="516" y="0" type="qcurve" smooth="yes"/>
      <point x="2024" y="0" type="line" smooth="yes"/>
      <point x="2169.64" y="0"/>
      <point x="2350.34" y="154.362"/>
      <point x="2376" y="300" type="qcurve" smooth="yes"/>
      <point x="2413" y="512" type="line"/>
      <point x="2375" y="520" type="line"/>
      <point x="2336" y="298" type="line" smooth="yes"/>
      <point x="2313.36" y="169.718"/>
      <point x="2156.28" y="36"/>
      <point x="2028" y="36" type="qcurve" smooth="yes"/>
      <point x="524" y="36" type="line" smooth="yes"/>
      <point x="395.718" y="36"/>
      <point x="285.362" y="169.718"/>
      <point x="308" y="298" type="qcurve" smooth="yes"/>
      <point x="448" y="1102" type="line" smooth="yes"/>
      <point x="470.638" y="1230.28"/>
      <point x="627.718" y="1364"/>
      <point x="756" y="1364" type="qcurve" smooth="yes"/>
      <point x="2260" y="1364" type="line" smooth="yes"/>
      <point x="2388.28" y="1364"/>
      <point x="2498.64" y="1230.28"/>
      <point x="2476" y="1102" type="qcurve" smooth="yes"/>
      <point x="2442" y="906" type="line"/>
      <point x="2483" y="914" type="line"/>
      <point x="2516" y="1100" type="line" smooth="yes"/>
      <point x="2541.5" y="1244.75"/>
      <point x="2412.75" y="1400"/>
      <point x="2268" y="1400" type="qcurve" smooth="yes"/>
      <point x="760" y="1400" type="line" smooth="yes"/>
      <point x="615.25" y="1400"/>
      <point x="433.5" y="1244.75"/>
    </contour>
    <contour>
      <point x="1517" y="1639" type="qcurve" smooth="yes"/>
      <point x="1549" y="1639" type="line" smooth="yes"/>
      <point x="1567.11" y="1639"/>
      <point x="1573.98" y="1644.89"/>
      <point x="1577" y="1663" type="qcurve"/>
      <point x="1583" y="1695" type="line" smooth="yes"/>
      <point x="1586.02" y="1713.11"/>
      <point x="1581.11" y="1719"/>
      <point x="1563" y="1719" type="qcurve" smooth="yes"/>
      <point x="1531" y="1719" type="line" smooth="yes"/>
      <point x="1512.89" y="1719"/>
      <point x="1506.02" y="1713.11"/>
      <point x="1503" y="1695" type="qcurve"/>
      <point x="1497" y="1663" type="line" smooth="yes"/>
      <point x="1493.98" y="1644.89"/>
      <point x="1498.89" y="1639"/>
    </contour>
  </outline>
</glyph>
<glyph name="Ebreve" format="2">
  <advance width="2243"/>
  <unicode hex="0114"/>
  <anchor x="1507" y="1900" name="top"/>
  <anchor x="1148" y="-150" name="bottom"/>
  <anchor x="2107" y="0" name="ogonek"/>
  <outline>
    <contour>
      <point x="233" y="0" type="line"/>
      <point x="2121" y="0" type="line"/>
      <point x="2127" y="36" type="line"/>
      <point x="279" y="36" type="line"/>
      <point x="395" y="700" type="line"/>
      <point x="1573" y="700" type="line"/>
      <point x="1579" y="736" type="line"/>
      <point x="401" y="736" type="line"/>
      <point x="511" y="1364" type="line"/>
      <point x="2325" y="1364" type="line"/>
      <point x="2331" y="1400" type="line"/>
      <point x="477" y="1400" type="line"/>
    </contour>
    <contour>
      <point x="1451" y="1544" type="qcurve" smooth="yes"/>
      <point x="1540.25" y="1544"/>
      <point x="1656.84" y="1563.53"/>
      <point x="1730.91" y="1619.22"/>
      <point x="1772.12" y="1719.38"/>
      <point x="1786" y="1800" type="qcurve"/>
      <point x="1754" y="1800" type="line"/>
      <point x="1740.88" y="1724.25"/>
      <point x="1702.81" y="1636.56"/>
      <point x="1635.69" y="1591.94"/>
      <point x="1530.88" y="1580"/>
      <point x="1451" y="1580" type="qcurve" smooth="yes"/>
      <point x="1371.12" y="1580"/>
      <point x="1270.38" y="1591.94"/>
      <point x="1218.62" y="1636.56"/>
      <point x="1210.88" y="1724.25"/>
      <point x="1224" y="1800" type="qcurve"/>
      <point x="1192" y="1800" type="line"/>
      <point x="1178.12" y="1719.38"/>
      <point x="1188.66" y="1619.22"/>
      <point x="1248.09" y="1563.53"/>
      <point x="1361.75" y="1544"/>
    </contour>
  </outline>
</glyph>
<glyph name="ebreve" format="2">
  <advance width="2023"/>
  <unicode hex="0115"/>
  <anchor x="1158" y="1518" name="top"/>
  <anchor x="866" y="-150" name="bottom"/>
  <anchor x="1447" y="0" name="ogonek"/>
  <outline>
    <contour>
      <point x="204" y="162" type="line" smooth="yes"/>
      <point x="189.663" y="82.767"/>
      <point x="257.767" y="0"/>
      <point x="337" y="0" type="qcurve" smooth="yes"/>
      <point x="1450" y="0" type="line" smooth="yes"/>
      <point x="1529.23" y="0"/>
      <point x="1625.66" y="82.767"/>
      <point x="1640" y="162" type="qcurve" smooth="yes"/>
      <point x="1655" y="250" type="line"/>
      <point x="1620" y="258" type="line"/>
      <point x="1605" y="168" type="line" smooth="yes"/>
      <point x="1592.93" y="101.595"/>
      <point x="1522.4" y="32"/>
      <point x="1456" y="32" type="qcurve" smooth="yes"/>
      <point x="343" y="32" type="line" smooth="yes"/>
      <point x="275.841" y="32"/>
      <point x="228.926" y="101.595"/>
      <point x="241" y="168" type="qcurve" smooth="yes"/>
      <point x="297" y="488" type="line"/>
      <point x="1697" y="488" type="line"/>
      <point x="1758" y="838" type="line" smooth="yes"/>
      <point x="1771.58" y="917.233"/>
      <point x="1704.23" y="1000"/>
      <point x="1625" y="1000" type="qcurve" smooth="yes"/>
      <point x="512" y="1000" type="line" smooth="yes"/>
      <point x="432.767" y="1000"/>
      <point x="335.583" y="917.233"/>
      <point x="322" y="838" type="qcurve" smooth="yes"/>
    </contour>
    <contour>
      <point x="302" y="520" type="line"/>
      <point x="357" y="832" type="line" smooth="yes"/>
      <point x="368.319" y="898.405"/>
      <point x="438.841" y="968"/>
      <point x="506" y="968" type="qcurve" smooth="yes"/>
      <point x="1619" y="968" type="line" smooth="yes"/>
      <point x="1685.4" y="968"/>
      <point x="1732.32" y="898.405"/>
      <point x="1721" y="832" type="qcurve" smooth="yes"/>
      <point x="1666" y="520" type="line"/>
    </contour>
    <contour>
      <point x="1099" y="1144" type="qcurve" smooth="yes"/>
      <point x="1188.25" y="1144"/>
      <point x="1297.78" y="1163.53"/>
      <point x="1363.97" y="1222.22"/>
      <point x="1399.62" y="1329.88"/>
      <point x="1415" y="1418" type="qcurve"/>
      <point x="1385" y="1418" type="line"/>
      <point x="1370.38" y="1334.75"/>
      <point x="1336.62" y="1238.31"/>
      <point x="1275.88" y="1189.19"/>
      <point x="1176.88" y="1176"/>
      <point x="1097" y="1176" type="qcurve" smooth="yes"/>
      <point x="1017.12" y="1176"/>
      <point x="923.062" y="1189.19"/>
      <point x="879.938" y="1238.31"/>
      <point x="880.375" y="1334.75"/>
      <point x="895" y="1418" type="qcurve"/>
      <point x="865" y="1418" type="line"/>
      <point x="849.625" y="1329.88"/>
      <point x="851.969" y="1222.22"/>
      <point x="902.781" y="1163.53"/>
      <point x="1009.75" y="1144"/>
    </contour>
  </outline>
  <guideline angle="0" color="1,0,0,1" x="0" y="-1000"/>
</glyph>
<glyph name="Hcircumflex" format="2">
  <advance width="2792"/>
  <unicode hex="0124"/>
  <anchor x="1606" y="1880" name="top"/>
  <anchor x="1250" y="-150" name="bottom"/>
  <anchor x="2050" y="1585" name="topright"/>
  <outline>
    <contour>
      <point x="230" y="0" type="line"/>
      <point x="270" y="0" type="line"/>
      <point x="394" y="712" type="line"/>
      <point x="2406" y="712" type="line"/>
      <point x="2282" y="0" type="line"/>
      <point x="2322" y="0" type="line"/>
      <point x="2566" y="1400" type="line"/>
      <point x="2526" y="1400" type="line"/>
      <point x="2413" y="748" type="line"/>
      <point x="401" y="748" type="line"/>
      <point x="514" y="1400" type="line"/>
      <point x="474" y="1400" type="line"/>
    </contour>
    <contour>
      <point x="1040" y="1485" type="line"/>
      <point x="1105" y="1485" type="line"/>
      <point x="1591" y="1776" type="line"/>
      <point x="1975" y="1485" type="line"/>
      <point x="2032" y="1485" type="line"/>
      <point x="1611" y="1800" type="line"/>
      <point x="1571" y="1800" type="line"/>
    </contour>
  </outline>
  <guideline angle="260.1" color="1,0,0,1" x="1446" y="-0"/>
</glyph>
<glyph name="Itilde" format="2">
  <advance width="740"/>
  <unicode hex="0128"/>
  <anchor x="582" y="1894" name="top"/>
  <anchor x="224" y="-150" name="bottom"/>
  <anchor x="270" y="0" name="ogonek"/>
  <outline>
    <contour>
      <point x="233" y="0" type="line"/>
      <point x="273" y="0" type="line"/>
      <point x="517" y="1400" type="line"/>
      <point x="477" y="1400" type="line"/>
    </contour>
    <contour>
      <point x="79" y="1560" type="qcurve"/>
      <point x="113" y="1553" type="line"/>
      <point x="171.104" y="1666.19"/>
      <point x="290.068" y="1759"/>
      <point x="361" y="1759" type="qcurve" smooth="yes"/>
      <point x="422.875" y="1759"/>
      <point x="499.906" y="1694.62"/>
      <point x="569.844" y="1617.38"/>
      <point x="652.5" y="1553"/>
      <point x="720" y="1553" type="qcurve" smooth="yes"/>
      <point x="754.125" y="1553"/>
      <point x="825.906" y="1571.84"/>
      <point x="898.844" y="1623.41"/>
      <point x="971.75" y="1714.62"/>
      <point x="1007" y="1787" type="qcurve"/>
      <point x="973" y="1794" type="line"/>
      <point x="914.896" y="1680.81"/>
      <point x="796.932" y="1588"/>
      <point x="726" y="1588" type="qcurve" smooth="yes"/>
      <point x="664.125" y="1588"/>
      <point x="586.469" y="1652.38"/>
      <point x="515.781" y="1729.62"/>
      <point x="432.5" y="1794"/>
      <point x="365" y="1794" type="qcurve" smooth="yes"/>
      <point x="330.875" y="1794"/>
      <point x="259.406" y="1775.16"/>
      <point x="186.844" y="1723.59"/>
      <point x="114.25" y="1632.38"/>
    </contour>
  </outline>
</glyph>
<glyph name="imacron" format="2">
  <advance width="690"/>
  <unicode hex="012B"/>
  <anchor x="200" y="-150" name="bottom"/>
  <anchor x="471" y="1386" name="top"/>
  <anchor x="244" y="0" name="ogonek"/>
  <outline>
    <contour>
      <point x="208" y="0" type="line"/>
      <point x="244" y="0" type="line"/>
      <point x="419" y="1000" type="line"/>
      <point x="383" y="1000" type="line"/>
    </contour>
    <contour>
      <point x="-34" y="1254" type="line"/>
      <point x="931" y="1254" type="line"/>
      <point x="936" y="1286" type="line"/>
      <point x="-29" y="1286" type="line"/>
    </contour>
  </outline>
</glyph>
<glyph name="kgreenlandic" format="2">
  <advance width="1797"/>
  <unicode hex="0138"/>
  <anchor x="1134" y="1150" name="top"/>
  <outline>
    <contour>
      <point x="208" y="0" type="line"/>
      <point x="244" y="0" type="line"/>
      <point x="331" y="501" type="line"/>
      <point x="1572" y="0" type="line"/>
      <point x="1664" y="0" type="line"/>
      <point x="385" y="516" type="line"/>
      <point x="1687" y="1000" type="line"/>
      <point x="1607" y="1000" type="line"/>
      <point x="336" y="527" type="line"/>
      <point x="419" y="1000" type="line"/>
      <point x="383" y="1000" type="line"/>
    </contour>
  </outline>
</glyph>
<glyph name="Lacute" format="2">
  <advance width="2067"/>
  <unicode hex="0139"/>
  <anchor x="521" y="1550" name="top"/>
  <anchor x="1060" y="-150" name="bottom"/>
  <anchor x="252" y="700" name="left"/>
  <anchor x="1514" y="1400" name="right"/>
  <anchor x="1406" y="700" name="eldot"/>
  <anchor x="368" y="1485" name="topright"/>
  <outline>
    <contour>
      <point x="233" y="0" type="line"/>
      <point x="1945" y="0" type="line"/>
      <point x="1951" y="36" type="line"/>
      <point x="279" y="36" type="line"/>
      <point x="517" y="1400" type="line"/>
      <point x="477" y="1400" type="line"/>
    </contour>
    <contour>
      <point x="324" y="1485" type="line"/>
      <point x="389" y="1485" type="line"/>
      <point x="914" y="1800" type="line"/>
      <point x="837" y="1800" type="line"/>
    </contour>
  </outline>
</glyph>
<glyph name="uni013C" format="2">
  <advance width="688"/>
  <unicode hex="013C"/>
  <anchor x="503" y="1598" name="top"/>
  <anchor x="198" y="-150" name="bottom"/>
  <anchor x="495" y="1448" name="right"/>
  <anchor x="690" y="700" name="eldot"/>
  <outline>
    <contour>
      <point x="207" y="0" type="line"/>
      <point x="243" y="0" type="line"/>
      <point x="496" y="1448" type="line"/>
      <point x="460" y="1448" type="line"/>
    </contour>
    <contour>
      <point x="175" y="-249" type="line"/>
      <point x="223" y="-185" type="line" smooth="yes"/>
      <point x="225.264" y="-181.982"/>
      <point x="228.491" y="-174.546"/>
      <point x="230" y="-167" type="qcurve"/>
      <point x="235" y="-138" type="line" smooth="yes"/>
      <point x="237.264" y="-123.663"/>
      <point x="233.337" y="-118"/>
      <point x="219" y="-118" type="qcurve" smooth="yes"/>
      <point x="190" y="-118" type="line" smooth="yes"/>
      <point x="174.908" y="-118"/>
      <point x="167.264" y="-123.663"/>
      <point x="165" y="-138" type="qcurve" smooth="yes"/>
      <point x="160" y="-167" type="line" smooth="yes"/>
      <point x="157.736" y="-181.337"/>
      <point x="161.908" y="-187"/>
      <point x="177" y="-187" type="qcurve" smooth="yes"/>
      <point x="186" y="-187" type="line"/>
      <point x="162" y="-244" type="line"/>
    </contour>
  </outline>
</glyph>
<glyph name="uni0145" format="2">
  <advance width="2862"/>
  <unicode hex="0145"/>
  <anchor x="1582" y="1550" name="top"/>
  <anchor x="1285" y="-150" name="bottom"/>
  <outline>
    <contour>
      <point x="233" y="0" type="line"/>
      <point x="269" y="0" type="line"/>
      <point x="505" y="1353" type="line"/>
      <point x="2357" y="0" type="line"/>
      <point x="2395" y="0" type="line"/>
      <point x="2639" y="1400" type="line"/>
      <point x="2603" y="1400" type="line"/>
      <point x="2367" y="46" type="line"/>
      <point x="513" y="1400" type="line"/>
      <point x="477" y="1400" type="line"/>
    </contour>
    <contour>
      <point x="1262" y="-249" type="line"/>
      <point x="1310" y="-185" type="line"/>
      <point x="1311.51" y="-181.982"/>
      <point x="1315.49" y="-174.546"/>
      <point x="1317" y="-167" type="qcurve"/>
      <point x="1322" y="-138" type="line" smooth="yes"/>
      <point x="1324.26" y="-123.663"/>
      <point x="1320.34" y="-118"/>
      <point x="1306" y="-118" type="qcurve" smooth="yes"/>
      <point x="1277" y="-118" type="line" smooth="yes"/>
      <point x="1261.91" y="-118"/>
      <point x="1254.26" y="-123.663"/>
      <point x="1252" y="-138" type="qcurve" smooth="yes"/>
      <point x="1247" y="-167" type="line" smooth="yes"/>
      <point x="1244.74" y="-181.337"/>
      <point x="1248.91" y="-187"/>
      <point x="1264" y="-187" type="qcurve" smooth="yes"/>
      <point x="1273" y="-187" type="line"/>
      <point x="1249" y="-244" type="line"/>
    </contour>
  </outline>
</glyph>
<glyph name="Obreve" format="2">
  <advance width="2815"/>
  <unicode hex="014E"/>
  <anchor x="1630" y="1900" name="top"/>
  <anchor x="1269" y="-150" name="bottom"/>
  <anchor x="2552" y="1100" name="horn"/>
  <anchor x="1313" y="0" name="ogonek"/>
  <outline>
    <contour>
      <point x="408" y="1100" type="qcurve" smooth="yes"/>
      <point x="268" y="300" type="line" smooth="yes"/>
      <point x="243.098" y="154.362"/>
      <point x="370.362" y="0"/>
      <point x="516" y="0" type="qcurve" smooth="yes"/>
      <point x="2064" y="0" type="line" smooth="yes"/>
      <point x="2209.64" y="0"/>
      <point x="2391.1" y="154.362"/>
      <point x="2416" y="300" type="qcurve" smooth="yes"/>
      <point x="2556" y="1100" type="line" smooth="yes"/>
      <point x="2581.5" y="1244.75"/>
      <point x="2452.75" y="1400"/>
      <point x="2308" y="1400" type="qcurve" smooth="yes"/>
      <point x="760" y="1400" type="line" smooth="yes"/>
      <point x="615.25" y="1400"/>
      <point x="433.5" y="1244.75"/>
    </contour>
    <contour>
      <point x="448" y="1102" type="line" smooth="yes"/>
      <point x="470.638" y="1230.28"/>
      <point x="627.718" y="1364"/>
      <point x="756" y="1364" type="qcurve" smooth="yes"/>
      <point x="2300" y="1364" type="line" smooth="yes"/>
      <point x="2428.28" y="1364"/>
      <point x="2538.64" y="1230.28"/>
      <point x="2516" y="1102" type="qcurve" smooth="yes"/>
      <point x="2376" y="298" type="line" smooth="yes"/>
      <point x="2353.36" y="169.718"/>
      <point x="2196.28" y="36"/>
      <point x="2068" y="36" type="qcurve" smooth="yes"/>
      <point x="524" y="36" type="line" smooth="yes"/>
      <point x="395.718" y="36"/>
      <point x="285.362" y="169.718"/>
      <point x="308" y="298" type="qcurve" smooth="yes"/>
    </contour>
    <contour>
      <point x="1574" y="1544" type="qcurve" smooth="yes"/>
      <point x="1663.25" y="1544"/>
      <point x="1779.84" y="1563.53"/>
      <point x="1853.91" y="1619.22"/>
      <point x="1895.12" y="1719.38"/>
      <point x="1909" y="1800" type="qcurve"/>
      <point x="1877" y="1800" type="line"/>
      <point x="1863.88" y="1724.25"/>
      <point x="1825.81" y="1636.56"/>
      <point x="1758.69" y="1591.94"/>
      <point x="1653.88" y="1580"/>
      <point x="1574" y="1580" type="qcurve" smooth="yes"/>
      <point x="1494.12" y="1580"/>
      <point x="1393.38" y="1591.94"/>
      <point x="1341.62" y="1636.56"/>
      <point x="1333.88" y="1724.25"/>
      <point x="1347" y="1800" type="qcurve"/>
      <point x="1315" y="1800" type="line"/>
      <point x="1301.12" y="1719.38"/>
      <point x="1311.66" y="1619.22"/>
      <point x="1371.09" y="1563.53"/>
      <point x="1484.75" y="1544"/>
    </contour>
  </outline>
</glyph>
<glyph name="OE" format="2">
  <advance width="4337"/>
  <unicode hex="0152"/>
  <outline>
    <contour>
      <point x="516" y="0" type="qcurve" smooth="yes"/>
      <point x="4212" y="0" type="line"/>
      <point x="4218" y="36" type="line"/>
      <point x="2370" y="36" type="line"/>
      <point x="2486" y="700" type="line"/>
      <point x="3664" y="700" type="line"/>
      <point x="3670" y="736" type="line"/>
      <point x="2492" y="736" type="line"/>
      <point x="2602" y="1364" type="line"/>
      <point x="4416" y="1364" type="line"/>
      <point x="4422" y="1400" type="line"/>
      <point x="760" y="1400" type="line" smooth="yes"/>
      <point x="687.625" y="1400"/>
      <point x="569.094" y="1360.53"/>
      <point x="479.656" y="1284.22"/>
      <point x="420.75" y="1172.38"/>
      <point x="408" y="1100" type="qcurve" smooth="yes"/>
      <point x="268" y="300" type="line" smooth="yes"/>
      <point x="255.625" y="227.625"/>
      <point x="275.75" y="115.781"/>
      <point x="338.75" y="39.4688"/>
      <point x="443.625" y="0"/>
    </contour>
    <contour>
      <point x="2330" y="36" type="line"/>
      <point x="524" y="36" type="line" smooth="yes"/>
      <point x="395.718" y="36"/>
      <point x="285.362" y="169.718"/>
      <point x="308" y="298" type="qcurve" smooth="yes"/>
      <point x="448" y="1102" type="line" smooth="yes"/>
      <point x="470.638" y="1230.28"/>
      <point x="627.718" y="1364"/>
      <point x="756" y="1364" type="qcurve" smooth="yes"/>
      <point x="2562" y="1364" type="line"/>
    </contour>
  </outline>
  <guideline angle="260.1" color="1,0,0,1" x="2515.96" y="1102"/>
</glyph>
<glyph name="oe" format="2">
  <advance width="3017"/>
  <unicode hex="0153"/>
  <anchor x="3230" y="1150" name="top"/>
  <anchor x="3003" y="-150" name="bottom"/>
  <outline>
    <contour>
      <point x="338" y="0" type="qcurve" smooth="yes"/>
      <point x="1241" y="0" type="line" smooth="yes"/>
      <point x="1298.35" y="0"/>
      <point x="1380.85" y="43.7424"/>
      <point x="1405" y="86" type="qcurve"/>
      <point x="1414.06" y="43.7424"/>
      <point x="1481.65" y="0"/>
      <point x="1539" y="0" type="qcurve" smooth="yes"/>
      <point x="2425" y="0" type="line" smooth="yes"/>
      <point x="2464.38" y="0"/>
      <point x="2528.53" y="21.0938"/>
      <point x="2576.72" y="62.1562"/>
      <point x="2608.25" y="122.625"/>
      <point x="2615" y="162" type="qcurve" smooth="yes"/>
      <point x="2639" y="300" type="line"/>
      <point x="2605" y="308" type="line"/>
      <point x="2580" y="168" type="line" smooth="yes"/>
      <point x="2568.68" y="101.595"/>
      <point x="2501.71" y="32"/>
      <point x="2427" y="32" type="qcurve" smooth="yes"/>
      <point x="1544" y="32" type="line" smooth="yes"/>
      <point x="1479.1" y="32"/>
      <point x="1425.68" y="102.35"/>
      <point x="1437" y="168" type="qcurve" smooth="yes"/>
      <point x="1496" y="507" type="line"/>
      <point x="2692" y="507" type="line"/>
      <point x="2750" y="838" type="line" smooth="yes"/>
      <point x="2757.12" y="877.375"/>
      <point x="2746.88" y="937.844"/>
      <point x="2713.12" y="978.906"/>
      <point x="2656.38" y="1000"/>
      <point x="2617" y="1000" type="qcurve" smooth="yes"/>
      <point x="1715" y="1000" type="line" smooth="yes"/>
      <point x="1657.65" y="1000"/>
      <point x="1574.39" y="957.503"/>
      <point x="1551" y="916" type="qcurve"/>
      <point x="1540.44" y="957.503"/>
      <point x="1473.35" y="1000"/>
      <point x="1416" y="1000" type="qcurve" smooth="yes"/>
      <point x="513" y="1000" type="line" smooth="yes"/>
      <point x="473.625" y="1000"/>
      <point x="409.438" y="978.906"/>
      <point x="361.062" y="937.844"/>
      <point x="329.125" y="877.375"/>
      <point x="322" y="838" type="qcurve" smooth="yes"/>
      <point x="204" y="162" type="line" smooth="yes"/>
      <point x="197.25" y="122.625"/>
      <point x="207.906" y="62.1562"/>
      <point x="241.844" y="21.0938"/>
      <point x="298.625" y="0"/>
    </contour>
    <contour>
      <point x="2662" y="539" type="line"/>
      <point x="1503" y="539" type="line"/>
      <point x="1554" y="833" type="line" smooth="yes"/>
      <point x="1566.07" y="898.65"/>
      <point x="1643.86" y="968"/>
      <point x="1708" y="968" type="qcurve" smooth="yes"/>
      <point x="2607" y="968" type="line" smooth="yes"/>
      <point x="2681.71" y="968"/>
      <point x="2725.07" y="898.405"/>
      <point x="2713" y="832" type="qcurve" smooth="yes"/>
    </contour>
    <contour>
      <point x="241" y="168" type="qcurve" smooth="yes"/>
      <point x="357" y="832" type="line" smooth="yes"/>
      <point x="369.074" y="899.159"/>
      <point x="436.295" y="968"/>
      <point x="511" y="968" type="qcurve" smooth="yes"/>
      <point x="1411" y="968" type="line" smooth="yes"/>
      <point x="1475.9" y="968"/>
      <point x="1528.32" y="897.65"/>
      <point x="1517" y="832" type="qcurve" smooth="yes"/>
      <point x="1401" y="168" type="line" smooth="yes"/>
      <point x="1389.68" y="102.35"/>
      <point x="1312.9" y="32"/>
      <point x="1248" y="32" type="qcurve" smooth="yes"/>
      <point x="348" y="32" type="line" smooth="yes"/>
      <point x="273.295" y="32"/>
      <point x="229.681" y="100.841"/>
    </contour>
  </outline>
  <guideline angle="260.1" color="1,0,0,1" x="1389.76" y="0"/>
</glyph>
<glyph name="Scedilla" format="2">
  <advance width="2589"/>
  <unicode hex="015E"/>
  <anchor x="1447" y="1550" name="top"/>
  <anchor x="1148" y="-150" name="bottom"/>
  <outline>
    <contour>
      <point x="256" y="386" type="line"/>
      <point x="241" y="300" type="line" smooth="yes"/>
      <point x="228.25" y="227.625"/>
      <point x="247.969" y="115.781"/>
      <point x="310.781" y="39.4688"/>
      <point x="415.625" y="0"/>
      <point x="488" y="0" type="qcurve" smooth="yes"/>
      <point x="1864" y="0" type="line" smooth="yes"/>
      <point x="2008.75" y="0"/>
      <point x="2191.5" y="155.25"/>
      <point x="2217" y="300" type="qcurve" smooth="yes"/>
      <point x="2239" y="426" type="line" smooth="yes"/>
      <point x="2251.38" y="498.375"/>
      <point x="2231.25" y="610.219"/>
      <point x="2168.25" y="686.531"/>
      <point x="2063.38" y="726"/>
      <point x="1991" y="726" type="qcurve" smooth="yes"/>
      <point x="639" y="726" type="line" smooth="yes"/>
      <point x="510.718" y="726"/>
      <point x="400.362" y="859.718"/>
      <point x="423" y="988" type="qcurve" smooth="yes"/>
      <point x="443" y="1102" type="line" smooth="yes"/>
      <point x="464.883" y="1230.28"/>
      <point x="621.718" y="1364"/>
      <point x="750" y="1364" type="qcurve" smooth="yes"/>
      <point x="2080" y="1364" type="line" smooth="yes"/>
      <point x="2208.28" y="1364"/>
      <point x="2318.88" y="1230.28"/>
      <point x="2297" y="1102" type="qcurve" smooth="yes"/>
      <point x="2281" y="1012" type="line"/>
      <point x="2323" y="1022" type="line"/>
      <point x="2336" y="1100" type="line" smooth="yes"/>
      <point x="2348.75" y="1172.38"/>
      <point x="2329.03" y="1284.22"/>
      <point x="2266.22" y="1360.53"/>
      <point x="2161.38" y="1400"/>
      <point x="2089" y="1400" type="qcurve" smooth="yes"/>
      <point x="755" y="1400" type="line" smooth="yes"/>
      <point x="682.625" y="1400"/>
      <point x="563.781" y="1360.53"/>
      <point x="473.969" y="1284.22"/>
      <point x="414.75" y="1172.38"/>
      <point x="402" y="1100" type="qcurve" smooth="yes"/>
      <point x="383" y="990" type="line" smooth="yes"/>
      <point x="370.625" y="917.625"/>
      <point x="390.75" y="805.781"/>
      <point x="453.75" y="729.469"/>
      <point x="558.625" y="690"/>
      <point x="631" y="690" type="qcurve" smooth="yes"/>
      <point x="1983" y="690" type="line" smooth="yes"/>
      <point x="2111.28" y="690"/>
      <point x="2221.64" y="556.282"/>
      <point x="2199" y="428" type="qcurve" smooth="yes"/>
      <point x="2176" y="298" type="line" smooth="yes"/>
      <point x="2154.12" y="169.718"/>
      <point x="1997.28" y="36"/>
      <point x="1869" y="36" type="qcurve" smooth="yes"/>
      <point x="497" y="36" type="line" smooth="yes"/>
      <point x="368.718" y="36"/>
      <point x="258.117" y="169.718"/>
      <point x="280" y="298" type="qcurve" smooth="yes"/>
      <point x="298" y="396" type="line"/>
    </contour>
    <contour>
      <point x="1095" y="-384" type="qcurve" smooth="yes"/>
      <point x="1145.25" y="-384"/>
      <point x="1227.72" y="-366.312"/>
      <point x="1289.03" y="-330.688"/>
      <point x="1327.62" y="-277"/>
      <point x="1334" y="-241" type="qcurve" smooth="yes"/>
      <point x="1340" y="-206.875"/>
      <point x="1314.97" y="-155.844"/>
      <point x="1259.28" y="-121.906"/>
      <point x="1176.12" y="-105"/>
      <point x="1124" y="-105" type="qcurve"/>
      <point x="1204" y="0" type="line"/>
      <point x="1169" y="0" type="line"/>
      <point x="1065" y="-139" type="line"/>
      <point x="1077.07" y="-137.491"/>
      <point x="1102.91" y="-135"/>
      <point x="1118" y="-135" type="qcurve" smooth="yes"/>
      <point x="1219.12" y="-135"/>
      <point x="1308.56" y="-185.896"/>
      <point x="1298" y="-244" type="qcurve" smooth="yes"/>
      <point x="1287.44" y="-304.368"/>
      <point x="1162.21" y="-354"/>
      <point x="1086" y="-354" type="qcurve" smooth="yes"/>
      <point x="1039.97" y="-354"/>
      <point x="959.147" y="-335.583"/>
      <point x="935" y="-322" type="qcurve"/>
      <point x="916" y="-344" type="line"/>
      <point x="949.957" y="-364.374"/>
      <point x="1036.14" y="-384"/>
    </contour>
  </outline>
</glyph>
<glyph name="uni0163" format="2">
  <advance width="1376"/>
  <unicode hex="0163"/>
  <anchor x="779" y="1394" name="top"/>
  <anchor x="510" y="-150" name="bottom"/>
  <anchor x="683" y="1400" name="right"/>
  <outline>
    <contour>
      <point x="563" y="0" type="qcurve" smooth="yes"/>
      <point x="1083" y="0" type="line"/>
      <point x="1099" y="32" type="line"/>
      <point x="569" y="32" type="line" smooth="yes"/>
      <point x="501.841" y="32"/>
      <point x="454.926" y="101.595"/>
      <point x="467" y="168" type="qcurve" smooth="yes"/>
      <point x="606" y="968" type="line"/>
      <point x="1292" y="968" type="line"/>
      <point x="1298" y="1000" type="line"/>
      <point x="612" y="1000" type="line"/>
      <point x="655" y="1244" type="line"/>
      <point x="619" y="1244" type="line"/>
      <point x="576" y="1000" type="line"/>
      <point x="186" y="1000" type="line"/>
      <point x="180" y="968" type="line"/>
      <point x="570" y="968" type="line"/>
      <point x="430" y="162" type="line" smooth="yes"/>
      <point x="415.663" y="82.767"/>
      <point x="483.767" y="0"/>
    </contour>
    <contour>
      <point x="457" y="-384" type="qcurve" smooth="yes"/>
      <point x="507.25" y="-384"/>
      <point x="589.719" y="-366.312"/>
      <point x="651.031" y="-330.688"/>
      <point x="689.625" y="-277"/>
      <point x="696" y="-241" type="qcurve" smooth="yes"/>
      <point x="702" y="-206.875"/>
      <point x="676.969" y="-155.844"/>
      <point x="621.281" y="-121.906"/>
      <point x="538.125" y="-105"/>
      <point x="486" y="-105" type="qcurve"/>
      <point x="566" y="0" type="line"/>
      <point x="531" y="0" type="line"/>
      <point x="427" y="-139" type="line"/>
      <point x="439.074" y="-137.491"/>
      <point x="464.908" y="-135"/>
      <point x="480" y="-135" type="qcurve" smooth="yes"/>
      <point x="581.116" y="-135"/>
      <point x="670.564" y="-185.896"/>
      <point x="660" y="-244" type="qcurve" smooth="yes"/>
      <point x="649.436" y="-304.368"/>
      <point x="524.215" y="-354"/>
      <point x="448" y="-354" type="qcurve" smooth="yes"/>
      <point x="401.969" y="-354"/>
      <point x="321.147" y="-335.583"/>
      <point x="297" y="-322" type="qcurve"/>
      <point x="278" y="-344" type="line"/>
      <point x="311.957" y="-364.374"/>
      <point x="398.141" y="-384"/>
    </contour>
  </outline>
</glyph>
<glyph name="Utilde" format="2">
  <advance width="2605"/>
  <unicode hex="0168"/>
  <anchor x="1515" y="1894" name="top"/>
  <anchor x="1157" y="-150" name="bottom"/>
  <anchor x="1203" y="0" name="ogonek"/>
  <anchor x="2387" y="1400" name="horn"/>
  <outline>
    <contour>
      <point x="469" y="1400" type="line"/>
      <point x="277" y="300" type="line" smooth="yes"/>
      <point x="264.625" y="227.625"/>
      <point x="284.75" y="115.781"/>
      <point x="347.75" y="39.4688"/>
      <point x="452.625" y="0"/>
      <point x="525" y="0" type="qcurve" smooth="yes"/>
      <point x="1846" y="0" type="line" smooth="yes"/>
      <point x="1990.75" y="0"/>
      <point x="2173.25" y="155.25"/>
      <point x="2198" y="300" type="qcurve" smooth="yes"/>
      <point x="2390" y="1400" type="line"/>
      <point x="2350" y="1400" type="line"/>
      <point x="2158" y="298" type="line" smooth="yes"/>
      <point x="2135.36" y="169.718"/>
      <point x="1978.28" y="36"/>
      <point x="1850" y="36" type="qcurve" smooth="yes"/>
      <point x="533" y="36" type="line" smooth="yes"/>
      <point x="404.718" y="36"/>
      <point x="294.362" y="169.718"/>
      <point x="317" y="298" type="qcurve" smooth="yes"/>
      <point x="509" y="1400" type="line"/>
    </contour>
    <contour>
      <point x="1012" y="1560" type="qcurve"/>
      <point x="1046" y="1553" type="line"/>
      <point x="1104.1" y="1666.19"/>
      <point x="1223.07" y="1759"/>
      <point x="1294" y="1759" type="qcurve" smooth="yes"/>
      <point x="1355.88" y="1759"/>
      <point x="1432.91" y="1694.62"/>
      <point x="1502.84" y="1617.38"/>
      <point x="1585.5" y="1553"/>
      <point x="1653" y="1553" type="qcurve" smooth="yes"/>
      <point x="1687.12" y="1553"/>
      <point x="1758.91" y="1571.84"/>
      <point x="1831.84" y="1623.41"/>
      <point x="1904.75" y="1714.62"/>
      <point x="1940" y="1787" type="qcurve"/>
      <point x="1906" y="1794" type="line"/>
      <point x="1847.9" y="1680.81"/>
      <point x="1729.93" y="1588"/>
      <point x="1659" y="1588" type="qcurve" smooth="yes"/>
      <point x="1597.12" y="1588"/>
      <point x="1519.47" y="1652.38"/>
      <point x="1448.78" y="1729.62"/>
      <point x="1365.5" y="1794"/>
      <point x="1298" y="1794" type="qcurve" smooth="yes"/>
      <point x="1263.88" y="1794"/>
      <point x="1192.41" y="1775.16"/>
      <point x="1119.84" y="1723.59"/>
      <point x="1047.25" y="1632.38"/>
    </contour>
  </outline>
</glyph>
<glyph name="utilde" format="2">
  <advance width="2022"/>
  <unicode hex="0169"/>
  <anchor x="1149" y="1469" name="top"/>
  <anchor x="866" y="-150" name="bottom"/>
  <anchor x="910" y="0" name="ogonek"/>
  <anchor x="1768" y="1000" name="horn"/>
  <outline>
    <contour>
      <point x="218" y="162" type="line" smooth="yes"/>
      <point x="204.417" y="82.767"/>
      <point x="272.767" y="0"/>
      <point x="352" y="0" type="qcurve" smooth="yes"/>
      <point x="1431" y="0" type="line" smooth="yes"/>
      <point x="1510.23" y="0"/>
      <point x="1607.42" y="82.767"/>
      <point x="1621" y="162" type="qcurve" smooth="yes"/>
      <point x="1768" y="1000" type="line"/>
      <point x="1732" y="1000" type="line"/>
      <point x="1586" y="168" type="line" smooth="yes"/>
      <point x="1574.68" y="101.595"/>
      <point x="1503.4" y="32"/>
      <point x="1437" y="32" type="qcurve" smooth="yes"/>
      <point x="358" y="32" type="line" smooth="yes"/>
      <point x="291.595" y="32"/>
      <point x="243.681" y="101.595"/>
      <point x="255" y="168" type="qcurve" smooth="yes"/>
      <point x="401" y="1000" type="line"/>
      <point x="365" y="1000" type="line"/>
    </contour>
    <contour>
      <point x="658" y="1179" type="qcurve"/>
      <point x="688" y="1173" type="line"/>
      <point x="746.104" y="1286.94"/>
      <point x="868.558" y="1384"/>
      <point x="941" y="1384" type="qcurve" smooth="yes"/>
      <point x="1002.5" y="1384"/>
      <point x="1076.41" y="1318.06"/>
      <point x="1143.34" y="1238.94"/>
      <point x="1224.38" y="1173"/>
      <point x="1293" y="1173" type="qcurve" smooth="yes"/>
      <point x="1361.25" y="1173"/>
      <point x="1508.5" y="1263.25"/>
      <point x="1579" y="1408" type="qcurve"/>
      <point x="1549" y="1414" type="line"/>
      <point x="1490.9" y="1300.06"/>
      <point x="1367.44" y="1203"/>
      <point x="1295" y="1203" type="qcurve" smooth="yes"/>
      <point x="1233.5" y="1203"/>
      <point x="1159.91" y="1268.94"/>
      <point x="1093.34" y="1348.06"/>
      <point x="1012.62" y="1414"/>
      <point x="944" y="1414" type="qcurve" smooth="yes"/>
      <point x="875.75" y="1414"/>
      <point x="728.5" y="1323.75"/>
    </contour>
  </outline>
</glyph>
<glyph name="umacron" format="2">
  <advance width="2022"/>
  <unicode hex="016B"/>
  <anchor x="1137" y="1386" name="top"/>
  <anchor x="866" y="-150" name="bottom"/>
  <anchor x="910" y="0" name="ogonek"/>
  <anchor x="1768" y="1000" name="horn"/>
  <outline>
    <contour>
      <point x="218" y="162" type="line" smooth="yes"/>
      <point x="204.417" y="82.767"/>
      <point x="272.767" y="0"/>
      <point x="352" y="0" type="qcurve" smooth="yes"/>
      <point x="1431" y="0" type="line" smooth="yes"/>
      <point x="1510.23" y="0"/>
      <point x="1607.42" y="82.767"/>
      <point x="1621" y="162" type="qcurve" smooth="yes"/>
      <point x="1768" y="1000" type="line"/>
      <point x="1732" y="1000" type="line"/>
      <point x="1586" y="168" type="line" smooth="yes"/>
      <point x="1574.68" y="101.595"/>
      <point x="1503.4" y="32"/>
      <point x="1437" y="32" type="qcurve" smooth="yes"/>
      <point x="358" y="32" type="line" smooth="yes"/>
      <point x="291.595" y="32"/>
      <point x="243.681" y="101.595"/>
      <point x="255" y="168" type="qcurve" smooth="yes"/>
      <point x="401" y="1000" type="line"/>
      <point x="365" y="1000" type="line"/>
    </contour>
    <contour>
      <point x="632" y="1254" type="line"/>
      <point x="1597" y="1254" type="line"/>
      <point x="1602" y="1286" type="line"/>
      <point x="637" y="1286" type="line"/>
    </contour>
  </outline>
</glyph>
<glyph name="Ubreve" format="2">
  <advance width="2605"/>
  <unicode hex="016C"/>
  <anchor x="1516" y="1900" name="top"/>
  <anchor x="1157" y="-150" name="bottom"/>
  <anchor x="1203" y="0" name="ogonek"/>
  <anchor x="2387" y="1400" name="horn"/>
  <outline>
    <contour>
      <point x="469" y="1400" type="line"/>
      <point x="277" y="300" type="line" smooth="yes"/>
      <point x="264.625" y="227.625"/>
      <point x="284.75" y="115.781"/>
      <point x="347.75" y="39.4688"/>
      <point x="452.625" y="0"/>
      <point x="525" y="0" type="qcurve" smooth="yes"/>
      <point x="1846" y="0" type="line" smooth="yes"/>
      <point x="1990.75" y="0"/>
      <point x="2173.25" y="155.25"/>
      <point x="2198" y="300" type="qcurve" smooth="yes"/>
      <point x="2390" y="1400" type="line"/>
      <point x="2350" y="1400" type="line"/>
      <point x="2158" y="298" type="line" smooth="yes"/>
      <point x="2135.36" y="169.718"/>
      <point x="1978.28" y="36"/>
      <point x="1850" y="36" type="qcurve" smooth="yes"/>
      <point x="533" y="36" type="line" smooth="yes"/>
      <point x="404.718" y="36"/>
      <point x="294.362" y="169.718"/>
      <point x="317" y="298" type="qcurve" smooth="yes"/>
      <point x="509" y="1400" type="line"/>
    </contour>
    <contour>
      <point x="1460" y="1544" type="qcurve" smooth="yes"/>
      <point x="1549.25" y="1544"/>
      <point x="1665.84" y="1563.53"/>
      <point x="1739.91" y="1619.22"/>
      <point x="1781.12" y="1719.38"/>
      <point x="1795" y="1800" type="qcurve"/>
      <point x="1763" y="1800" type="line"/>
      <point x="1749.88" y="1724.25"/>
      <point x="1711.81" y="1636.56"/>
      <point x="1644.69" y="1591.94"/>
      <point x="1539.88" y="1580"/>
      <point x="1460" y="1580" type="qcurve" smooth="yes"/>
      <point x="1380.12" y="1580"/>
      <point x="1279.38" y="1591.94"/>
      <point x="1227.62" y="1636.56"/>
      <point x="1219.88" y="1724.25"/>
      <point x="1233" y="1800" type="qcurve"/>
      <point x="1201" y="1800" type="line"/>
      <point x="1187.12" y="1719.38"/>
      <point x="1197.66" y="1619.22"/>
      <point x="1257.09" y="1563.53"/>
      <point x="1370.75" y="1544"/>
    </contour>
  </outline>
</glyph>
<glyph name="uring" format="2">
  <advance width="2022"/>
  <unicode hex="016F"/>
  <anchor x="1157" y="1513" name="top"/>
  <anchor x="866" y="-150" name="bottom"/>
  <anchor x="910" y="0" name="ogonek"/>
  <anchor x="1768" y="1000" name="horn"/>
  <outline>
    <contour>
      <point x="218" y="162" type="line" smooth="yes"/>
      <point x="204.417" y="82.767"/>
      <point x="272.767" y="0"/>
      <point x="352" y="0" type="qcurve" smooth="yes"/>
      <point x="1431" y="0" type="line" smooth="yes"/>
      <point x="1510.23" y="0"/>
      <point x="1607.42" y="82.767"/>
      <point x="1621" y="162" type="qcurve" smooth="yes"/>
      <point x="1768" y="1000" type="line"/>
      <point x="1732" y="1000" type="line"/>
      <point x="1586" y="168" type="line" smooth="yes"/>
      <point x="1574.68" y="101.595"/>
      <point x="1503.4" y="32"/>
      <point x="1437" y="32" type="qcurve" smooth="yes"/>
      <point x="358" y="32" type="line" smooth="yes"/>
      <point x="291.595" y="32"/>
      <point x="243.681" y="101.595"/>
      <point x="255" y="168" type="qcurve" smooth="yes"/>
      <point x="401" y="1000" type="line"/>
      <point x="365" y="1000" type="line"/>
    </contour>
    <contour>
      <point x="1093" y="1149" type="qcurve" smooth="yes"/>
      <point x="1129.75" y="1149"/>
      <point x="1178.56" y="1156.03"/>
      <point x="1210.44" y="1180.22"/>
      <point x="1229.25" y="1226.62"/>
      <point x="1236" y="1266" type="qcurve" smooth="yes"/>
      <point x="1243.12" y="1305.38"/>
      <point x="1240.59" y="1351.78"/>
      <point x="1217.16" y="1375.97"/>
      <point x="1170.75" y="1383"/>
      <point x="1134" y="1383" type="qcurve" smooth="yes"/>
      <point x="1097.25" y="1383"/>
      <point x="1048.41" y="1375.97"/>
      <point x="1016.34" y="1351.78"/>
      <point x="997.125" y="1305.38"/>
      <point x="990" y="1266" type="qcurve" smooth="yes"/>
      <point x="983.25" y="1226.62"/>
      <point x="986.188" y="1180.22"/>
      <point x="1009.81" y="1156.03"/>
      <point x="1056.25" y="1149"/>
    </contour>
    <contour>
      <point x="1098" y="1177" type="qcurve" smooth="yes"/>
      <point x="1042.91" y="1177"/>
      <point x="1012.19" y="1207.14"/>
      <point x="1022" y="1266" type="qcurve" smooth="yes"/>
      <point x="1032.56" y="1324.86"/>
      <point x="1073.91" y="1355"/>
      <point x="1129" y="1355" type="qcurve" smooth="yes"/>
      <point x="1184.09" y="1355"/>
      <point x="1214.56" y="1324.86"/>
      <point x="1204" y="1266" type="qcurve" smooth="yes"/>
      <point x="1194.19" y="1207.14"/>
      <point x="1153.09" y="1177"/>
    </contour>
  </outline>
</glyph>
<glyph name="uogonek" format="2">
  <advance width="2022"/>
  <unicode hex="0173"/>
  <anchor x="1093" y="1150" name="top"/>
  <anchor x="866" y="-150" name="bottom"/>
  <anchor x="910" y="0" name="ogonek"/>
  <anchor x="1768" y="1000" name="horn"/>
  <outline>
    <contour>
      <point x="218" y="162" type="line" smooth="yes"/>
      <point x="204.417" y="82.767"/>
      <point x="272.767" y="0"/>
      <point x="352" y="0" type="qcurve" smooth="yes"/>
      <point x="1431" y="0" type="line" smooth="yes"/>
      <point x="1510.23" y="0"/>
      <point x="1607.42" y="82.767"/>
      <point x="1621" y="162" type="qcurve" smooth="yes"/>
      <point x="1768" y="1000" type="line"/>
      <point x="1732" y="1000" type="line"/>
      <point x="1586" y="168" type="line" smooth="yes"/>
      <point x="1574.68" y="101.595"/>
      <point x="1503.4" y="32"/>
      <point x="1437" y="32" type="qcurve" smooth="yes"/>
      <point x="358" y="32" type="line" smooth="yes"/>
      <point x="291.595" y="32"/>
      <point x="243.681" y="101.595"/>
      <point x="255" y="168" type="qcurve" smooth="yes"/>
      <point x="401" y="1000" type="line"/>
      <point x="365" y="1000" type="line"/>
    </contour>
    <contour>
      <point x="740.8" y="-359" type="qcurve" smooth="yes"/>
      <point x="770.598" y="-359"/>
      <point x="827.098" y="-342.847"/>
      <point x="852" y="-327" type="qcurve"/>
      <point x="858" y="-297" type="line"/>
      <point x="824.043" y="-315.11"/>
      <point x="774.459" y="-329"/>
      <point x="751.272" y="-329" type="qcurve" smooth="yes"/>
      <point x="702.772" y="-329"/>
      <point x="657.527" y="-279.469"/>
      <point x="665.298" y="-234.788" type="qcurve" smooth="yes"/>
      <point x="675.637" y="-175.335"/>
      <point x="796.81" y="-58.8588"/>
      <point x="910" y="0" type="qcurve"/>
      <point x="874" y="0" type="line"/>
      <point x="773.638" y="-51.3128"/>
      <point x="643.168" y="-172.625"/>
      <point x="631.384" y="-239.121" type="qcurve" smooth="yes"/>
      <point x="622.039" y="-291.852"/>
      <point x="680.046" y="-359"/>
    </contour>
  </outline>
</glyph>
<glyph name="zacute" format="2">
  <advance width="1787"/>
  <unicode hex="017A"/>
  <anchor x="973" y="1150" name="top"/>
  <anchor x="746" y="-150" name="bottom"/>
  <outline>
    <contour>
      <point x="35" y="0" type="line"/>
      <point x="1513" y="0" type="line"/>
      <point x="1519" y="32" type="line"/>
      <point x="98" y="32" type="line"/>
      <point x="100" y="26" type="line"/>
      <point x="1677" y="972" type="line"/>
      <point x="1682" y="1000" type="line"/>
      <point x="270" y="1000" type="line"/>
      <point x="264" y="968" type="line"/>
      <point x="1619" y="968" type="line"/>
      <point x="1617" y="974" type="line"/>
      <point x="40" y="28" type="line"/>
    </contour>
    <contour>
      <point x="778" y="1085" type="line"/>
      <point x="833" y="1085" type="line"/>
      <point x="1371" y="1448" type="line"/>
      <point x="1306" y="1448" type="line"/>
    </contour>
  </outline>
</glyph>
<glyph name="zdotaccent" format="2">
  <advance width="1787"/>
  <unicode hex="017C"/>
  <anchor x="1017" y="1399" name="top"/>
  <anchor x="746" y="-150" name="bottom"/>
  <outline>
    <contour>
      <point x="35" y="0" type="line"/>
      <point x="1513" y="0" type="line"/>
      <point x="1519" y="32" type="line"/>
      <point x="98" y="32" type="line"/>
      <point x="100" y="26" type="line"/>
      <point x="1677" y="972" type="line"/>
      <point x="1682" y="1000" type="line"/>
      <point x="270" y="1000" type="line"/>
      <point x="264" y="968" type="line"/>
      <point x="1619" y="968" type="line"/>
      <point x="1617" y="974" type="line"/>
      <point x="40" y="28" type="line"/>
    </contour>
    <contour>
      <point x="976" y="1239" type="qcurve" smooth="yes"/>
      <point x="1008" y="1239" type="line" smooth="yes"/>
      <point x="1026.11" y="1239"/>
      <point x="1032.98" y="1244.89"/>
      <point x="1036" y="1263" type="qcurve"/>
      <point x="1042" y="1295" type="line" smooth="yes"/>
      <point x="1045.02" y="1313.11"/>
      <point x="1040.11" y="1319"/>
      <point x="1022" y="1319" type="qcurve" smooth="yes"/>
      <point x="990" y="1319" type="line" smooth="yes"/>
      <point x="971.89" y="1319"/>
      <point x="965.018" y="1313.11"/>
      <point x="962" y="1295" type="qcurve"/>
      <point x="956" y="1263" type="line" smooth="yes"/>
      <point x="952.982" y="1244.89"/>
      <point x="957.89" y="1239"/>
    </contour>
  </outline>
</glyph>
<glyph name="zcaron" format="2">
  <advance width="1787"/>
  <unicode hex="017E"/>
  <anchor x="1043" y="1538" name="top"/>
  <anchor x="746" y="-150" name="bottom"/>
  <anchor x="530" y="1266" name="topright"/>
  <outline>
    <contour>
      <point x="35" y="0" type="line"/>
      <point x="1513" y="0" type="line"/>
      <point x="1519" y="32" type="line"/>
      <point x="98" y="32" type="line"/>
      <point x="100" y="26" type="line"/>
      <point x="1677" y="972" type="line"/>
      <point x="1682" y="1000" type="line"/>
      <point x="270" y="1000" type="line"/>
      <point x="264" y="968" type="line"/>
      <point x="1619" y="968" type="line"/>
      <point x="1617" y="974" type="line"/>
      <point x="40" y="28" type="line"/>
    </contour>
    <contour>
      <point x="1487" y="1438" type="line"/>
      <point x="1431" y="1438" type="line"/>
      <point x="964" y="1121" type="line"/>
      <point x="609" y="1438" type="line"/>
      <point x="561" y="1438" type="line"/>
      <point x="947" y="1095" type="line"/>
      <point x="979" y="1095" type="line"/>
    </contour>
  </outline>
</glyph>
<glyph name="uni018F" format="2">
  <advance width="2528"/>
  <unicode hex="018F"/>
  <anchor x="1418" y="1550" name="top"/>
  <anchor x="1121" y="-150" name="bottom"/>
  <outline>
    <contour>
      <point x="506" y="0" type="qcurve" smooth="yes"/>
      <point x="1774" y="0" type="line" smooth="yes"/>
      <point x="1919.64" y="0"/>
      <point x="2101.1" y="154.362"/>
      <point x="2126" y="300" type="qcurve" smooth="yes"/>
      <point x="2266" y="1100" type="line" smooth="yes"/>
      <point x="2291.5" y="1244.75"/>
      <point x="2162.75" y="1400"/>
      <point x="2018" y="1400" type="qcurve" smooth="yes"/>
      <point x="750" y="1400" type="line" smooth="yes"/>
      <point x="605.25" y="1400"/>
      <point x="423.5" y="1244.75"/>
      <point x="398" y="1100" type="qcurve" smooth="yes"/>
      <point x="382" y="1008" type="line"/>
      <point x="421" y="1000" type="line"/>
      <point x="438" y="1102" type="line" smooth="yes"/>
      <point x="460.638" y="1230.28"/>
      <point x="617.718" y="1364"/>
      <point x="746" y="1364" type="qcurve" smooth="yes"/>
      <point x="2010" y="1364" type="line" smooth="yes"/>
      <point x="2138.28" y="1364"/>
      <point x="2248.64" y="1230.28"/>
      <point x="2226" y="1102" type="qcurve" smooth="yes"/>
      <point x="2156" y="700" type="line"/>
      <point x="328" y="700" type="line"/>
      <point x="258" y="300" type="line" smooth="yes"/>
      <point x="232.5" y="155.25"/>
      <point x="361.25" y="0"/>
    </contour>
    <contour>
      <point x="362" y="664" type="line"/>
      <point x="2150" y="664" type="line"/>
      <point x="2086" y="298" type="line" smooth="yes"/>
      <point x="2063.36" y="169.718"/>
      <point x="1906.28" y="36"/>
      <point x="1778" y="36" type="qcurve" smooth="yes"/>
      <point x="514" y="36" type="line" smooth="yes"/>
      <point x="385.718" y="36"/>
      <point x="275.362" y="169.718"/>
      <point x="298" y="298" type="qcurve" smooth="yes"/>
    </contour>
  </outline>
</glyph>
<glyph name="uni01CC" format="2">
  <advance width="2720"/>
  <unicode hex="01CC"/>
  <anchor x="2472" y="1150" name="top"/>
  <anchor x="884" y="-150" name="bottom"/>
  <outline>
    <contour>
      <point x="208" y="0" type="line"/>
      <point x="244" y="0" type="line"/>
      <point x="413" y="968" type="line"/>
      <point x="1609" y="968" type="line" smooth="yes"/>
      <point x="1676.16" y="968"/>
      <point x="1723.07" y="898.405"/>
      <point x="1711" y="832" type="qcurve" smooth="yes"/>
      <point x="1566" y="0" type="line"/>
      <point x="1602" y="0" type="line"/>
      <point x="1748" y="838" type="line" smooth="yes"/>
      <point x="1762.25" y="916.75"/>
      <point x="1693.75" y="1000"/>
      <point x="1615" y="1000" type="qcurve" smooth="yes"/>
      <point x="495" y="1000" type="line" smooth="yes"/>
      <point x="467.834" y="1000"/>
      <point x="426.828" y="985.583"/>
      <point x="414" y="972" type="qcurve"/>
      <point x="419" y="1000" type="line"/>
      <point x="383" y="1000" type="line"/>
    </contour>
    <contour>
      <point x="1685" y="-396" type="line"/>
      <point x="1689" y="-428" type="line"/>
      <point x="2053" y="-428" type="line" smooth="yes"/>
      <point x="2092.38" y="-428"/>
      <point x="2156.56" y="-406.906"/>
      <point x="2204.94" y="-365.844"/>
      <point x="2236.88" y="-305.375"/>
      <point x="2244" y="-266" type="qcurve" smooth="yes"/>
      <point x="2465" y="1000" type="line"/>
      <point x="2429" y="1000" type="line"/>
      <point x="2209" y="-260" type="line" smooth="yes"/>
      <point x="2196.93" y="-326.405"/>
      <point x="2126.16" y="-396"/>
      <point x="2059" y="-396" type="qcurve" smooth="yes"/>
    </contour>
    <contour>
      <point x="2453" y="1260" type="line" smooth="yes"/>
      <point x="2449.98" y="1241.89"/>
      <point x="2454.89" y="1236"/>
      <point x="2473" y="1236" type="qcurve" smooth="yes"/>
      <point x="2501" y="1236" type="line" smooth="yes"/>
      <point x="2519.11" y="1236"/>
      <point x="2525.98" y="1241.89"/>
      <point x="2529" y="1260" type="qcurve" smooth="yes"/>
      <point x="2534" y="1288" type="line" smooth="yes"/>
      <point x="2537.02" y="1306.11"/>
      <point x="2532.11" y="1312"/>
      <point x="2514" y="1312" type="qcurve" smooth="yes"/>
      <point x="2486" y="1312" type="line" smooth="yes"/>
      <point x="2467.89" y="1312"/>
      <point x="2461.02" y="1306.11"/>
      <point x="2458" y="1288" type="qcurve" smooth="yes"/>
    </contour>
  </outline>
  <guideline angle="0" x="0" y="988"/>
  <guideline angle="0" x="0" y="870"/>
</glyph>
<glyph name="gcaron" format="2">
  <advance width="2071"/>
  <unicode hex="01E7"/>
  <anchor x="1189" y="1538" name="top"/>
  <anchor x="817" y="-578" name="bottom"/>
  <anchor x="676" y="1266" name="topright"/>
  <outline>
    <contour>
      <point x="241" y="164" type="qcurve" smooth="yes"/>
      <point x="358" y="836" type="line" smooth="yes"/>
      <point x="370.074" y="902.405"/>
      <point x="440.841" y="972"/>
      <point x="508" y="972" type="qcurve" smooth="yes"/>
      <point x="1777" y="972" type="line"/>
      <point x="1612" y="28" type="line"/>
      <point x="343" y="28" type="line" smooth="yes"/>
      <point x="275.841" y="28"/>
      <point x="228.926" y="96.8406"/>
    </contour>
    <contour>
      <point x="141" y="-428" type="line"/>
      <point x="1408" y="-428" type="line" smooth="yes"/>
      <point x="1447.38" y="-428"/>
      <point x="1511.22" y="-406.906"/>
      <point x="1559.03" y="-365.844"/>
      <point x="1590.25" y="-305.375"/>
      <point x="1597" y="-266" type="qcurve" smooth="yes"/>
      <point x="1818" y="1000" type="line"/>
      <point x="1782" y="1000" type="line"/>
      <point x="1780" y="988" type="line"/>
      <point x="1773.96" y="995.546"/>
      <point x="1746.66" y="1004"/>
      <point x="1721" y="1004" type="qcurve" smooth="yes"/>
      <point x="514" y="1004" type="line" smooth="yes"/>
      <point x="434.767" y="1004"/>
      <point x="337.337" y="921.233"/>
      <point x="323" y="842" type="qcurve" smooth="yes"/>
      <point x="204" y="157" type="line" smooth="yes"/>
      <point x="189.663" y="77.767"/>
      <point x="258.767" y="-4"/>
      <point x="338" y="-4" type="qcurve" smooth="yes"/>
      <point x="1547" y="-4" type="line" smooth="yes"/>
      <point x="1572.66" y="-4"/>
      <point x="1602.21" y="4.454"/>
      <point x="1609" y="12" type="qcurve"/>
      <point x="1562" y="-260" type="line" smooth="yes"/>
      <point x="1550.68" y="-326.405"/>
      <point x="1471.86" y="-396"/>
      <point x="1413" y="-396" type="qcurve" smooth="yes"/>
      <point x="136" y="-396" type="line"/>
    </contour>
    <contour>
      <point x="1633" y="1438" type="line"/>
      <point x="1577" y="1438" type="line"/>
      <point x="1110" y="1121" type="line"/>
      <point x="755" y="1438" type="line"/>
      <point x="707" y="1438" type="line"/>
      <point x="1093" y="1095" type="line"/>
      <point x="1125" y="1095" type="line"/>
    </contour>
  </outline>
</glyph>
<glyph name="Aringacute" format="2">
  <advance width="2470"/>
  <unicode hex="01FA"/>
  <anchor x="1383" y="1550" name="top"/>
  <anchor x="1090" y="-150" name="bottom"/>
  <anchor x="2294" y="0" name="ogonek_in"/>
  <outline>
    <contour>
      <point x="-120" y="0" type="line"/>
      <point x="-70" y="0" type="line"/>
      <point x="337" y="388" type="line"/>
      <point x="2025" y="388" type="line"/>
      <point x="2296" y="0" type="line"/>
      <point x="2350" y="0" type="line"/>
      <point x="1365" y="1400" type="line"/>
      <point x="1347" y="1400" type="line"/>
    </contour>
    <contour>
      <point x="374" y="424" type="line"/>
      <point x="1349" y="1354" type="line"/>
      <point x="2000" y="424" type="line"/>
    </contour>
    <contour>
      <point x="1248" y="1571" type="qcurve" smooth="yes"/>
      <point x="1242.75" y="1540.62"/>
      <point x="1248.75" y="1501.16"/>
      <point x="1277.25" y="1478.09"/>
      <point x="1331.25" y="1469"/>
      <point x="1374" y="1469" type="qcurve" smooth="yes"/>
      <point x="1416.75" y="1469"/>
      <point x="1473.5" y="1478.09"/>
      <point x="1509.5" y="1501.16"/>
      <point x="1528.75" y="1540.62"/>
      <point x="1534" y="1571" type="qcurve" smooth="yes"/>
      <point x="1539.25" y="1601.38"/>
      <point x="1533.56" y="1640.84"/>
      <point x="1505.44" y="1663.91"/>
      <point x="1451.75" y="1673"/>
      <point x="1409" y="1673" type="qcurve" smooth="yes"/>
      <point x="1366.25" y="1673"/>
      <point x="1309.19" y="1663.91"/>
      <point x="1272.81" y="1640.84"/>
      <point x="1253.25" y="1601.38"/>
    </contour>
    <contour>
      <point x="1280" y="1571" type="qcurve" smooth="yes"/>
      <point x="1287.55" y="1615.52"/>
      <point x="1336.84" y="1645"/>
      <point x="1404" y="1645" type="qcurve" smooth="yes"/>
      <point x="1471.16" y="1645"/>
      <point x="1509.55" y="1615.52"/>
      <point x="1502" y="1571" type="qcurve" smooth="yes"/>
      <point x="1494.45" y="1526.48"/>
      <point x="1446.16" y="1497"/>
      <point x="1379" y="1497" type="qcurve" smooth="yes"/>
      <point x="1311.84" y="1497"/>
      <point x="1272.45" y="1526.48"/>
    </contour>
    <contour>
      <point x="1440" y="1733" type="line"/>
      <point x="1745" y="1966" type="line"/>
      <point x="1694" y="1966" type="line"/>
      <point x="1399" y="1733" type="line"/>
    </contour>
  </outline>
</glyph>
<glyph name="uni0201" format="2">
  <advance width="1982"/>
  <unicode hex="0201"/>
  <anchor x="1058" y="1150" name="top"/>
  <anchor x="894" y="-150" name="bottom"/>
  <anchor x="1553" y="0" name="ogonek"/>
  <outline>
    <contour>
      <point x="327" y="0" type="qcurve" smooth="yes"/>
      <point x="1473" y="0" type="line" smooth="yes"/>
      <point x="1489.6" y="0"/>
      <point x="1514.19" y="12.4172"/>
      <point x="1524" y="26" type="qcurve"/>
      <point x="1519" y="0" type="line"/>
      <point x="1555" y="0" type="line"/>
      <point x="1702" y="838" type="line" smooth="yes"/>
      <point x="1715.58" y="917.233"/>
      <point x="1648.23" y="1000"/>
      <point x="1569" y="1000" type="qcurve" smooth="yes"/>
      <point x="514" y="1000" type="line" smooth="yes"/>
      <point x="434.767" y="1000"/>
      <point x="337.583" y="917.233"/>
      <point x="324" y="838" type="qcurve" smooth="yes"/>
      <point x="308" y="750" type="line"/>
      <point x="343" y="742" type="line"/>
      <point x="359" y="832" type="line" smooth="yes"/>
      <point x="370.319" y="898.405"/>
      <point x="440.841" y="968"/>
      <point x="508" y="968" type="qcurve" smooth="yes"/>
      <point x="1563" y="968" type="line" smooth="yes"/>
      <point x="1629.4" y="968"/>
      <point x="1676.32" y="898.405"/>
      <point x="1665" y="832" type="qcurve" smooth="yes"/>
      <point x="1623" y="592" type="line"/>
      <point x="431" y="592" type="line" smooth="yes"/>
      <point x="352.25" y="592"/>
      <point x="254.25" y="508.75"/>
      <point x="240" y="430" type="qcurve" smooth="yes"/>
      <point x="194" y="162" type="line" smooth="yes"/>
      <point x="179.663" y="82.767"/>
      <point x="247.767" y="0"/>
    </contour>
    <contour>
      <point x="231" y="168" type="qcurve" smooth="yes"/>
      <point x="275" y="424" type="line" smooth="yes"/>
      <point x="287.074" y="490.405"/>
      <point x="357.841" y="560"/>
      <point x="425" y="560" type="qcurve" smooth="yes"/>
      <point x="1617" y="560" type="line"/>
      <point x="1525" y="32" type="line"/>
      <point x="333" y="32" type="line" smooth="yes"/>
      <point x="265.841" y="32"/>
      <point x="218.926" y="101.595"/>
    </contour>
    <contour>
      <point x="1327.68" y="1085" type="line"/>
      <point x="927.71" y="1448" type="line"/>
      <point x="862.71" y="1448" type="line"/>
      <point x="1272.68" y="1085" type="line"/>
    </contour>
    <contour>
      <point x="947.679" y="1085" type="line"/>
      <point x="547.71" y="1448" type="line"/>
      <point x="482.71" y="1448" type="line"/>
      <point x="892.679" y="1085" type="line"/>
    </contour>
  </outline>
  <guideline angle="260.1" color="1,0,0,1" x="1520" y="-0"/>
</glyph>
<glyph name="uni0206" format="2">
  <advance width="2243"/>
  <unicode hex="0206"/>
  <anchor x="1445" y="1550" name="top"/>
  <anchor x="1148" y="-150" name="bottom"/>
  <anchor x="2107" y="0" name="ogonek"/>
  <outline>
    <contour>
      <point x="233" y="0" type="line"/>
      <point x="2121" y="0" type="line"/>
      <point x="2127" y="36" type="line"/>
      <point x="279" y="36" type="line"/>
      <point x="395" y="700" type="line"/>
      <point x="1573" y="700" type="line"/>
      <point x="1579" y="736" type="line"/>
      <point x="401" y="736" type="line"/>
      <point x="511" y="1364" type="line"/>
      <point x="2325" y="1364" type="line"/>
      <point x="2331" y="1400" type="line"/>
      <point x="477" y="1400" type="line"/>
    </contour>
    <contour>
      <point x="1496.51" y="1800" type="qcurve" smooth="yes"/>
      <point x="1407.26" y="1800"/>
      <point x="1286.72" y="1780.47"/>
      <point x="1207.64" y="1724.78"/>
      <point x="1161.78" y="1624.62"/>
      <point x="1147.22" y="1544" type="qcurve"/>
      <point x="1179.22" y="1544" type="line"/>
      <point x="1192.81" y="1619.75"/>
      <point x="1231.49" y="1707.44"/>
      <point x="1298.98" y="1752.06"/>
      <point x="1403.94" y="1764"/>
      <point x="1483.81" y="1764" type="qcurve" smooth="yes"/>
      <point x="1563.69" y="1764"/>
      <point x="1664.29" y="1752.06"/>
      <point x="1715.68" y="1707.44"/>
      <point x="1722.81" y="1619.75"/>
      <point x="1709.22" y="1544" type="qcurve"/>
      <point x="1741.22" y="1544" type="line"/>
      <point x="1755.78" y="1624.62"/>
      <point x="1749.89" y="1724.78"/>
      <point x="1695.47" y="1780.47"/>
      <point x="1585.76" y="1800"/>
    </contour>
  </outline>
</glyph>
<glyph name="uni0209" format="2">
  <advance width="687"/>
  <unicode hex="0209"/>
  <anchor x="197" y="-150" name="bottom"/>
  <anchor x="424" y="1150" name="top"/>
  <anchor x="241" y="0" name="ogonek"/>
  <outline>
    <contour>
      <point x="208" y="0" type="line"/>
      <point x="244" y="0" type="line"/>
      <point x="419" y="1000" type="line"/>
      <point x="383" y="1000" type="line"/>
    </contour>
    <contour>
      <point x="693.679" y="1085" type="line"/>
      <point x="293.71" y="1448" type="line"/>
      <point x="228.71" y="1448" type="line"/>
      <point x="638.679" y="1085" type="line"/>
    </contour>
    <contour>
      <point x="313.679" y="1085" type="line"/>
      <point x="-86.2904" y="1448" type="line"/>
      <point x="-151.29" y="1448" type="line"/>
      <point x="258.679" y="1085" type="line"/>
    </contour>
  </outline>
</glyph>
<glyph name="uni020A" format="2">
  <advance width="740"/>
  <unicode hex="020A"/>
  <anchor x="521" y="1550" name="top"/>
  <anchor x="224" y="-150" name="bottom"/>
  <anchor x="270" y="0" name="ogonek"/>
  <outline>
    <contour>
      <point x="233" y="0" type="line"/>
      <point x="273" y="0" type="line"/>
      <point x="517" y="1400" type="line"/>
      <point x="477" y="1400" type="line"/>
    </contour>
    <contour>
      <point x="572.511" y="1800" type="qcurve" smooth="yes"/>
      <point x="483.261" y="1800"/>
      <point x="362.716" y="1780.47"/>
      <point x="283.638" y="1724.78"/>
      <point x="237.781" y="1624.62"/>
      <point x="223.22" y="1544" type="qcurve"/>
      <point x="255.22" y="1544" type="line"/>
      <point x="268.812" y="1619.75"/>
      <point x="307.489" y="1707.44"/>
      <point x="374.979" y="1752.06"/>
      <point x="479.939" y="1764"/>
      <point x="559.814" y="1764" type="qcurve" smooth="yes"/>
      <point x="639.689" y="1764"/>
      <point x="740.291" y="1752.06"/>
      <point x="791.677" y="1707.44"/>
      <point x="798.812" y="1619.75"/>
      <point x="785.22" y="1544" type="qcurve"/>
      <point x="817.22" y="1544" type="line"/>
      <point x="831.781" y="1624.62"/>
      <point x="825.888" y="1724.78"/>
      <point x="771.466" y="1780.47"/>
      <point x="661.761" y="1800"/>
    </contour>
  </outline>
</glyph>
<glyph name="uni020C" format="2">
  <advance width="2815"/>
  <unicode hex="020C"/>
  <anchor x="1568" y="1550" name="top"/>
  <anchor x="1269" y="-150" name="bottom"/>
  <anchor x="2552" y="1100" name="horn"/>
  <anchor x="1313" y="0" name="ogonek"/>
  <anchor x="1332.68" y="1485" name="topright"/>
  <outline>
    <contour>
      <point x="408" y="1100" type="qcurve" smooth="yes"/>
      <point x="268" y="300" type="line" smooth="yes"/>
      <point x="243.098" y="154.362"/>
      <point x="370.362" y="0"/>
      <point x="516" y="0" type="qcurve" smooth="yes"/>
      <point x="2064" y="0" type="line" smooth="yes"/>
      <point x="2209.64" y="0"/>
      <point x="2391.1" y="154.362"/>
      <point x="2416" y="300" type="qcurve" smooth="yes"/>
      <point x="2556" y="1100" type="line" smooth="yes"/>
      <point x="2581.5" y="1244.75"/>
      <point x="2452.75" y="1400"/>
      <point x="2308" y="1400" type="qcurve" smooth="yes"/>
      <point x="760" y="1400" type="line" smooth="yes"/>
      <point x="615.25" y="1400"/>
      <point x="433.5" y="1244.75"/>
    </contour>
    <contour>
      <point x="448" y="1102" type="line" smooth="yes"/>
      <point x="470.638" y="1230.28"/>
      <point x="627.718" y="1364"/>
      <point x="756" y="1364" type="qcurve" smooth="yes"/>
      <point x="2300" y="1364" type="line" smooth="yes"/>
      <point x="2428.28" y="1364"/>
      <point x="2538.64" y="1230.28"/>
      <point x="2516" y="1102" type="qcurve" smooth="yes"/>
      <point x="2376" y="298" type="line" smooth="yes"/>
      <point x="2353.36" y="169.718"/>
      <point x="2196.28" y="36"/>
      <point x="2068" y="36" type="qcurve" smooth="yes"/>
      <point x="524" y="36" type="line" smooth="yes"/>
      <point x="395.718" y="36"/>
      <point x="285.362" y="169.718"/>
      <point x="308" y="298" type="qcurve" smooth="yes"/>
    </contour>
    <contour>
      <point x="1958.68" y="1485" type="line"/>
      <point x="1556.78" y="1800" type="line"/>
      <point x="1479.78" y="1800" type="line"/>
      <point x="1893.68" y="1485" type="line"/>
    </contour>
    <contour>
      <point x="1376.68" y="1485" type="line"/>
      <point x="974.78" y="1800" type="line"/>
      <point x="897.78" y="1800" type="line"/>
      <point x="1311.68" y="1485" type="line"/>
    </contour>
  </outline>
</glyph>
<glyph name="uni0217" format="2">
  <advance width="2022"/>
  <unicode hex="0217"/>
  <anchor x="1093" y="1150" name="top"/>
  <anchor x="866" y="-150" name="bottom"/>
  <anchor x="910" y="0" name="ogonek"/>
  <anchor x="1768" y="1000" name="horn"/>
  <outline>
    <contour>
      <point x="218" y="162" type="line" smooth="yes"/>
      <point x="204.417" y="82.767"/>
      <point x="272.767" y="0"/>
      <point x="352" y="0" type="qcurve" smooth="yes"/>
      <point x="1431" y="0" type="line" smooth="yes"/>
      <point x="1510.23" y="0"/>
      <point x="1607.42" y="82.767"/>
      <point x="1621" y="162" type="qcurve" smooth="yes"/>
      <point x="1768" y="1000" type="line"/>
      <point x="1732" y="1000" type="line"/>
      <point x="1586" y="168" type="line" smooth="yes"/>
      <point x="1574.68" y="101.595"/>
      <point x="1503.4" y="32"/>
      <point x="1437" y="32" type="qcurve" smooth="yes"/>
      <point x="358" y="32" type="line" smooth="yes"/>
      <point x="291.595" y="32"/>
      <point x="243.681" y="101.595"/>
      <point x="255" y="168" type="qcurve" smooth="yes"/>
      <point x="401" y="1000" type="line"/>
      <point x="365" y="1000" type="line"/>
    </contour>
    <contour>
      <point x="1147.51" y="1418" type="qcurve" smooth="yes"/>
      <point x="1058.26" y="1418"/>
      <point x="944.404" y="1398.47"/>
      <point x="872.892" y="1339.78"/>
      <point x="832.578" y="1232.12"/>
      <point x="816.871" y="1144" type="qcurve"/>
      <point x="846.871" y="1144" type="line"/>
      <point x="861.609" y="1227.25"/>
      <point x="895.185" y="1323.69"/>
      <point x="955.636" y="1372.81"/>
      <point x="1054.35" y="1386"/>
      <point x="1134.22" y="1386" type="qcurve" smooth="yes"/>
      <point x="1214.1" y="1386"/>
      <point x="1308.45" y="1372.81"/>
      <point x="1351.87" y="1323.69"/>
      <point x="1351.61" y="1227.25"/>
      <point x="1336.87" y="1144" type="qcurve"/>
      <point x="1366.87" y="1144" type="line"/>
      <point x="1382.58" y="1232.12"/>
      <point x="1384.89" y="1339.78"/>
      <point x="1339.4" y="1398.47"/>
      <point x="1236.76" y="1418"/>
    </contour>
  </outline>
</glyph>
<glyph name="uni0219" format="2">
  <advance width="1822"/>
  <unicode hex="0219"/>
  <anchor x="997" y="1150" name="top"/>
  <anchor x="766" y="-150" name="bottom"/>
  <outline>
    <contour>
      <point x="217" y="300" type="line"/>
      <point x="193" y="162" type="line" smooth="yes"/>
      <point x="179.417" y="82.767"/>
      <point x="247.767" y="0"/>
      <point x="327" y="0" type="qcurve" smooth="yes"/>
      <point x="1259" y="0" type="line" smooth="yes"/>
      <point x="1338.23" y="0"/>
      <point x="1435.42" y="82.767"/>
      <point x="1449" y="162" type="qcurve" smooth="yes"/>
      <point x="1483" y="357" type="line" smooth="yes"/>
      <point x="1497.34" y="436.233"/>
      <point x="1429.23" y="519"/>
      <point x="1350" y="519" type="qcurve" smooth="yes"/>
      <point x="446" y="519" type="line" smooth="yes"/>
      <point x="371.295" y="519"/>
      <point x="327.681" y="588.595"/>
      <point x="339" y="655" type="qcurve" smooth="yes"/>
      <point x="370" y="832" type="line" smooth="yes"/>
      <point x="382.074" y="898.405"/>
      <point x="449.295" y="968"/>
      <point x="524" y="968" type="qcurve" smooth="yes"/>
      <point x="1408" y="968" type="line" smooth="yes"/>
      <point x="1482.71" y="968"/>
      <point x="1526.07" y="899.159"/>
      <point x="1514" y="832" type="qcurve" smooth="yes"/>
      <point x="1492" y="706" type="line"/>
      <point x="1530" y="714" type="line"/>
      <point x="1551" y="838" type="line" smooth="yes"/>
      <point x="1564.58" y="917.233"/>
      <point x="1497.23" y="1000"/>
      <point x="1418" y="1000" type="qcurve" smooth="yes"/>
      <point x="526" y="1000" type="line" smooth="yes"/>
      <point x="447.25" y="1000"/>
      <point x="349.25" y="916.75"/>
      <point x="335" y="838" type="qcurve" smooth="yes"/>
      <point x="302" y="649" type="line" smooth="yes"/>
      <point x="288.417" y="569.767"/>
      <point x="356.767" y="487"/>
      <point x="436" y="487" type="qcurve" smooth="yes"/>
      <point x="1340" y="487" type="line" smooth="yes"/>
      <point x="1414.71" y="487"/>
      <point x="1458.07" y="417.405"/>
      <point x="1446" y="351" type="qcurve" smooth="yes"/>
      <point x="1414" y="168" type="line" smooth="yes"/>
      <point x="1402.68" y="100.841"/>
      <point x="1335.71" y="32"/>
      <point x="1261" y="32" type="qcurve" smooth="yes"/>
      <point x="337" y="32" type="line" smooth="yes"/>
      <point x="262.295" y="32"/>
      <point x="218.681" y="101.595"/>
      <point x="230" y="168" type="qcurve" smooth="yes"/>
      <point x="255" y="308" type="line"/>
    </contour>
    <contour>
      <point x="743" y="-249" type="line"/>
      <point x="791" y="-185" type="line" smooth="yes"/>
      <point x="793.264" y="-181.982"/>
      <point x="796.491" y="-174.546"/>
      <point x="798" y="-167" type="qcurve"/>
      <point x="803" y="-138" type="line" smooth="yes"/>
      <point x="805.264" y="-123.663"/>
      <point x="801.337" y="-118"/>
      <point x="787" y="-118" type="qcurve" smooth="yes"/>
      <point x="758" y="-118" type="line" smooth="yes"/>
      <point x="742.908" y="-118"/>
      <point x="735.264" y="-123.663"/>
      <point x="733" y="-138" type="qcurve" smooth="yes"/>
      <point x="728" y="-167" type="line" smooth="yes"/>
      <point x="725.736" y="-181.337"/>
      <point x="729.908" y="-187"/>
      <point x="745" y="-187" type="qcurve" smooth="yes"/>
      <point x="754" y="-187" type="line"/>
      <point x="730" y="-244" type="line"/>
    </contour>
  </outline>
</glyph>
<glyph name="uni022D" format="2">
  <advance width="2069"/>
  <unicode hex="022D"/>
  <anchor x="1215" y="1705" name="top"/>
  <anchor x="888" y="-150" name="bottom"/>
  <anchor x="1801" y="838" name="horn"/>
  <anchor x="932" y="0" name="ogonek"/>
  <outline>
    <contour>
      <point x="204" y="162" type="line" smooth="yes"/>
      <point x="189.663" y="82.767"/>
      <point x="257.767" y="0"/>
      <point x="337" y="0" type="qcurve" smooth="yes"/>
      <point x="1495" y="0" type="line" smooth="yes"/>
      <point x="1574.23" y="0"/>
      <point x="1671.66" y="82.767"/>
      <point x="1686" y="162" type="qcurve" smooth="yes"/>
      <point x="1804" y="838" type="line" smooth="yes"/>
      <point x="1817.58" y="917.233"/>
      <point x="1749.23" y="1000"/>
      <point x="1670" y="1000" type="qcurve" smooth="yes"/>
      <point x="512" y="1000" type="line" smooth="yes"/>
      <point x="432.767" y="1000"/>
      <point x="335.583" y="917.233"/>
      <point x="322" y="838" type="qcurve" smooth="yes"/>
    </contour>
    <contour>
      <point x="241" y="168" type="qcurve" smooth="yes"/>
      <point x="357" y="832" type="line" smooth="yes"/>
      <point x="368.319" y="898.405"/>
      <point x="438.841" y="968"/>
      <point x="506" y="968" type="qcurve" smooth="yes"/>
      <point x="1664" y="968" type="line" smooth="yes"/>
      <point x="1731.16" y="968"/>
      <point x="1778.32" y="898.405"/>
      <point x="1767" y="832" type="qcurve" smooth="yes"/>
      <point x="1651" y="168" type="line" smooth="yes"/>
      <point x="1638.93" y="101.595"/>
      <point x="1568.16" y="32"/>
      <point x="1501" y="32" type="qcurve" smooth="yes"/>
      <point x="343" y="32" type="line" smooth="yes"/>
      <point x="275.841" y="32"/>
      <point x="228.926" y="101.595"/>
    </contour>
    <contour>
      <point x="680" y="1179" type="qcurve"/>
      <point x="710" y="1173" type="line"/>
      <point x="768.104" y="1286.94"/>
      <point x="890.558" y="1384"/>
      <point x="963" y="1384" type="qcurve" smooth="yes"/>
      <point x="1024.5" y="1384"/>
      <point x="1098.41" y="1318.06"/>
      <point x="1165.34" y="1238.94"/>
      <point x="1246.38" y="1173"/>
      <point x="1315" y="1173" type="qcurve" smooth="yes"/>
      <point x="1383.25" y="1173"/>
      <point x="1530.5" y="1263.25"/>
      <point x="1601" y="1408" type="qcurve"/>
      <point x="1571" y="1414" type="line"/>
      <point x="1512.9" y="1300.06"/>
      <point x="1389.44" y="1203"/>
      <point x="1317" y="1203" type="qcurve" smooth="yes"/>
      <point x="1255.5" y="1203"/>
      <point x="1181.91" y="1268.94"/>
      <point x="1115.34" y="1348.06"/>
      <point x="1034.62" y="1414"/>
      <point x="966" y="1414" type="qcurve" smooth="yes"/>
      <point x="897.75" y="1414"/>
      <point x="750.5" y="1323.75"/>
    </contour>
    <contour>
      <point x="710" y="1573" type="line"/>
      <point x="1675" y="1573" type="line"/>
      <point x="1680" y="1605" type="line"/>
      <point x="715" y="1605" type="line"/>
    </contour>
  </outline>
</glyph>
<glyph name="uni0237" format="2">
  <advance width="729"/>
  <unicode hex="0237"/>
  <anchor x="464" y="1150" name="top"/>
  <outline>
    <contour>
      <point x="-323" y="-396" type="line"/>
      <point x="-319" y="-428" type="line"/>
      <point x="45" y="-428" type="line" smooth="yes"/>
      <point x="84.375" y="-428"/>
      <point x="148.562" y="-406.906"/>
      <point x="196.938" y="-365.844"/>
      <point x="228.875" y="-305.375"/>
      <point x="236" y="-266" type="qcurve" smooth="yes"/>
      <point x="457" y="1000" type="line"/>
      <point x="421" y="1000" type="line"/>
      <point x="201" y="-260" type="line" smooth="yes"/>
      <point x="188.926" y="-326.405"/>
      <point x="118.159" y="-396"/>
      <point x="51" y="-396" type="qcurve" smooth="yes"/>
    </contour>
  </outline>
</glyph>
<glyph name="uni0254" format="2">
  <advance width="1959"/>
  <unicode hex="0254"/>
  <anchor x="1028" y="1150" name="top"/>
  <anchor x="799" y="-150" name="bottom"/>
  <outline>
    <contour>
      <point x="268" y="0" type="qcurve" smooth="yes"/>
      <point x="1383" y="0" type="line" smooth="yes"/>
      <point x="1466.76" y="0"/>
      <point x="1558.66" y="78.994"/>
      <point x="1573" y="162" type="qcurve" smooth="yes"/>
      <point x="1691" y="838" type="line" smooth="yes"/>
      <point x="1703.83" y="912.705"/>
      <point x="1632.46" y="1000"/>
      <point x="1557" y="1000" type="qcurve" smooth="yes"/>
      <point x="446" y="1000" type="line" smooth="yes"/>
      <point x="362.994" y="1000"/>
      <point x="271.337" y="920.251"/>
      <point x="257" y="838" type="qcurve" smooth="yes"/>
      <point x="238" y="730" type="line"/>
      <point x="273" y="722" type="line"/>
      <point x="292" y="832" type="line" smooth="yes"/>
      <point x="303.319" y="899.159"/>
      <point x="373.841" y="968"/>
      <point x="441" y="968" type="qcurve" smooth="yes"/>
      <point x="1552" y="968" type="line" smooth="yes"/>
      <point x="1611.61" y="968"/>
      <point x="1664.56" y="893.877"/>
      <point x="1654" y="832" type="qcurve" smooth="yes"/>
      <point x="1538" y="168" type="line" smooth="yes"/>
      <point x="1526.68" y="100.086"/>
      <point x="1455.16" y="32"/>
      <point x="1388" y="32" type="qcurve" smooth="yes"/>
      <point x="273" y="32" type="line" smooth="yes"/>
      <point x="213.387" y="32"/>
      <point x="161.436" y="106.123"/>
      <point x="172" y="168" type="qcurve" smooth="yes"/>
      <point x="195" y="300" type="line"/>
      <point x="157" y="290" type="line"/>
      <point x="135" y="162" type="line" smooth="yes"/>
      <point x="122.172" y="87.2946"/>
      <point x="193.295" y="0"/>
    </contour>
  </outline>
</glyph>
<glyph name="uni0257" format="2">
  <advance width="2302"/>
  <unicode hex="0257"/>
  <anchor x="1195" y="1598" name="top"/>
  <anchor x="890" y="-150" name="bottom"/>
  <anchor x="1902" y="1448" name="right"/>
  <outline>
    <contour>
      <point x="1777" y="968" type="line"/>
      <point x="1613" y="32" type="line"/>
      <point x="343" y="32" type="line" smooth="yes"/>
      <point x="279.614" y="32"/>
      <point x="229.681" y="102.35"/>
      <point x="241" y="168" type="qcurve" smooth="yes"/>
      <point x="357" y="832" type="line" smooth="yes"/>
      <point x="369.074" y="903.687"/>
      <point x="435.313" y="968"/>
      <point x="507" y="968" type="qcurve" smooth="yes"/>
    </contour>
    <contour>
      <point x="1779" y="984" type="line"/>
      <point x="1772.96" y="991.546"/>
      <point x="1745.66" y="1000"/>
      <point x="1720" y="1000" type="qcurve" smooth="yes"/>
      <point x="512" y="1000" type="line" smooth="yes"/>
      <point x="422.957" y="1000"/>
      <point x="337.092" y="925.534"/>
      <point x="322" y="838" type="qcurve" smooth="yes"/>
      <point x="204" y="162" type="line" smooth="yes"/>
      <point x="190.417" y="82.767"/>
      <point x="258.012" y="0"/>
      <point x="338" y="0" type="qcurve" smooth="yes"/>
      <point x="1548" y="0" type="line" smooth="yes"/>
      <point x="1573.66" y="0"/>
      <point x="1603.21" y="8.454"/>
      <point x="1610" y="16" type="qcurve"/>
      <point x="1608" y="0" type="line"/>
      <point x="1644" y="0" type="line"/>
      <point x="1867" y="1280" type="line" smooth="yes"/>
      <point x="1878.32" y="1346.4"/>
      <point x="1949.84" y="1416"/>
      <point x="2017" y="1416" type="qcurve" smooth="yes"/>
      <point x="2405" y="1416" type="line"/>
      <point x="2420" y="1448" type="line"/>
      <point x="2022" y="1448" type="line" smooth="yes"/>
      <point x="1942.77" y="1448"/>
      <point x="1845.58" y="1365.23"/>
      <point x="1832" y="1286" type="qcurve" smooth="yes"/>
    </contour>
  </outline>
  <guideline angle="0" x="0" y="988"/>
  <guideline angle="0" x="0" y="42"/>
  <guideline angle="0" x="0" y="988"/>
  <guideline angle="0" x="0" y="42"/>
</glyph>
<glyph name="uni0272" format="2">
  <advance width="2028"/>
  <unicode hex="0272"/>
  <anchor x="1036" y="1150" name="top"/>
  <anchor x="809" y="-150" name="bottom"/>
  <outline>
    <contour>
      <point x="409" y="968" type="line"/>
      <point x="1605" y="968" type="line" smooth="yes"/>
      <point x="1668.39" y="968"/>
      <point x="1719.07" y="897.65"/>
      <point x="1707" y="832" type="qcurve" smooth="yes"/>
      <point x="1562" y="0" type="line"/>
      <point x="1598" y="0" type="line"/>
      <point x="1744" y="838" type="line" smooth="yes"/>
      <point x="1758.34" y="917.233"/>
      <point x="1690.99" y="1000"/>
      <point x="1611" y="1000" type="qcurve" smooth="yes"/>
      <point x="491" y="1000" type="line" smooth="yes"/>
      <point x="463.834" y="1000"/>
      <point x="422.828" y="985.583"/>
      <point x="410" y="972" type="qcurve"/>
      <point x="415" y="1000" type="line"/>
      <point x="379" y="1000" type="line"/>
      <point x="159" y="-260" type="line" smooth="yes"/>
      <point x="146.172" y="-331.687"/>
      <point x="80.687" y="-396"/>
      <point x="9" y="-396" type="qcurve" smooth="yes"/>
      <point x="-365" y="-396" type="line"/>
      <point x="-361" y="-428" type="line"/>
      <point x="3" y="-428" type="line" smooth="yes"/>
      <point x="92.0428" y="-428"/>
      <point x="178.153" y="-353.534"/>
      <point x="194" y="-266" type="qcurve" smooth="yes"/>
    </contour>
  </outline>
  <guideline angle="0" x="0" y="988"/>
  <guideline angle="0" x="0" y="870"/>
  <guideline angle="0" x="0" y="988"/>
  <guideline angle="0" x="0" y="870"/>
</glyph>
<glyph name="circumflex" format="2">
  <advance width="1026"/>
  <unicode hex="02C6"/>
  <outline>
    <contour>
      <point x="50" y="1095" type="line"/>
      <point x="106" y="1095" type="line"/>
      <point x="573" y="1412" type="line"/>
      <point x="928" y="1095" type="line"/>
      <point x="976" y="1095" type="line"/>
      <point x="590" y="1438" type="line"/>
      <point x="558" y="1438" type="line"/>
    </contour>
  </outline>
</glyph>
<glyph name="uni0412" format="2">
  <advance width="2695"/>
  <unicode hex="0412"/>
  <anchor x="1454" y="1550" name="top"/>
  <anchor x="1157" y="-150" name="bottom"/>
  <outline>
    <contour>
      <point x="233" y="0" type="line"/>
      <point x="1981" y="0" type="line" smooth="yes"/>
      <point x="2056" y="0"/>
      <point x="2174.91" y="36.6562"/>
      <point x="2262.84" y="111.094"/>
      <point x="2319.88" y="223.875"/>
      <point x="2333" y="300" type="qcurve" smooth="yes"/>
      <point x="2359" y="448" type="line" smooth="yes"/>
      <point x="2378.62" y="559.681"/>
      <point x="2313.89" y="711.571"/>
      <point x="2209" y="741" type="qcurve"/>
      <point x="2316.15" y="765.902"/>
      <point x="2427.64" y="929.638"/>
      <point x="2445" y="1030" type="qcurve" smooth="yes"/>
      <point x="2457" y="1100" type="line" smooth="yes"/>
      <point x="2470.12" y="1176.12"/>
      <point x="2451.88" y="1288.91"/>
      <point x="2389.62" y="1363.34"/>
      <point x="2283.62" y="1400"/>
      <point x="2209" y="1400" type="qcurve" smooth="yes"/>
      <point x="477" y="1400" type="line"/>
    </contour>
    <contour>
      <point x="279" y="36" type="line"/>
      <point x="399" y="720" type="line"/>
      <point x="2086" y="720" type="line" smooth="yes"/>
      <point x="2228.62" y="720"/>
      <point x="2343.15" y="583.828"/>
      <point x="2319" y="448" type="qcurve" smooth="yes"/>
      <point x="2293" y="298" type="line" smooth="yes"/>
      <point x="2269.61" y="162.172"/>
      <point x="2113.28" y="36"/>
      <point x="1985" y="36" type="qcurve" smooth="yes"/>
    </contour>
    <contour>
      <point x="405" y="756" type="line"/>
      <point x="511" y="1364" type="line"/>
      <point x="2201" y="1364" type="line" smooth="yes"/>
      <point x="2329.28" y="1364"/>
      <point x="2441.15" y="1237.83"/>
      <point x="2417" y="1102" type="qcurve" smooth="yes"/>
      <point x="2405" y="1032" type="line" smooth="yes"/>
      <point x="2383.87" y="911.264"/>
      <point x="2236.94" y="756"/>
      <point x="2083" y="756" type="qcurve" smooth="yes"/>
    </contour>
  </outline>
</glyph>
<glyph name="uni041A" format="2">
  <advance width="2375"/>
  <unicode hex="041A"/>
  <anchor x="1379" y="1550" name="top"/>
  <anchor x="1215" y="-150" name="bottom"/>
  <outline>
    <contour>
      <point x="2287" y="1400" type="line"/>
      <point x="2194" y="1400" type="line"/>
      <point x="369" y="713" type="line"/>
      <point x="398" y="713" type="line"/>
      <point x="517" y="1400" type="line"/>
      <point x="477" y="1400" type="line"/>
      <point x="233" y="0" type="line"/>
      <point x="273" y="0" type="line"/>
      <point x="397" y="710" type="line"/>
      <point x="384" y="710" type="line"/>
      <point x="2146" y="0" type="line"/>
      <point x="2255" y="0" type="line"/>
      <point x="450" y="719" type="line"/>
      <point x="450" y="711" type="line"/>
    </contour>
  </outline>
</glyph>
<glyph name="uni0431" format="2">
  <advance width="2092"/>
  <unicode hex="0431"/>
  <outline>
    <contour>
      <point x="1855" y="1303" type="line"/>
      <point x="1854" y="1293" type="line"/>
      <point x="1846.45" y="1253.01"/>
      <point x="1795.33" y="1217.51"/>
      <point x="1741" y="1216" type="qcurve" smooth="yes"/>
      <point x="569" y="1186" type="line" smooth="yes"/>
      <point x="472.411" y="1183.74"/>
      <point x="364.865" y="1082.66"/>
      <point x="346" y="974" type="qcurve" smooth="yes"/>
      <point x="204" y="162" type="line" smooth="yes"/>
      <point x="190.417" y="82.767"/>
      <point x="258.767" y="0"/>
      <point x="338" y="0" type="qcurve" smooth="yes"/>
      <point x="1517" y="0" type="line" smooth="yes"/>
      <point x="1596.23" y="0"/>
      <point x="1692.42" y="82.767"/>
      <point x="1706" y="162" type="qcurve" smooth="yes"/>
      <point x="1797" y="683" type="line" smooth="yes"/>
      <point x="1811.34" y="762.233"/>
      <point x="1743.23" y="845"/>
      <point x="1664" y="845" type="qcurve" smooth="yes"/>
      <point x="513" y="845" type="line" smooth="yes"/>
      <point x="451.123" y="845"/>
      <point x="374.656" y="815.939"/>
      <point x="349" y="785" type="qcurve"/>
      <point x="381" y="971" type="line" smooth="yes"/>
      <point x="397.601" y="1064.57"/>
      <point x="488.485" y="1149.74"/>
      <point x="573" y="1152" type="qcurve" smooth="yes"/>
      <point x="1737" y="1182" type="line" smooth="yes"/>
      <point x="1771.5" y="1182.75"/>
      <point x="1822.72" y="1195.53"/>
      <point x="1858.53" y="1221.22"/>
      <point x="1880.12" y="1260.62"/>
      <point x="1885" y="1288" type="qcurve"/>
      <point x="1887" y="1303" type="line"/>
    </contour>
    <contour>
      <point x="344" y="32" type="line" smooth="yes"/>
      <point x="276.841" y="32"/>
      <point x="229.681" y="100.841"/>
      <point x="241" y="168" type="qcurve" smooth="yes"/>
      <point x="332" y="685" type="line" smooth="yes"/>
      <point x="343.319" y="749.896"/>
      <point x="429.331" y="813"/>
      <point x="498" y="813" type="qcurve" smooth="yes"/>
      <point x="1659" y="813" type="line" smooth="yes"/>
      <point x="1726.16" y="813"/>
      <point x="1772.07" y="744.159"/>
      <point x="1760" y="677" type="qcurve" smooth="yes"/>
      <point x="1671" y="168" type="line" smooth="yes"/>
      <point x="1659.68" y="100.841"/>
      <point x="1590.16" y="32"/>
      <point x="1523" y="32" type="qcurve" smooth="yes"/>
    </contour>
  </outline>
</glyph>
<glyph name="uni0432" format="2">
  <advance width="2014"/>
  <unicode hex="0432"/>
  <outline>
    <contour>
      <point x="192" y="0" type="line"/>
      <point x="1385" y="0" type="line" smooth="yes"/>
      <point x="1500.45" y="0"/>
      <point x="1614.64" y="86.1474"/>
      <point x="1632" y="185" type="qcurve" smooth="yes"/>
      <point x="1661" y="351" type="line" smooth="yes"/>
      <point x="1673.83" y="424.951"/>
      <point x="1620.18" y="512.399"/>
      <point x="1550" y="529" type="qcurve"/>
      <point x="1617.91" y="546.356"/>
      <point x="1693.17" y="631.068"/>
      <point x="1706" y="702" type="qcurve" smooth="yes"/>
      <point x="1727" y="825" type="line" smooth="yes"/>
      <point x="1742.85" y="917.816"/>
      <point x="1656.94" y="1000"/>
      <point x="1543" y="1000" type="qcurve" smooth="yes"/>
      <point x="367" y="1000" type="line"/>
    </contour>
    <contour>
      <point x="234" y="32" type="line"/>
      <point x="317" y="511" type="line"/>
      <point x="1430" y="511" type="line" smooth="yes"/>
      <point x="1546.21" y="511"/>
      <point x="1639.09" y="432.024"/>
      <point x="1624" y="346" type="qcurve" smooth="yes"/>
      <point x="1597" y="190" type="line" smooth="yes"/>
      <point x="1581.91" y="103.976"/>
      <point x="1485.61" y="32"/>
      <point x="1386" y="32" type="qcurve" smooth="yes"/>
    </contour>
    <contour>
      <point x="323" y="543" type="line"/>
      <point x="397" y="968" type="line"/>
      <point x="1532" y="968" type="line" smooth="yes"/>
      <point x="1630.1" y="968"/>
      <point x="1703.58" y="899.233"/>
      <point x="1690" y="820" type="qcurve" smooth="yes"/>
      <point x="1670" y="707" type="line" smooth="yes"/>
      <point x="1655.66" y="622.485"/>
      <point x="1539.66" y="543"/>
      <point x="1431" y="543" type="qcurve" smooth="yes"/>
    </contour>
  </outline>
</glyph>
<glyph name="uni0437" format="2">
  <advance width="1929"/>
  <unicode hex="0437"/>
  <anchor x="1019" y="1150" name="top"/>
  <anchor x="836" y="0" name="ogonek"/>
  <outline>
    <contour>
      <point x="269" y="0" type="qcurve" smooth="yes"/>
      <point x="1300" y="0" type="line" smooth="yes"/>
      <point x="1359.62" y="0"/>
      <point x="1444.97" y="19.2812"/>
      <point x="1503.28" y="62.9688"/>
      <point x="1538" y="133.625"/>
      <point x="1547" y="185" type="qcurve" smooth="yes"/>
      <point x="1576" y="351" type="line" smooth="yes"/>
      <point x="1587.32" y="415.141"/>
      <point x="1537.84" y="506.644"/>
      <point x="1482" y="524" type="qcurve"/>
      <point x="1546.14" y="543.62"/>
      <point x="1607.42" y="622.767"/>
      <point x="1621" y="702" type="qcurve" smooth="yes"/>
      <point x="1642" y="825" type="line" smooth="yes"/>
      <point x="1657" y="912.75"/>
      <point x="1565.25" y="1000"/>
      <point x="1458" y="1000" type="qcurve" smooth="yes"/>
      <point x="444" y="1000" type="line" smooth="yes"/>
      <point x="399.375" y="1000"/>
      <point x="334.438" y="982.844"/>
      <point x="289.062" y="944.406"/>
      <point x="260.875" y="882.625"/>
      <point x="253" y="838" type="qcurve" smooth="yes"/>
      <point x="229" y="699" type="line"/>
      <point x="264" y="692" type="line"/>
      <point x="288" y="832" type="line" smooth="yes"/>
      <point x="300.828" y="906.705"/>
      <point x="367.822" y="968"/>
      <point x="438" y="968" type="qcurve" smooth="yes"/>
      <point x="1452" y="968" type="line" smooth="yes"/>
      <point x="1542.55" y="968"/>
      <point x="1618.58" y="894.705"/>
      <point x="1605" y="820" type="qcurve" smooth="yes"/>
      <point x="1585" y="707" type="line" smooth="yes"/>
      <point x="1568.4" y="613.43"/>
      <point x="1465.23" y="543"/>
      <point x="1346" y="543" type="qcurve" smooth="yes"/>
      <point x="584" y="543" type="line"/>
      <point x="578" y="511" type="line"/>
      <point x="1345" y="511" type="line" smooth="yes"/>
      <point x="1460.45" y="511"/>
      <point x="1554.09" y="431.27"/>
      <point x="1539" y="346" type="qcurve" smooth="yes"/>
      <point x="1512" y="190" type="line" smooth="yes"/>
      <point x="1504.5" y="146.125"/>
      <point x="1475.38" y="85.7812"/>
      <point x="1426.62" y="48.4688"/>
      <point x="1355.5" y="32"/>
      <point x="1306" y="32" type="qcurve" smooth="yes"/>
      <point x="275" y="32" type="line" smooth="yes"/>
      <point x="210.104" y="32"/>
      <point x="159.172" y="97.8222"/>
      <point x="172" y="168" type="qcurve" smooth="yes"/>
      <point x="194" y="291" type="line"/>
      <point x="157" y="284" type="line"/>
      <point x="135" y="162" type="line" smooth="yes"/>
      <point x="127.875" y="121.875"/>
      <point x="137.594" y="61.2188"/>
      <point x="171.156" y="20.5312"/>
      <point x="228.5" y="0"/>
    </contour>
  </outline>
</glyph>
<glyph name="uni0444" format="2">
  <advance width="2928"/>
  <unicode hex="0444"/>
  <outline>
    <contour>
      <point x="337" y="0" type="qcurve" smooth="yes"/>
      <point x="1266" y="0" type="line" smooth="yes"/>
      <point x="1291.66" y="0"/>
      <point x="1321.45" y="8.454"/>
      <point x="1329" y="16" type="qcurve"/>
      <point x="1252" y="-428" type="line"/>
      <point x="1288" y="-428" type="line"/>
      <point x="1362" y="0" type="line"/>
      <point x="2352" y="0" type="line" smooth="yes"/>
      <point x="2431.23" y="0"/>
      <point x="2527.66" y="82.767"/>
      <point x="2542" y="162" type="qcurve" smooth="yes"/>
      <point x="2660" y="838" type="line" smooth="yes"/>
      <point x="2673.58" y="917.233"/>
      <point x="2606.23" y="1000"/>
      <point x="2527" y="1000" type="qcurve" smooth="yes"/>
      <point x="1597" y="1000" type="line" smooth="yes"/>
      <point x="1571.34" y="1000"/>
      <point x="1541.55" y="991.546"/>
      <point x="1534" y="984" type="qcurve"/>
      <point x="1607" y="1400" type="line"/>
      <point x="1571" y="1400" type="line"/>
      <point x="1501" y="1000" type="line"/>
      <point x="512" y="1000" type="line" smooth="yes"/>
      <point x="432.767" y="1000"/>
      <point x="335.583" y="917.233"/>
      <point x="322" y="838" type="qcurve" smooth="yes"/>
      <point x="204" y="162" type="line" smooth="yes"/>
      <point x="189.663" y="82.767"/>
      <point x="257.767" y="0"/>
    </contour>
    <contour>
      <point x="1332" y="32" type="line"/>
      <point x="343" y="32" type="line" smooth="yes"/>
      <point x="275.841" y="32"/>
      <point x="228.926" y="101.595"/>
      <point x="241" y="168" type="qcurve" smooth="yes"/>
      <point x="357" y="832" type="line" smooth="yes"/>
      <point x="368.319" y="898.405"/>
      <point x="438.841" y="968"/>
      <point x="506" y="968" type="qcurve" smooth="yes"/>
      <point x="1495" y="968" type="line"/>
    </contour>
    <contour>
      <point x="1368" y="32" type="line"/>
      <point x="1531" y="968" type="line"/>
      <point x="2521" y="968" type="line" smooth="yes"/>
      <point x="2587.4" y="968"/>
      <point x="2634.32" y="898.405"/>
      <point x="2623" y="832" type="qcurve" smooth="yes"/>
      <point x="2507" y="168" type="line" smooth="yes"/>
      <point x="2494.93" y="101.595"/>
      <point x="2424.4" y="32"/>
      <point x="2358" y="32" type="qcurve" smooth="yes"/>
    </contour>
  </outline>
  <guideline angle="0" x="0" y="988"/>
  <guideline angle="0" x="0" y="42"/>
  <guideline angle="0" x="0" y="988"/>
  <guideline angle="0" x="0" y="42"/>
  <guideline angle="260.1" color="1,0,0,1" x="2960.77" y="0"/>
  <guideline angle="260.1" color="1,0,0,1" x="1343.77" y="0"/>
</glyph>
<glyph name="uni0446" format="2">
  <advance width="1989"/>
  <unicode hex="0446"/>
  <outline>
    <contour>
      <point x="192" y="0" type="line"/>
      <point x="1769" y="0" type="line"/>
      <point x="1724" y="-260" type="line"/>
      <point x="1758" y="-260" type="line"/>
      <point x="1809" y="32" type="line"/>
      <point x="1564" y="32" type="line"/>
      <point x="1733" y="1000" type="line"/>
      <point x="1697" y="1000" type="line"/>
      <point x="1528" y="32" type="line"/>
      <point x="234" y="32" type="line"/>
      <point x="403" y="1000" type="line"/>
      <point x="367" y="1000" type="line"/>
    </contour>
  </outline>
</glyph>
<glyph name="uni0449" format="2">
  <advance width="2961"/>
  <unicode hex="0449"/>
  <outline>
    <contour>
      <point x="192" y="0" type="line"/>
      <point x="2741" y="0" type="line"/>
      <point x="2696" y="-260" type="line"/>
      <point x="2730" y="-260" type="line"/>
      <point x="2781" y="32" type="line"/>
      <point x="2536" y="32" type="line"/>
      <point x="2705" y="1000" type="line"/>
      <point x="2669" y="1000" type="line"/>
      <point x="2500" y="32" type="line"/>
      <point x="1385" y="32" type="line"/>
      <point x="1554" y="1000" type="line"/>
      <point x="1518" y="1000" type="line"/>
      <point x="1349" y="32" type="line"/>
      <point x="234" y="32" type="line"/>
      <point x="403" y="1000" type="line"/>
      <point x="367" y="1000" type="line"/>
    </contour>
  </outline>
  <guideline angle="260.1" color="1,0,0,1" name="align" x="2653" y="32"/>
</glyph>
<glyph name="uni044C" format="2">
  <advance width="2102"/>
  <unicode hex="044C"/>
  <outline>
    <contour>
      <point x="192" y="0" type="line"/>
      <point x="1526" y="0" type="line" smooth="yes"/>
      <point x="1605.23" y="0"/>
      <point x="1702.42" y="82.767"/>
      <point x="1716" y="162" type="qcurve" smooth="yes"/>
      <point x="1780" y="529" type="line" smooth="yes"/>
      <point x="1794.34" y="608.233"/>
      <point x="1726.23" y="691"/>
      <point x="1647" y="691" type="qcurve" smooth="yes"/>
      <point x="411" y="691" type="line" smooth="yes"/>
      <point x="385.344" y="691"/>
      <point x="355.055" y="682.546"/>
      <point x="346" y="675" type="qcurve"/>
      <point x="403" y="1000" type="line"/>
      <point x="367" y="1000" type="line"/>
    </contour>
    <contour>
      <point x="234" y="32" type="line"/>
      <point x="343" y="659" type="line"/>
      <point x="1631" y="659" type="line" smooth="yes"/>
      <point x="1697.4" y="659"/>
      <point x="1755.07" y="589.405"/>
      <point x="1743" y="523" type="qcurve" smooth="yes"/>
      <point x="1681" y="168" type="line" smooth="yes"/>
      <point x="1669.68" y="101.595"/>
      <point x="1588.4" y="32"/>
      <point x="1522" y="32" type="qcurve" smooth="yes"/>
    </contour>
  </outline>
</glyph>
<glyph name="uni044E" format="2">
  <advance width="2904"/>
  <unicode hex="044E"/>
  <anchor x="1588" y="-150" name="bottom"/>
  <anchor x="1815" y="1150" name="top"/>
  <outline>
    <contour>
      <point x="192" y="0" type="line"/>
      <point x="228" y="0" type="line"/>
      <point x="316" y="504" type="line"/>
      <point x="1116" y="504" type="line"/>
      <point x="1056" y="162" type="line" smooth="yes"/>
      <point x="1042.42" y="82.767"/>
      <point x="1110.77" y="0"/>
      <point x="1190" y="0" type="qcurve" smooth="yes"/>
      <point x="2329" y="0" type="line" smooth="yes"/>
      <point x="2408.23" y="0"/>
      <point x="2504.42" y="82.767"/>
      <point x="2518" y="162" type="qcurve" smooth="yes"/>
      <point x="2636" y="838" type="line" smooth="yes"/>
      <point x="2650.34" y="917.233"/>
      <point x="2583.23" y="1000"/>
      <point x="2504" y="1000" type="qcurve" smooth="yes"/>
      <point x="1365" y="1000" type="line" smooth="yes"/>
      <point x="1285.77" y="1000"/>
      <point x="1188.34" y="917.233"/>
      <point x="1174" y="838" type="qcurve" smooth="yes"/>
      <point x="1122" y="536" type="line"/>
      <point x="322" y="536" type="line"/>
      <point x="403" y="1000" type="line"/>
      <point x="367" y="1000" type="line"/>
    </contour>
    <contour>
      <point x="1207" y="32" type="line" smooth="yes"/>
      <point x="1139.84" y="32"/>
      <point x="1081.68" y="101.595"/>
      <point x="1093" y="168" type="qcurve" smooth="yes"/>
      <point x="1209" y="832" type="line" smooth="yes"/>
      <point x="1221.07" y="898.405"/>
      <point x="1302.84" y="968"/>
      <point x="1370" y="968" type="qcurve" smooth="yes"/>
      <point x="2487" y="968" type="line" smooth="yes"/>
      <point x="2554.16" y="968"/>
      <point x="2611.07" y="898.405"/>
      <point x="2599" y="832" type="qcurve" smooth="yes"/>
      <point x="2483" y="168" type="line" smooth="yes"/>
      <point x="2471.68" y="101.595"/>
      <point x="2391.16" y="32"/>
      <point x="2324" y="32" type="qcurve" smooth="yes"/>
    </contour>
  </outline>
</glyph>
<glyph name="uni044F" format="2">
  <advance width="1996"/>
  <unicode hex="044F"/>
  <outline>
    <contour>
      <point x="148" y="0" type="line"/>
      <point x="210" y="0" type="line"/>
      <point x="987" y="443" type="line"/>
      <point x="1607" y="443" type="line"/>
      <point x="1530" y="0" type="line"/>
      <point x="1566" y="0" type="line"/>
      <point x="1741" y="1000" type="line"/>
      <point x="564" y="1000" type="line" smooth="yes"/>
      <point x="448.546" y="1000"/>
      <point x="333.356" y="913.853"/>
      <point x="316" y="815" type="qcurve" smooth="yes"/>
      <point x="284" y="628" type="line" smooth="yes"/>
      <point x="266.644" y="529.147"/>
      <point x="350.546" y="443"/>
      <point x="466" y="443" type="qcurve" smooth="yes"/>
      <point x="926" y="443" type="line"/>
    </contour>
    <contour>
      <point x="477" y="475" type="line" smooth="yes"/>
      <point x="376.638" y="475"/>
      <point x="305.663" y="546.976"/>
      <point x="320" y="633" type="qcurve" smooth="yes"/>
      <point x="351" y="810" type="line" smooth="yes"/>
      <point x="366.092" y="896.024"/>
      <point x="462.638" y="968"/>
      <point x="563" y="968" type="qcurve" smooth="yes"/>
      <point x="1699" y="968" type="line"/>
      <point x="1613" y="475" type="line"/>
    </contour>
  </outline>
  <guideline angle="0" color="1,0,0,1" x="0" y="400"/>
</glyph>
<glyph name="uni0450" format="2">
  <advance width="2026"/>
  <unicode hex="0450"/>
  <anchor x="1093" y="1150" name="top"/>
  <anchor x="866" y="-150" name="bottom"/>
  <anchor x="1447" y="0" name="ogonek"/>
  <outline>
    <contour>
      <point x="204" y="162" type="line" smooth="yes"/>
      <point x="189.663" y="82.767"/>
      <point x="257.767" y="0"/>
      <point x="337" y="0" type="qcurve" smooth="yes"/>
      <point x="1450" y="0" type="line" smooth="yes"/>
      <point x="1529.23" y="0"/>
      <point x="1625.66" y="82.767"/>
      <point x="1640" y="162" type="qcurve" smooth="yes"/>
      <point x="1655" y="250" type="line"/>
      <point x="1620" y="258" type="line"/>
      <point x="1605" y="168" type="line" smooth="yes"/>
      <point x="1592.93" y="101.595"/>
      <point x="1522.4" y="32"/>
      <point x="1456" y="32" type="qcurve" smooth="yes"/>
      <point x="343" y="32" type="line" smooth="yes"/>
      <point x="275.841" y="32"/>
      <point x="228.926" y="101.595"/>
      <point x="241" y="168" type="qcurve" smooth="yes"/>
      <point x="297" y="488" type="line"/>
      <point x="1697" y="488" type="line"/>
      <point x="1758" y="838" type="line" smooth="yes"/>
      <point x="1771.58" y="917.233"/>
      <point x="1704.23" y="1000"/>
      <point x="1625" y="1000" type="qcurve" smooth="yes"/>
      <point x="512" y="1000" type="line" smooth="yes"/>
      <point x="432.767" y="1000"/>
      <point x="335.583" y="917.233"/>
      <point x="322" y="838" type="qcurve" smooth="yes"/>
    </contour>
    <contour>
      <point x="302" y="520" type="line"/>
      <point x="357" y="832" type="line" smooth="yes"/>
      <point x="368.319" y="898.405"/>
      <point x="438.841" y="968"/>
      <point x="506" y="968" type="qcurve" smooth="yes"/>
      <point x="1619" y="968" type="line" smooth="yes"/>
      <point x="1685.4" y="968"/>
      <point x="1732.32" y="898.405"/>
      <point x="1721" y="832" type="qcurve" smooth="yes"/>
      <point x="1666" y="520" type="line"/>
    </contour>
    <contour>
      <point x="1210" y="1085" type="line"/>
      <point x="1258" y="1085" type="line"/>
      <point x="860" y="1448" type="line"/>
      <point x="800" y="1448" type="line"/>
    </contour>
  </outline>
  <guideline angle="0" color="1,0,0,1" x="0" y="-1000"/>
</glyph>
<glyph name="uni0473" format="2">
  <advance width="2072"/>
  <unicode hex="0473"/>
  <outline>
    <contour>
      <point x="338" y="0" type="qcurve" smooth="yes"/>
      <point x="1496" y="0" type="line" smooth="yes"/>
      <point x="1575.23" y="0"/>
      <point x="1672.42" y="82.767"/>
      <point x="1686" y="162" type="qcurve" smooth="yes"/>
      <point x="1804" y="838" type="line" smooth="yes"/>
      <point x="1818.34" y="917.233"/>
      <point x="1750.23" y="1000"/>
      <point x="1671" y="1000" type="qcurve" smooth="yes"/>
      <point x="513" y="1000" type="line" smooth="yes"/>
      <point x="433.767" y="1000"/>
      <point x="336.337" y="917.233"/>
      <point x="322" y="838" type="qcurve" smooth="yes"/>
      <point x="204" y="162" type="line" smooth="yes"/>
      <point x="190.417" y="82.767"/>
      <point x="258.767" y="0"/>
    </contour>
    <contour>
      <point x="296" y="484" type="line"/>
      <point x="1706" y="484" type="line"/>
      <point x="1651" y="168" type="line" smooth="yes"/>
      <point x="1639.68" y="101.595"/>
      <point x="1569.16" y="32"/>
      <point x="1502" y="32" type="qcurve" smooth="yes"/>
      <point x="344" y="32" type="line" smooth="yes"/>
      <point x="276.841" y="32"/>
      <point x="229.681" y="101.595"/>
      <point x="241" y="168" type="qcurve" smooth="yes"/>
    </contour>
    <contour>
      <point x="302" y="516" type="line"/>
      <point x="357" y="832" type="line" smooth="yes"/>
      <point x="369.074" y="898.405"/>
      <point x="439.841" y="968"/>
      <point x="507" y="968" type="qcurve" smooth="yes"/>
      <point x="1665" y="968" type="line" smooth="yes"/>
      <point x="1732.16" y="968"/>
      <point x="1779.07" y="898.405"/>
      <point x="1767" y="832" type="qcurve" smooth="yes"/>
      <point x="1712" y="516" type="line"/>
    </contour>
  </outline>
</glyph>
<glyph name="uni0491" format="2">
  <advance width="1592"/>
  <unicode hex="0491"/>
  <outline>
    <contour>
      <point x="192" y="0" type="line"/>
      <point x="228" y="0" type="line"/>
      <point x="397" y="968" type="line"/>
      <point x="1549" y="968" type="line"/>
      <point x="1582" y="1158" type="line"/>
      <point x="1549" y="1158" type="line"/>
      <point x="1520" y="1000" type="line"/>
      <point x="367" y="1000" type="line"/>
    </contour>
  </outline>
</glyph>
<glyph name="uni04A5" format="2">
  <advance width="2477"/>
  <unicode hex="04A5"/>
  <outline>
    <contour>
      <point x="192" y="0" type="line"/>
      <point x="228" y="0" type="line"/>
      <point x="316" y="504" type="line"/>
      <point x="1638" y="504" type="line"/>
      <point x="1550" y="0" type="line"/>
      <point x="1586" y="0" type="line"/>
      <point x="1755" y="968" type="line"/>
      <point x="2434" y="968" type="line"/>
      <point x="2440" y="1000" type="line"/>
      <point x="1725" y="1000" type="line"/>
      <point x="1644" y="536" type="line"/>
      <point x="322" y="536" type="line"/>
      <point x="403" y="1000" type="line"/>
      <point x="367" y="1000" type="line"/>
    </contour>
  </outline>
</glyph>
<glyph name="uni04AE" format="2">
  <advance width="2219"/>
  <unicode hex="04AE"/>
  <anchor x="1325" y="1550" name="top"/>
  <anchor x="968" y="-150" name="bottom"/>
  <outline>
    <contour>
      <point x="974" y="0" type="line"/>
      <point x="1014" y="0" type="line"/>
      <point x="1126" y="644" type="line"/>
      <point x="2345" y="1400" type="line"/>
      <point x="2278" y="1400" type="line"/>
      <point x="1111" y="676" type="line"/>
      <point x="194" y="1400" type="line"/>
      <point x="127" y="1400" type="line"/>
      <point x="1086" y="644" type="line"/>
    </contour>
  </outline>
  <guideline angle="260.1" color="1,0,0,1" x="1054" y="-0"/>
</glyph>
<glyph name="uni04CF" format="2">
  <advance width="688"/>
  <unicode hex="04CF"/>
  <anchor x="503" y="1598" name="top"/>
  <anchor x="198" y="-150" name="bottom"/>
  <anchor x="495" y="1448" name="right"/>
  <anchor x="690" y="700" name="eldot"/>
  <outline>
    <contour>
      <point x="207" y="0" type="line"/>
      <point x="243" y="0" type="line"/>
      <point x="496" y="1448" type="line"/>
      <point x="460" y="1448" type="line"/>
    </contour>
  </outline>
</glyph>
<glyph name="uni04D1" format="2">
  <advance width="1985"/>
  <unicode hex="04D1"/>
  <anchor x="1126" y="1518" name="top"/>
  <anchor x="897" y="-150" name="bottom"/>
  <anchor x="1556" y="0" name="ogonek"/>
  <outline>
    <contour>
      <point x="327" y="0" type="qcurve" smooth="yes"/>
      <point x="1473" y="0" type="line" smooth="yes"/>
      <point x="1489.6" y="0"/>
      <point x="1514.19" y="12.4172"/>
      <point x="1524" y="26" type="qcurve"/>
      <point x="1519" y="0" type="line"/>
      <point x="1555" y="0" type="line"/>
      <point x="1702" y="838" type="line" smooth="yes"/>
      <point x="1715.58" y="917.233"/>
      <point x="1648.23" y="1000"/>
      <point x="1569" y="1000" type="qcurve" smooth="yes"/>
      <point x="514" y="1000" type="line" smooth="yes"/>
      <point x="434.767" y="1000"/>
      <point x="337.583" y="917.233"/>
      <point x="324" y="838" type="qcurve" smooth="yes"/>
      <point x="308" y="750" type="line"/>
      <point x="343" y="742" type="line"/>
      <point x="359" y="832" type="line" smooth="yes"/>
      <point x="370.319" y="898.405"/>
      <point x="440.841" y="968"/>
      <point x="508" y="968" type="qcurve" smooth="yes"/>
      <point x="1563" y="968" type="line" smooth="yes"/>
      <point x="1629.4" y="968"/>
      <point x="1676.32" y="898.405"/>
      <point x="1665" y="832" type="qcurve" smooth="yes"/>
      <point x="1623" y="592" type="line"/>
      <point x="431" y="592" type="line" smooth="yes"/>
      <point x="352.25" y="592"/>
      <point x="254.25" y="508.75"/>
      <point x="240" y="430" type="qcurve" smooth="yes"/>
      <point x="194" y="162" type="line" smooth="yes"/>
      <point x="179.663" y="82.767"/>
      <point x="247.767" y="0"/>
    </contour>
    <contour>
      <point x="231" y="168" type="qcurve" smooth="yes"/>
      <point x="275" y="424" type="line" smooth="yes"/>
      <point x="287.074" y="490.405"/>
      <point x="357.841" y="560"/>
      <point x="425" y="560" type="qcurve" smooth="yes"/>
      <point x="1617" y="560" type="line"/>
      <point x="1525" y="32" type="line"/>
      <point x="333" y="32" type="line" smooth="yes"/>
      <point x="265.841" y="32"/>
      <point x="218.926" y="101.595"/>
    </contour>
    <contour>
      <point x="1067" y="1144" type="qcurve" smooth="yes"/>
      <point x="1156.25" y="1144"/>
      <point x="1265.78" y="1163.53"/>
      <point x="1331.97" y="1222.22"/>
      <point x="1367.62" y="1329.88"/>
      <point x="1383" y="1418" type="qcurve"/>
      <point x="1353" y="1418" type="line"/>
      <point x="1338.38" y="1334.75"/>
      <point x="1304.62" y="1238.31"/>
      <point x="1243.88" y="1189.19"/>
      <point x="1144.88" y="1176"/>
      <point x="1065" y="1176" type="qcurve" smooth="yes"/>
      <point x="985.125" y="1176"/>
      <point x="891.062" y="1189.19"/>
      <point x="847.938" y="1238.31"/>
      <point x="848.375" y="1334.75"/>
      <point x="863" y="1418" type="qcurve"/>
      <point x="833" y="1418" type="line"/>
      <point x="817.625" y="1329.88"/>
      <point x="819.969" y="1222.22"/>
      <point x="870.781" y="1163.53"/>
      <point x="977.75" y="1144"/>
    </contour>
  </outline>
  <guideline angle="260.1" color="1,0,0,1" x="1520" y="-0"/>
</glyph>
<glyph name="uni04D4" format="2">
  <advance width="3757"/>
  <unicode hex="04D4"/>
  <anchor x="2220" y="1550" name="top"/>
  <anchor x="1733" y="-150" name="bottom"/>
  <outline>
    <contour>
      <point x="-120" y="0" type="line"/>
      <point x="-63" y="0" type="line"/>
      <point x="378" y="388" type="line"/>
      <point x="1812" y="388" type="line"/>
      <point x="1744" y="0" type="line"/>
      <point x="3632" y="0" type="line"/>
      <point x="3638" y="36" type="line"/>
      <point x="1790" y="36" type="line"/>
      <point x="1906" y="700" type="line"/>
      <point x="3084" y="700" type="line"/>
      <point x="3090" y="736" type="line"/>
      <point x="1912" y="736" type="line"/>
      <point x="2022" y="1364" type="line"/>
      <point x="3836" y="1364" type="line"/>
      <point x="3842" y="1400" type="line"/>
      <point x="1474" y="1400" type="line"/>
    </contour>
    <contour>
      <point x="419" y="424" type="line"/>
      <point x="1488" y="1364" type="line"/>
      <point x="1982" y="1364" type="line"/>
      <point x="1818" y="424" type="line"/>
    </contour>
  </outline>
</glyph>
<glyph name="uni04D7" format="2">
  <advance width="2026"/>
  <unicode hex="04D7"/>
  <anchor x="1161" y="1518" name="top"/>
  <anchor x="869" y="-150" name="bottom"/>
  <anchor x="1450" y="0" name="ogonek"/>
  <outline>
    <contour>
      <point x="204" y="162" type="line" smooth="yes"/>
      <point x="189.663" y="82.767"/>
      <point x="257.767" y="0"/>
      <point x="337" y="0" type="qcurve" smooth="yes"/>
      <point x="1450" y="0" type="line" smooth="yes"/>
      <point x="1529.23" y="0"/>
      <point x="1625.66" y="82.767"/>
      <point x="1640" y="162" type="qcurve" smooth="yes"/>
      <point x="1655" y="250" type="line"/>
      <point x="1620" y="258" type="line"/>
      <point x="1605" y="168" type="line" smooth="yes"/>
      <point x="1592.93" y="101.595"/>
      <point x="1522.4" y="32"/>
      <point x="1456" y="32" type="qcurve" smooth="yes"/>
      <point x="343" y="32" type="line" smooth="yes"/>
      <point x="275.841" y="32"/>
      <point x="228.926" y="101.595"/>
      <point x="241" y="168" type="qcurve" smooth="yes"/>
      <point x="297" y="488" type="line"/>
      <point x="1697" y="488" type="line"/>
      <point x="1758" y="838" type="line" smooth="yes"/>
      <point x="1771.58" y="917.233"/>
      <point x="1704.23" y="1000"/>
      <point x="1625" y="1000" type="qcurve" smooth="yes"/>
      <point x="512" y="1000" type="line" smooth="yes"/>
      <point x="432.767" y="1000"/>
      <point x="335.583" y="917.233"/>
      <point x="322" y="838" type="qcurve" smooth="yes"/>
    </contour>
    <contour>
      <point x="302" y="520" type="line"/>
      <point x="357" y="832" type="line" smooth="yes"/>
      <point x="368.319" y="898.405"/>
      <point x="438.841" y="968"/>
      <point x="506" y="968" type="qcurve" smooth="yes"/>
      <point x="1619" y="968" type="line" smooth="yes"/>
      <point x="1685.4" y="968"/>
      <point x="1732.32" y="898.405"/>
      <point x="1721" y="832" type="qcurve" smooth="yes"/>
      <point x="1666" y="520" type="line"/>
    </contour>
    <contour>
      <point x="1102" y="1144" type="qcurve" smooth="yes"/>
      <point x="1191.25" y="1144"/>
      <point x="1300.78" y="1163.53"/>
      <point x="1366.97" y="1222.22"/>
      <point x="1402.62" y="1329.88"/>
      <point x="1418" y="1418" type="qcurve"/>
      <point x="1388" y="1418" type="line"/>
      <point x="1373.38" y="1334.75"/>
      <point x="1339.62" y="1238.31"/>
      <point x="1278.88" y="1189.19"/>
      <point x="1179.88" y="1176"/>
      <point x="1100" y="1176" type="qcurve" smooth="yes"/>
      <point x="1020.12" y="1176"/>
      <point x="926.062" y="1189.19"/>
      <point x="882.938" y="1238.31"/>
      <point x="883.375" y="1334.75"/>
      <point x="898" y="1418" type="qcurve"/>
      <point x="868" y="1418" type="line"/>
      <point x="852.625" y="1329.88"/>
      <point x="854.969" y="1222.22"/>
      <point x="905.781" y="1163.53"/>
      <point x="1012.75" y="1144"/>
    </contour>
  </outline>
  <guideline angle="0" color="1,0,0,1" x="0" y="-1000"/>
</glyph>
<glyph name="uni04D9" format="2">
  <advance width="2023"/>
  <unicode hex="04D9"/>
  <anchor x="863" y="-150" name="top"/>
  <anchor x="1090" y="1150" name="bottom"/>
  <anchor x="509" y="1000" name="ogonek"/>
  <outline>
    <contour>
      <point x="1752" y="838" type="line" smooth="yes"/>
      <point x="1766.34" y="917.233"/>
      <point x="1698.23" y="1000"/>
      <point x="1619" y="1000" type="qcurve" smooth="yes"/>
      <point x="506" y="1000" type="line" smooth="yes"/>
      <point x="426.767" y="1000"/>
      <point x="330.337" y="917.233"/>
      <point x="316" y="838" type="qcurve" smooth="yes"/>
      <point x="301" y="750" type="line"/>
      <point x="336" y="742" type="line"/>
      <point x="351" y="832" type="line" smooth="yes"/>
      <point x="363.074" y="898.405"/>
      <point x="433.595" y="968"/>
      <point x="500" y="968" type="qcurve" smooth="yes"/>
      <point x="1613" y="968" type="line" smooth="yes"/>
      <point x="1680.16" y="968"/>
      <point x="1727.07" y="898.405"/>
      <point x="1715" y="832" type="qcurve" smooth="yes"/>
      <point x="1659" y="512" type="line"/>
      <point x="259" y="512" type="line"/>
      <point x="198" y="162" type="line" smooth="yes"/>
      <point x="184.417" y="82.767"/>
      <point x="251.767" y="0"/>
      <point x="331" y="0" type="qcurve" smooth="yes"/>
      <point x="1444" y="0" type="line" smooth="yes"/>
      <point x="1523.23" y="0"/>
      <point x="1620.42" y="82.767"/>
      <point x="1634" y="162" type="qcurve" smooth="yes"/>
    </contour>
    <contour>
      <point x="1654" y="480" type="line"/>
      <point x="1599" y="168" type="line" smooth="yes"/>
      <point x="1587.68" y="101.595"/>
      <point x="1517.16" y="32"/>
      <point x="1450" y="32" type="qcurve" smooth="yes"/>
      <point x="337" y="32" type="line" smooth="yes"/>
      <point x="270.595" y="32"/>
      <point x="223.681" y="101.595"/>
      <point x="235" y="168" type="qcurve" smooth="yes"/>
      <point x="290" y="480" type="line"/>
    </contour>
  </outline>
  <guideline angle="0" color="1,0,0,1" x="0" y="2000"/>
</glyph>
<glyph name="uni04E3" format="2">
  <advance width="2016"/>
  <unicode hex="04E3"/>
  <anchor x="1134" y="1386" name="top"/>
  <outline>
    <contour>
      <point x="192" y="0" type="line"/>
      <point x="226" y="0" type="line"/>
      <point x="1718" y="960" type="line"/>
      <point x="1550" y="0" type="line"/>
      <point x="1586" y="0" type="line"/>
      <point x="1761" y="1000" type="line"/>
      <point x="1727" y="1000" type="line"/>
      <point x="235" y="40" type="line"/>
      <point x="403" y="1000" type="line"/>
      <point x="367" y="1000" type="line"/>
    </contour>
    <contour>
      <point x="629" y="1254" type="line"/>
      <point x="1594" y="1254" type="line"/>
      <point x="1599" y="1286" type="line"/>
      <point x="634" y="1286" type="line"/>
    </contour>
  </outline>
</glyph>
<glyph name="uni04E7" format="2">
  <advance width="2069"/>
  <unicode hex="04E7"/>
  <anchor x="1159" y="1399" name="top"/>
  <anchor x="888" y="-150" name="bottom"/>
  <anchor x="1801" y="838" name="horn"/>
  <anchor x="932" y="0" name="ogonek"/>
  <outline>
    <contour>
      <point x="204" y="162" type="line" smooth="yes"/>
      <point x="189.663" y="82.767"/>
      <point x="257.767" y="0"/>
      <point x="337" y="0" type="qcurve" smooth="yes"/>
      <point x="1495" y="0" type="line" smooth="yes"/>
      <point x="1574.23" y="0"/>
      <point x="1671.66" y="82.767"/>
      <point x="1686" y="162" type="qcurve" smooth="yes"/>
      <point x="1804" y="838" type="line" smooth="yes"/>
      <point x="1817.58" y="917.233"/>
      <point x="1749.23" y="1000"/>
      <point x="1670" y="1000" type="qcurve" smooth="yes"/>
      <point x="512" y="1000" type="line" smooth="yes"/>
      <point x="432.767" y="1000"/>
      <point x="335.583" y="917.233"/>
      <point x="322" y="838" type="qcurve" smooth="yes"/>
    </contour>
    <contour>
      <point x="241" y="168" type="qcurve" smooth="yes"/>
      <point x="357" y="832" type="line" smooth="yes"/>
      <point x="368.319" y="898.405"/>
      <point x="438.841" y="968"/>
      <point x="506" y="968" type="qcurve" smooth="yes"/>
      <point x="1664" y="968" type="line" smooth="yes"/>
      <point x="1731.16" y="968"/>
      <point x="1778.32" y="898.405"/>
      <point x="1767" y="832" type="qcurve" smooth="yes"/>
      <point x="1651" y="168" type="line" smooth="yes"/>
      <point x="1638.93" y="101.595"/>
      <point x="1568.16" y="32"/>
      <point x="1501" y="32" type="qcurve" smooth="yes"/>
      <point x="343" y="32" type="line" smooth="yes"/>
      <point x="275.841" y="32"/>
      <point x="228.926" y="101.595"/>
    </contour>
    <contour>
      <point x="896" y="1239" type="qcurve" smooth="yes"/>
      <point x="914" y="1239" type="line" smooth="yes"/>
      <point x="932.865" y="1239"/>
      <point x="941.227" y="1246.13"/>
      <point x="945" y="1265" type="qcurve"/>
      <point x="948" y="1283" type="line" smooth="yes"/>
      <point x="951.018" y="1301.87"/>
      <point x="945.11" y="1309"/>
      <point x="927" y="1309" type="qcurve" smooth="yes"/>
      <point x="908" y="1309" type="line" smooth="yes"/>
      <point x="889.135" y="1309"/>
      <point x="881.018" y="1301.87"/>
      <point x="878" y="1283" type="qcurve" smooth="yes"/>
      <point x="875" y="1265" type="line"/>
      <point x="871.227" y="1246.13"/>
      <point x="877.135" y="1239"/>
    </contour>
    <contour>
      <point x="1348" y="1239" type="qcurve" smooth="yes"/>
      <point x="1366" y="1239" type="line" smooth="yes"/>
      <point x="1384.87" y="1239"/>
      <point x="1393.23" y="1246.13"/>
      <point x="1397" y="1265" type="qcurve"/>
      <point x="1400" y="1283" type="line" smooth="yes"/>
      <point x="1403.02" y="1301.87"/>
      <point x="1397.11" y="1309"/>
      <point x="1379" y="1309" type="qcurve" smooth="yes"/>
      <point x="1360" y="1309" type="line" smooth="yes"/>
      <point x="1341.13" y="1309"/>
      <point x="1333.02" y="1301.87"/>
      <point x="1330" y="1283" type="qcurve" smooth="yes"/>
      <point x="1327" y="1265" type="line"/>
      <point x="1323.23" y="1246.13"/>
      <point x="1329.13" y="1239"/>
    </contour>
  </outline>
</glyph>
<glyph name="uni04F0" format="2">
  <advance width="2145"/>
  <unicode hex="04F0"/>
  <anchor x="1269" y="1799" name="top"/>
  <outline>
    <contour>
      <point x="317" y="0" type="line"/>
      <point x="566" y="0" type="line" smooth="yes"/>
      <point x="649.761" y="0"/>
      <point x="810.086" y="72.8774"/>
      <point x="878" y="134" type="qcurve" smooth="yes"/>
      <point x="2271" y="1400" type="line"/>
      <point x="2218" y="1400" type="line"/>
      <point x="1047" y="334" type="line"/>
      <point x="173" y="1400" type="line"/>
      <point x="127" y="1400" type="line"/>
      <point x="1019" y="309" type="line"/>
      <point x="851" y="156" type="line" smooth="yes"/>
      <point x="783.841" y="94.8774"/>
      <point x="656.006" y="36"/>
      <point x="573" y="36" type="qcurve" smooth="yes"/>
      <point x="315" y="36" type="line"/>
    </contour>
    <contour>
      <point x="1006" y="1639" type="qcurve" smooth="yes"/>
      <point x="1024" y="1639" type="line" smooth="yes"/>
      <point x="1042.87" y="1639"/>
      <point x="1051.23" y="1646.13"/>
      <point x="1055" y="1665" type="qcurve"/>
      <point x="1058" y="1683" type="line" smooth="yes"/>
      <point x="1061.02" y="1701.87"/>
      <point x="1055.11" y="1709"/>
      <point x="1037" y="1709" type="qcurve" smooth="yes"/>
      <point x="1018" y="1709" type="line" smooth="yes"/>
      <point x="999.135" y="1709"/>
      <point x="991.018" y="1701.87"/>
      <point x="988" y="1683" type="qcurve" smooth="yes"/>
      <point x="985" y="1665" type="line"/>
      <point x="981.227" y="1646.13"/>
      <point x="987.135" y="1639"/>
    </contour>
    <contour>
      <point x="1458" y="1639" type="qcurve" smooth="yes"/>
      <point x="1476" y="1639" type="line" smooth="yes"/>
      <point x="1494.87" y="1639"/>
      <point x="1503.23" y="1646.13"/>
      <point x="1507" y="1665" type="qcurve"/>
      <point x="1510" y="1683" type="line" smooth="yes"/>
      <point x="1513.02" y="1701.87"/>
      <point x="1507.11" y="1709"/>
      <point x="1489" y="1709" type="qcurve" smooth="yes"/>
      <point x="1470" y="1709" type="line" smooth="yes"/>
      <point x="1451.13" y="1709"/>
      <point x="1443.02" y="1701.87"/>
      <point x="1440" y="1683" type="qcurve" smooth="yes"/>
      <point x="1437" y="1665" type="line"/>
      <point x="1433.23" y="1646.13"/>
      <point x="1439.13" y="1639"/>
    </contour>
  </outline>
  <guideline angle="90" x="400" y="0"/>
</glyph>
<glyph name="uni04F7" format="2">
  <advance width="1592"/>
  <unicode hex="04F7"/>
  <outline>
    <contour>
      <point x="192" y="0" type="line" name="ATT"/>
      <point x="257" y="0" type="line"/>
      <point x="215" y="-240" type="line"/>
      <point x="250" y="-240" type="line"/>
      <point x="298" y="32" type="line"/>
      <point x="234" y="32" type="line"/>
      <point x="397" y="968" type="line"/>
      <point x="1549" y="968" type="line"/>
      <point x="1555" y="1000" type="line"/>
      <point x="367" y="1000" type="line"/>
    </contour>
  </outline>
</glyph>
<glyph name="uni1E44" format="2">
  <advance width="2865"/>
  <unicode hex="1E44"/>
  <anchor x="1634" y="1790" name="top"/>
  <anchor x="1288" y="-150" name="bottom"/>
  <outline>
    <contour>
      <point x="233" y="0" type="line"/>
      <point x="269" y="0" type="line"/>
      <point x="505" y="1353" type="line"/>
      <point x="2357" y="0" type="line"/>
      <point x="2395" y="0" type="line"/>
      <point x="2639" y="1400" type="line"/>
      <point x="2603" y="1400" type="line"/>
      <point x="2367" y="46" type="line"/>
      <point x="513" y="1400" type="line"/>
      <point x="477" y="1400" type="line"/>
    </contour>
    <contour>
      <point x="1589" y="1638" type="qcurve" smooth="yes"/>
      <point x="1625" y="1638" type="line" smooth="yes"/>
      <point x="1642.36" y="1638"/>
      <point x="1649.98" y="1644.64"/>
      <point x="1653" y="1662" type="qcurve" smooth="yes"/>
      <point x="1659" y="1696" type="line" smooth="yes"/>
      <point x="1662.02" y="1713.36"/>
      <point x="1656.36" y="1720"/>
      <point x="1639" y="1720" type="qcurve" smooth="yes"/>
      <point x="1603" y="1720" type="line" smooth="yes"/>
      <point x="1585.64" y="1720"/>
      <point x="1578.02" y="1713.36"/>
      <point x="1575" y="1696" type="qcurve" smooth="yes"/>
      <point x="1569" y="1662" type="line" smooth="yes"/>
      <point x="1565.98" y="1644.64"/>
      <point x="1571.64" y="1638"/>
    </contour>
  </outline>
</glyph>
<glyph name="uni1E45" format="2">
  <advance width="2032"/>
  <unicode hex="1E45"/>
  <anchor x="1111" y="1150" name="top"/>
  <anchor x="884" y="-150" name="bottom"/>
  <outline>
    <contour>
      <point x="208" y="0" type="line"/>
      <point x="244" y="0" type="line"/>
      <point x="413" y="968" type="line"/>
      <point x="1609" y="968" type="line" smooth="yes"/>
      <point x="1676.16" y="968"/>
      <point x="1723.07" y="898.405"/>
      <point x="1711" y="832" type="qcurve" smooth="yes"/>
      <point x="1566" y="0" type="line"/>
      <point x="1602" y="0" type="line"/>
      <point x="1748" y="838" type="line" smooth="yes"/>
      <point x="1762.25" y="916.75"/>
      <point x="1693.75" y="1000"/>
      <point x="1615" y="1000" type="qcurve" smooth="yes"/>
      <point x="495" y="1000" type="line" smooth="yes"/>
      <point x="467.834" y="1000"/>
      <point x="426.828" y="985.583"/>
      <point x="414" y="972" type="qcurve"/>
      <point x="419" y="1000" type="line"/>
      <point x="383" y="1000" type="line"/>
    </contour>
    <contour>
      <point x="979" y="1150" type="qcurve" smooth="yes"/>
      <point x="1011" y="1150" type="line" smooth="yes"/>
      <point x="1029.11" y="1150"/>
      <point x="1035.98" y="1155.89"/>
      <point x="1039" y="1174" type="qcurve"/>
      <point x="1045" y="1206" type="line" smooth="yes"/>
      <point x="1048.02" y="1224.11"/>
      <point x="1043.11" y="1230"/>
      <point x="1025" y="1230" type="qcurve" smooth="yes"/>
      <point x="993" y="1230" type="line" smooth="yes"/>
      <point x="974.89" y="1230"/>
      <point x="968.018" y="1224.11"/>
      <point x="965" y="1206" type="qcurve"/>
      <point x="959" y="1174" type="line" smooth="yes"/>
      <point x="955.982" y="1155.89"/>
      <point x="960.89" y="1150"/>
    </contour>
  </outline>
  <guideline angle="0" x="0" y="988"/>
  <guideline angle="0" x="0" y="870"/>
</glyph>
<glyph name="Wgrave" format="2">
  <advance width="2985"/>
  <unicode hex="1E80"/>
  <anchor x="1375" y="-150" name="bottom"/>
  <anchor x="1645" y="1550" name="top"/>
  <anchor x="1776" y="1485" name="topright"/>
  <outline>
    <contour>
      <point x="649" y="0" type="line"/>
      <point x="668" y="0" type="line"/>
      <point x="1611" y="1356" type="line"/>
      <point x="2084" y="0" type="line"/>
      <point x="2101" y="0" type="line"/>
      <point x="3111" y="1400" type="line"/>
      <point x="3067" y="1400" type="line"/>
      <point x="2104" y="64" type="line"/>
      <point x="1637" y="1400" type="line"/>
      <point x="1597" y="1400" type="line"/>
      <point x="669" y="64" type="line"/>
      <point x="171" y="1400" type="line"/>
      <point x="127" y="1400" type="line"/>
    </contour>
    <contour>
      <point x="1755" y="1485" type="line"/>
      <point x="1812" y="1485" type="line"/>
      <point x="1409" y="1800" type="line"/>
      <point x="1341" y="1800" type="line"/>
    </contour>
  </outline>
</glyph>
<glyph name="Wacute" format="2">
  <advance width="2985"/>
  <unicode hex="1E82"/>
  <anchor x="1375" y="-150" name="bottom"/>
  <anchor x="1645" y="1550" name="top"/>
  <anchor x="1492" y="1485" name="topright"/>
  <outline>
    <contour>
      <point x="649" y="0" type="line"/>
      <point x="668" y="0" type="line"/>
      <point x="1611" y="1356" type="line"/>
      <point x="2084" y="0" type="line"/>
      <point x="2101" y="0" type="line"/>
      <point x="3111" y="1400" type="line"/>
      <point x="3067" y="1400" type="line"/>
      <point x="2104" y="64" type="line"/>
      <point x="1637" y="1400" type="line"/>
      <point x="1597" y="1400" type="line"/>
      <point x="669" y="64" type="line"/>
      <point x="171" y="1400" type="line"/>
      <point x="127" y="1400" type="line"/>
    </contour>
    <contour>
      <point x="1448" y="1485" type="line"/>
      <point x="1513" y="1485" type="line"/>
      <point x="2038" y="1800" type="line"/>
      <point x="1961" y="1800" type="line"/>
    </contour>
  </outline>
</glyph>
<glyph name="uni1EA6" format="2">
  <advance width="2470"/>
  <unicode hex="1EA6"/>
  <anchor x="1383" y="1550" name="top"/>
  <anchor x="1090" y="-150" name="bottom"/>
  <anchor x="2294" y="0" name="ogonek_in"/>
  <outline>
    <contour>
      <point x="-120" y="0" type="line"/>
      <point x="-70" y="0" type="line"/>
      <point x="337" y="388" type="line"/>
      <point x="2025" y="388" type="line"/>
      <point x="2296" y="0" type="line"/>
      <point x="2350" y="0" type="line"/>
      <point x="1365" y="1400" type="line"/>
      <point x="1347" y="1400" type="line"/>
    </contour>
    <contour>
      <point x="374" y="424" type="line"/>
      <point x="1349" y="1354" type="line"/>
      <point x="2000" y="424" type="line"/>
    </contour>
    <contour>
      <point x="944" y="1485" type="line"/>
      <point x="996" y="1485" type="line"/>
      <point x="1431" y="1765" type="line"/>
      <point x="1758" y="1485" type="line"/>
      <point x="1810" y="1485" type="line"/>
      <point x="1443" y="1800" type="line"/>
      <point x="1431" y="1800" type="line"/>
    </contour>
    <contour>
      <point x="2014" y="1667" type="line"/>
      <point x="2055" y="1667" type="line"/>
      <point x="1801" y="1900" type="line"/>
      <point x="1750" y="1900" type="line"/>
    </contour>
  </outline>
</glyph>
<glyph name="uni1EA8" format="2">
  <advance width="2470"/>
  <unicode hex="1EA8"/>
  <anchor x="1442" y="1880" name="top"/>
  <anchor x="1090" y="-150" name="bottom"/>
  <anchor x="2294" y="0" name="ogonek_in"/>
  <anchor x="1886" y="1585" name="topright"/>
  <outline>
    <contour>
      <point x="-120" y="0" type="line"/>
      <point x="-70" y="0" type="line"/>
      <point x="337" y="388" type="line"/>
      <point x="2025" y="388" type="line"/>
      <point x="2296" y="0" type="line"/>
      <point x="2350" y="0" type="line"/>
      <point x="1365" y="1400" type="line"/>
      <point x="1347" y="1400" type="line"/>
    </contour>
    <contour>
      <point x="374" y="424" type="line"/>
      <point x="1349" y="1354" type="line"/>
      <point x="2000" y="424" type="line"/>
    </contour>
    <contour>
      <point x="876" y="1485" type="line"/>
      <point x="941" y="1485" type="line"/>
      <point x="1427" y="1776" type="line"/>
      <point x="1811" y="1485" type="line"/>
      <point x="1868" y="1485" type="line"/>
      <point x="1447" y="1800" type="line"/>
      <point x="1407" y="1800" type="line"/>
    </contour>
    <contour>
      <point x="1886" y="1585" type="qcurve"/>
      <point x="1947" y="1585" type="line"/>
      <point x="2024.72" y="1611.41"/>
      <point x="2127.94" y="1693.93"/>
      <point x="2137" y="1746" type="qcurve" smooth="yes"/>
      <point x="2148.32" y="1808.63"/>
      <point x="2062.32" y="1883"/>
      <point x="1968" y="1883" type="qcurve" smooth="yes"/>
      <point x="1917.44" y="1883"/>
      <point x="1822.48" y="1862.58"/>
      <point x="1784" y="1849" type="qcurve"/>
      <point x="1789" y="1821" type="line"/>
      <point x="1825.98" y="1834.58"/>
      <point x="1914.46" y="1851"/>
      <point x="1962" y="1851" type="qcurve" smooth="yes"/>
      <point x="2039.72" y="1851"/>
      <point x="2110.3" y="1800.29"/>
      <point x="2102" y="1752" type="qcurve" smooth="yes"/>
      <point x="2091.44" y="1695.4"/>
      <point x="1978.82" y="1618.96"/>
    </contour>
  </outline>
</glyph>
<glyph name="uni1EBA" format="2">
  <advance width="2243"/>
  <unicode hex="1EBA"/>
  <anchor x="1445" y="1550" name="top"/>
  <anchor x="1148" y="-150" name="bottom"/>
  <anchor x="2107" y="0" name="ogonek"/>
  <outline>
    <contour>
      <point x="233" y="0" type="line"/>
      <point x="2121" y="0" type="line"/>
      <point x="2127" y="36" type="line"/>
      <point x="279" y="36" type="line"/>
      <point x="395" y="700" type="line"/>
      <point x="1573" y="700" type="line"/>
      <point x="1579" y="736" type="line"/>
      <point x="401" y="736" type="line"/>
      <point x="511" y="1364" type="line"/>
      <point x="2325" y="1364" type="line"/>
      <point x="2331" y="1400" type="line"/>
      <point x="477" y="1400" type="line"/>
    </contour>
    <contour>
      <point x="1392" y="1516" type="qcurve"/>
      <point x="1453" y="1516" type="line"/>
      <point x="1530.72" y="1542.41"/>
      <point x="1633.94" y="1624.93"/>
      <point x="1643" y="1677" type="qcurve" smooth="yes"/>
      <point x="1654.32" y="1739.63"/>
      <point x="1568.33" y="1814"/>
      <point x="1474" y="1814" type="qcurve" smooth="yes"/>
      <point x="1423.44" y="1814"/>
      <point x="1328.48" y="1793.58"/>
      <point x="1290" y="1780" type="qcurve"/>
      <point x="1295" y="1752" type="line"/>
      <point x="1331.98" y="1765.58"/>
      <point x="1420.46" y="1782"/>
      <point x="1468" y="1782" type="qcurve" smooth="yes"/>
      <point x="1545.72" y="1782"/>
      <point x="1616.3" y="1731.29"/>
      <point x="1608" y="1683" type="qcurve" smooth="yes"/>
      <point x="1597.44" y="1626.4"/>
      <point x="1484.82" y="1549.96"/>
    </contour>
  </outline>
</glyph>
<glyph name="uni1EBC" format="2">
  <advance width="2243"/>
  <unicode hex="1EBC"/>
  <anchor x="1506" y="1894" name="top"/>
  <anchor x="1148" y="-150" name="bottom"/>
  <anchor x="2107" y="0" name="ogonek"/>
  <outline>
    <contour>
      <point x="233" y="0" type="line"/>
      <point x="2121" y="0" type="line"/>
      <point x="2127" y="36" type="line"/>
      <point x="279" y="36" type="line"/>
      <point x="395" y="700" type="line"/>
      <point x="1573" y="700" type="line"/>
      <point x="1579" y="736" type="line"/>
      <point x="401" y="736" type="line"/>
      <point x="511" y="1364" type="line"/>
      <point x="2325" y="1364" type="line"/>
      <point x="2331" y="1400" type="line"/>
      <point x="477" y="1400" type="line"/>
    </contour>
    <contour>
      <point x="1003" y="1560" type="qcurve"/>
      <point x="1037" y="1553" type="line"/>
      <point x="1095.1" y="1666.19"/>
      <point x="1214.07" y="1759"/>
      <point x="1285" y="1759" type="qcurve" smooth="yes"/>
      <point x="1346.88" y="1759"/>
      <point x="1423.91" y="1694.62"/>
      <point x="1493.84" y="1617.38"/>
      <point x="1576.5" y="1553"/>
      <point x="1644" y="1553" type="qcurve" smooth="yes"/>
      <point x="1678.12" y="1553"/>
      <point x="1749.91" y="1571.84"/>
      <point x="1822.84" y="1623.41"/>
      <point x="1895.75" y="1714.62"/>
      <point x="1931" y="1787" type="qcurve"/>
      <point x="1897" y="1794" type="line"/>
      <point x="1838.9" y="1680.81"/>
      <point x="1720.93" y="1588"/>
      <point x="1650" y="1588" type="qcurve" smooth="yes"/>
      <point x="1588.12" y="1588"/>
      <point x="1510.47" y="1652.38"/>
      <point x="1439.78" y="1729.62"/>
      <point x="1356.5" y="1794"/>
      <point x="1289" y="1794" type="qcurve" smooth="yes"/>
      <point x="1254.88" y="1794"/>
      <point x="1183.41" y="1775.16"/>
      <point x="1110.84" y="1723.59"/>
      <point x="1038.25" y="1632.38"/>
    </contour>
  </outline>
</glyph>
<glyph name="uni1EBD" format="2">
  <advance width="2023"/>
  <unicode hex="1EBD"/>
  <anchor x="1149" y="1469" name="top"/>
  <anchor x="866" y="-150" name="bottom"/>
  <anchor x="1447" y="0" name="ogonek"/>
  <outline>
    <contour>
      <point x="204" y="162" type="line" smooth="yes"/>
      <point x="189.663" y="82.767"/>
      <point x="257.767" y="0"/>
      <point x="337" y="0" type="qcurve" smooth="yes"/>
      <point x="1450" y="0" type="line" smooth="yes"/>
      <point x="1529.23" y="0"/>
      <point x="1625.66" y="82.767"/>
      <point x="1640" y="162" type="qcurve" smooth="yes"/>
      <point x="1655" y="250" type="line"/>
      <point x="1620" y="258" type="line"/>
      <point x="1605" y="168" type="line" smooth="yes"/>
      <point x="1592.93" y="101.595"/>
      <point x="1522.4" y="32"/>
      <point x="1456" y="32" type="qcurve" smooth="yes"/>
      <point x="343" y="32" type="line" smooth="yes"/>
      <point x="275.841" y="32"/>
      <point x="228.926" y="101.595"/>
      <point x="241" y="168" type="qcurve" smooth="yes"/>
      <point x="297" y="488" type="line"/>
      <point x="1697" y="488" type="line"/>
      <point x="1758" y="838" type="line" smooth="yes"/>
      <point x="1771.58" y="917.233"/>
      <point x="1704.23" y="1000"/>
      <point x="1625" y="1000" type="qcurve" smooth="yes"/>
      <point x="512" y="1000" type="line" smooth="yes"/>
      <point x="432.767" y="1000"/>
      <point x="335.583" y="917.233"/>
      <point x="322" y="838" type="qcurve" smooth="yes"/>
    </contour>
    <contour>
      <point x="302" y="520" type="line"/>
      <point x="357" y="832" type="line" smooth="yes"/>
      <point x="368.319" y="898.405"/>
      <point x="438.841" y="968"/>
      <point x="506" y="968" type="qcurve" smooth="yes"/>
      <point x="1619" y="968" type="line" smooth="yes"/>
      <point x="1685.4" y="968"/>
      <point x="1732.32" y="898.405"/>
      <point x="1721" y="832" type="qcurve" smooth="yes"/>
      <point x="1666" y="520" type="line"/>
    </contour>
    <contour>
      <point x="658" y="1179" type="qcurve"/>
      <point x="688" y="1173" type="line"/>
      <point x="746.104" y="1286.94"/>
      <point x="868.558" y="1384"/>
      <point x="941" y="1384" type="qcurve" smooth="yes"/>
      <point x="1002.5" y="1384"/>
      <point x="1076.41" y="1318.06"/>
      <point x="1143.34" y="1238.94"/>
      <point x="1224.38" y="1173"/>
      <point x="1293" y="1173" type="qcurve" smooth="yes"/>
      <point x="1361.25" y="1173"/>
      <point x="1508.5" y="1263.25"/>
      <point x="1579" y="1408" type="qcurve"/>
      <point x="1549" y="1414" type="line"/>
      <point x="1490.9" y="1300.06"/>
      <point x="1367.44" y="1203"/>
      <point x="1295" y="1203" type="qcurve" smooth="yes"/>
      <point x="1233.5" y="1203"/>
      <point x="1159.91" y="1268.94"/>
      <point x="1093.34" y="1348.06"/>
      <point x="1012.62" y="1414"/>
      <point x="944" y="1414" type="qcurve" smooth="yes"/>
      <point x="875.75" y="1414"/>
      <point x="728.5" y="1323.75"/>
    </contour>
  </outline>
  <guideline angle="0" color="1,0,0,1" x="0" y="-1000"/>
</glyph>
<glyph name="uni1EC4" format="2">
  <advance width="2243"/>
  <unicode hex="1EC4"/>
  <anchor x="1445" y="1550" name="top"/>
  <anchor x="1148" y="-150" name="bottom"/>
  <anchor x="2107" y="0" name="ogonek"/>
  <outline>
    <contour>
      <point x="233" y="0" type="line"/>
      <point x="2121" y="0" type="line"/>
      <point x="2127" y="36" type="line"/>
      <point x="279" y="36" type="line"/>
      <point x="395" y="700" type="line"/>
      <point x="1573" y="700" type="line"/>
      <point x="1579" y="736" type="line"/>
      <point x="401" y="736" type="line"/>
      <point x="511" y="1364" type="line"/>
      <point x="2325" y="1364" type="line"/>
      <point x="2331" y="1400" type="line"/>
      <point x="477" y="1400" type="line"/>
    </contour>
    <contour>
      <point x="977" y="1495" type="line"/>
      <point x="1029" y="1495" type="line"/>
      <point x="1490" y="1778" type="line"/>
      <point x="1851" y="1495" type="line"/>
      <point x="1903" y="1495" type="line"/>
      <point x="1509" y="1800" type="line"/>
      <point x="1477" y="1800" type="line"/>
    </contour>
    <contour>
      <point x="1068" y="1882" type="qcurve"/>
      <point x="1096" y="1876" type="line"/>
      <point x="1137.5" y="1958.25"/>
      <point x="1262.29" y="2047"/>
      <point x="1337" y="2047" type="qcurve" smooth="yes"/>
      <point x="1398.88" y="2047"/>
      <point x="1478.03" y="1993.56"/>
      <point x="1550.22" y="1929.44"/>
      <point x="1634.25" y="1876"/>
      <point x="1701" y="1876" type="qcurve" smooth="yes"/>
      <point x="1785.52" y="1876"/>
      <point x="1928.18" y="1975.17"/>
      <point x="1981" y="2071" type="qcurve"/>
      <point x="1953" y="2077" type="line"/>
      <point x="1903.2" y="1991.73"/>
      <point x="1781.69" y="1906"/>
      <point x="1710" y="1906" type="qcurve" smooth="yes"/>
      <point x="1648.88" y="1906"/>
      <point x="1570.47" y="1959.44"/>
      <point x="1498.28" y="2023.56"/>
      <point x="1413.5" y="2077"/>
      <point x="1346" y="2077" type="qcurve" smooth="yes"/>
      <point x="1258.47" y="2077"/>
      <point x="1113.28" y="1975.57"/>
    </contour>
  </outline>
</glyph>
